SplineFontDB: 3.0
FontName: Amatic-Bold
FullName: Amatic Bold
FamilyName: Amatic
Weight: Bold
Copyright: Copyright (c) 2011-12 by vernon adams. All rights reserved.
Version: 2.001
ItalicAngle: 0
UnderlinePosition: -204
UnderlineWidth: 102
Ascent: 1638
Descent: 410
sfntRevision: 0x00020041
LayerCount: 2
Layer: 0 1 "Back"  1
Layer: 1 1 "Fore"  0
XUID: [1021 913 -2060267417 11107866]
FSType: 0
OS2Version: 1
OS2_WeightWidthSlopeOnly: 0
OS2_UseTypoMetrics: 1
CreationTime: 1336026831
ModificationTime: 1369574758
PfmFamily: 17
TTFWeight: 700
TTFWidth: 3
LineGap: 0
VLineGap: 0
Panose: 2 0 8 3 0 0 0 0 0 0
OS2TypoAscent: 2048
OS2TypoAOffset: 0
OS2TypoDescent: -160
OS2TypoDOffset: 0
OS2TypoLinegap: 0
OS2WinAscent: 2048
OS2WinAOffset: 0
OS2WinDescent: 160
OS2WinDOffset: 0
HheadAscent: 2048
HheadAOffset: 0
HheadDescent: -160
HheadDOffset: 0
OS2SubXSize: 1331
OS2SubYSize: 1229
OS2SubXOff: 0
OS2SubYOff: 154
OS2SupXSize: 1331
OS2SupYSize: 1229
OS2SupXOff: 0
OS2SupYOff: 717
OS2StrikeYSize: 102
OS2StrikeYPos: 614
OS2Vendor: 'newt'
OS2CodePages: 00000093.00000000
OS2UnicodeRanges: a000006f.0000004b.00000000.00000000
Lookup: 258 0 0 "'kern' Horizontal Kerning in Latin lookup 0"  {"'kern' Horizontal Kerning in Latin lookup 0 per glyph data 0"  "'kern' Horizontal Kerning in Latin lookup 0 kerning class 1"  } ['kern' ('DFLT' <'dflt' > 'latn' <'dflt' > ) ]
MarkAttachClasses: 1
DEI: 91125
KernClass2: 32 23 "'kern' Horizontal Kerning in Latin lookup 0 kerning class 1" 
 73 A Agrave Aacute Acircumflex Atilde Adieresis Aring Abreve Amacron Aogonek
 1 B
 8 D Dcaron
 1 F
 13 J Jcircumflex
 14 K Kcommaaccent
 28 L Lacute Lcaron Lcommaaccent
 35 N Ntilde Nacute Ncaron Ncommaaccent
 73 O Ograve Oacute Ocircumflex Otilde Odieresis Obreve Ohungarumlaut Omacron
 1 P
 28 R Racute Rcaron Rcommaaccent
 29 T Tcaron Tcommaaccent uni021A
 80 U Ugrave Uacute Ucircumflex Udieresis Ubreve Uhungarumlaut Umacron Uogonek Uring
 1 V
 1 W
 18 Y Ydieresis Yacute

StartChar: exclam
Encoding: 33 33 4
Width: 286
GlyphClass: 2
Flags: W
LayerCount: 2
UndoRedoHistory
Layer: 1
Undoes
EndUndoes
Redoes
EndRedoes
EndUndoRedoHistory
Fore
SplineSet
210 26 m 0,0,1
 210 -46 210 -46 109 -46 c 0,2,3
 86 -46 86 -46 63.5 -24.5 c 128,-1,4
 41 -3 41 -3 41 33 c 0,5,6
 41 68 41 68 66 96.5 c 128,-1,7
 91 125 91 125 126 125 c 0,8,9
 165 125 165 125 187.5 96 c 128,-1,10
 210 67 210 67 210 26 c 0,0,1
184 446 m 0,11,12
 184 399 184 399 178.5 366.5 c 128,-1,13
 173 334 173 334 164.5 320 c 128,-1,14
 156 306 156 306 146 306 c 0,15,16
 125 306 125 306 107.5 356 c 128,-1,17
 90 406 90 406 90 482 c 0,18,19
 90 540 90 540 94 654 c 128,-1,20
 98 768 98 768 98 821 c 0,21,22
 98 933 98 933 93 1157 c 128,-1,23
 88 1381 88 1381 88 1493 c 0,24,25
 88 1525 88 1525 115 1548.5 c 128,-1,26
 142 1572 142 1572 175 1572 c 0,27,28
 196 1572 196 1572 210.5 1557.5 c 128,-1,29
 225 1543 225 1543 225 1522 c 0,30,31
 225 1358 225 1358 203.5 1032 c 128,-1,32
 182 706 182 706 182 543 c 0,33,34
 182 527 182 527 183 494.5 c 128,-1,35
 184 462 184 462 184 446 c 0,11,12
EndSplineSet
EndChar

StartChar: quotedbl
Encoding: 34 34 5
Width: 359
GlyphClass: 2
Flags: W
LayerCount: 2
UndoRedoHistory
Layer: 1
Undoes
EndUndoes
Redoes
EndRedoes
EndUndoRedoHistory
Fore
SplineSet
175 1193 m 2,0,1
 166 1193 166 1193 156 1321.5 c 128,-1,2
 146 1450 146 1450 146 1531 c 0,3,4
 146 1551 146 1551 165.5 1564.5 c 128,-1,5
 185 1578 185 1578 207 1578 c 0,6,7
 232 1578 232 1578 241 1531 c 1,8,9
 238 1433 238 1433 221 1313 c 128,-1,10
 204 1193 204 1193 182 1193 c 2,11,-1
 175 1193 l 2,0,1
-31 1193 m 2,12,13
 -34 1193 -34 1193 -37 1321.5 c 128,-1,14
 -40 1450 -40 1450 -40 1531 c 0,15,16
 -40 1551 -40 1551 -27 1564.5 c 128,-1,17
 -14 1578 -14 1578 1 1578 c 0,18,19
 43 1578 43 1578 50 1525 c 0,20,21
 50 1523 50 1523 50.5 1517.5 c 128,-1,22
 51 1512 51 1512 51 1511 c 0,23,24
 51 1422 51 1422 27.5 1307.5 c 128,-1,25
 4 1193 4 1193 -24 1193 c 2,26,-1
 -31 1193 l 2,12,13
EndSplineSet
EndChar

StartChar: numbersign
Encoding: 35 35 6
Width: 748
GlyphClass: 2
Flags: W
LayerCount: 2
UndoRedoHistory
Layer: 1
Undoes
EndUndoes
Redoes
EndRedoes
EndUndoRedoHistory
Fore
SplineSet
676 637 m 1,0,-1
 677 637 l 1,1,2
 676 584 676 584 593 586 c 2,3,-1
 563 587 l 1,4,5
 557 515 557 515 541.5 389.5 c 128,-1,6
 526 264 526 264 516.5 159 c 128,-1,7
 507 54 507 54 507 -39 c 1,8,-1
 472 -81 l 1,9,10
 401 -81 401 -81 401 -37 c 0,11,12
 401 73 401 73 432 279 c 128,-1,13
 463 485 463 485 466 581 c 1,14,15
 419 585 419 585 324 585 c 1,16,-1
 274 582 l 1,17,18
 271 562 271 562 266 478.5 c 128,-1,19
 261 395 261 395 254 307 c 128,-1,20
 247 219 247 219 236 127.5 c 128,-1,21
 225 36 225 36 206 -22 c 128,-1,22
 187 -80 187 -80 163 -80 c 0,23,24
 142 -80 142 -80 123.5 -68 c 128,-1,25
 105 -56 105 -56 105 -36 c 0,26,27
 105 210 105 210 176 576 c 1,28,29
 131 571 131 571 116 571 c 0,30,31
 31 571 31 571 31 637 c 0,32,33
 31 683 31 683 127 683 c 0,34,35
 141 683 141 683 162.5 682 c 128,-1,36
 184 681 184 681 189 681 c 1,37,38
 208 790 208 790 220 948 c 1,39,40
 181 945 181 945 169 945 c 0,41,42
 72 945 72 945 72 1004 c 2,43,-1
 72 1014 l 1,44,-1
 102 1047 l 1,45,46
 112 1047 112 1047 133 1046.5 c 128,-1,47
 154 1046 154 1046 165 1046 c 0,48,49
 196 1046 196 1046 228 1049 c 1,50,51
 232 1084 232 1084 246 1174.5 c 128,-1,52
 260 1265 260 1265 266.5 1330 c 128,-1,53
 273 1395 273 1395 273 1457 c 0,54,55
 273 1462 273 1462 272.5 1474.5 c 128,-1,56
 272 1487 272 1487 272 1494 c 0,57,58
 272 1527 272 1527 282.5 1547 c 128,-1,59
 293 1567 293 1567 325 1567 c 2,60,-1
 340 1567 l 1,61,-1
 363 1520 l 1,62,63
 363 1440 363 1440 345 1286.5 c 128,-1,64
 327 1133 327 1133 326 1058 c 1,65,66
 344 1054 344 1054 381 1054 c 0,67,68
 473 1054 473 1054 505 1062 c 1,69,70
 519 1132 519 1132 531.5 1211 c 128,-1,71
 544 1290 544 1290 557 1385.5 c 128,-1,72
 570 1481 570 1481 579 1535 c 1,73,74
 603 1566 603 1566 632 1566 c 0,75,76
 648 1566 648 1566 664 1553 c 128,-1,77
 680 1540 680 1540 680 1525 c 0,78,79
 680 1445 680 1445 644.5 1294 c 128,-1,80
 609 1143 609 1143 607 1067 c 1,81,-1
 673 1067 l 1,82,-1
 716 1020 l 1,83,84
 712 1002 712 1002 707 990.5 c 128,-1,85
 702 979 702 979 690.5 969 c 128,-1,86
 679 959 679 959 662 959 c 2,87,-1
 595 962 l 1,88,89
 572 856 572 856 570 698 c 1,90,91
 574 698 574 698 581 698.5 c 128,-1,92
 588 699 588 699 591 699 c 0,93,94
 676 699 676 699 676 637 c 1,0,-1
282 686 m 1,95,96
 290 685 290 685 307 685 c 0,97,98
 412 685 412 685 463 691 c 1,99,100
 495 875 495 875 496 952 c 1,101,102
 461 960 461 960 400 960 c 0,103,104
 348 960 348 960 314 954 c 1,105,106
 288 859 288 859 282 686 c 1,95,96
EndSplineSet
EndChar

StartChar: dollar
Encoding: 36 36 7
Width: 519
GlyphClass: 2
Flags: W
LayerCount: 2
UndoRedoHistory
Layer: 1
Undoes
EndUndoes
Redoes
EndRedoes
EndUndoRedoHistory
Fore
SplineSet
276 1464 m 1,0,-1
 305 822 l 1,1,2
 354 758 354 758 383 714.5 c 128,-1,3
 412 671 412 671 446.5 607.5 c 128,-1,4
 481 544 481 544 497 478.5 c 128,-1,5
 513 413 513 413 513 342 c 0,6,7
 513 238 513 238 471.5 138 c 128,-1,8
 430 38 430 38 349 -10 c 1,9,-1
 349 -155 l 1,10,11
 351 -200 351 -200 337 -229 c 128,-1,12
 323 -258 323 -258 290 -258 c 0,13,14
 254 -258 254 -258 254 -195 c 2,15,-1
 254 -179 l 1,16,17
 253 -128 253 -128 250 -43 c 1,18,19
 238 -45 238 -45 213 -45 c 0,20,21
 186 -45 186 -45 153 -40 c 128,-1,22
 120 -35 120 -35 87 -18 c 128,-1,23
 54 -1 54 -1 54 24 c 0,24,25
 54 47 54 47 65.5 63 c 128,-1,26
 77 79 77 79 100 79 c 0,27,28
 124 79 124 79 161 63.5 c 128,-1,29
 198 48 198 48 213 48 c 0,30,31
 232 48 232 48 247 52 c 1,32,33
 242 214 242 214 225 774 c 1,34,35
 112 928 112 928 75 993 c 0,36,37
 -1 1128 -1 1128 -1 1245 c 0,38,39
 -1 1329 -1 1329 52 1410 c 128,-1,40
 105 1491 105 1491 202 1535 c 1,41,42
 202 1545 202 1545 201.5 1565.5 c 128,-1,43
 201 1586 201 1586 200 1595 c 0,44,45
 196 1657 196 1657 224 1662 c 0,46,47
 246 1666 246 1666 261 1634 c 1,48,49
 272 1613 272 1613 272 1586 c 2,50,-1
 272 1559 l 1,51,52
 335 1574 335 1574 397 1574 c 0,53,54
 434 1574 434 1574 469 1553.5 c 128,-1,55
 504 1533 504 1533 518 1500 c 1,56,-1
 483 1456 l 1,57,58
 462 1456 462 1456 418 1462.5 c 128,-1,59
 374 1469 374 1469 347 1471 c 128,-1,60
 320 1473 320 1473 276 1464 c 1,0,-1
220 937 m 1,61,62
 216 1045 216 1045 205 1433 c 1,63,64
 152 1400 152 1400 125 1350.5 c 128,-1,65
 98 1301 98 1301 98 1258 c 0,66,67
 98 1174 98 1174 130 1097.5 c 128,-1,68
 162 1021 162 1021 220 937 c 1,61,62
337 113 m 1,69,70
 376 161 376 161 397.5 229 c 128,-1,71
 419 297 419 297 419 345 c 0,72,73
 419 480 419 480 313 647 c 1,74,-1
 337 113 l 1,69,70
EndSplineSet
EndChar

StartChar: percent
Encoding: 37 37 8
Width: 1077
GlyphClass: 2
Flags: W
LayerCount: 2
UndoRedoHistory
Layer: 1
Undoes
EndUndoes
Redoes
EndRedoes
EndUndoRedoHistory
Fore
SplineSet
940 467 m 2,0,1
 940 501 940 501 936 538.5 c 128,-1,2
 932 576 932 576 922 624 c 128,-1,3
 912 672 912 672 889 702.5 c 128,-1,4
 866 733 866 733 832 733 c 0,5,6
 803 733 803 733 783 687 c 128,-1,7
 763 641 763 641 755 570.5 c 128,-1,8
 747 500 747 500 744 452 c 128,-1,9
 741 404 741 404 741 366 c 0,10,11
 741 322 741 322 765.5 219 c 128,-1,12
 790 116 790 116 816 116 c 0,13,14
 940 116 940 116 940 386 c 2,15,-1
 940 467 l 2,0,1
222 1449 m 0,16,17
 197 1449 197 1449 171 1332 c 128,-1,18
 145 1215 145 1215 145 1165 c 0,19,20
 145 1143 145 1143 146 1115.5 c 128,-1,21
 147 1088 147 1088 150 1043 c 128,-1,22
 153 998 153 998 159.5 958 c 128,-1,23
 166 918 166 918 175.5 881 c 128,-1,24
 185 844 185 844 201.5 822 c 128,-1,25
 218 800 218 800 238 800 c 0,26,27
 350 800 350 800 350 1092 c 0,28,29
 350 1449 350 1449 222 1449 c 0,16,17
657 1438 m 1,30,-1
 658 1437 l 1,31,32
 659 1469 659 1469 673.5 1502.5 c 128,-1,33
 688 1536 688 1536 715 1536 c 0,34,35
 737 1536 737 1536 753 1522.5 c 128,-1,36
 769 1509 769 1509 769 1487 c 0,37,38
 769 1402 769 1402 715 1170.5 c 128,-1,39
 661 939 661 939 587.5 662.5 c 128,-1,40
 514 386 514 386 497 308 c 0,41,42
 495 299 495 299 486.5 251 c 128,-1,43
 478 203 478 203 469.5 167 c 128,-1,44
 461 131 461 131 446.5 87 c 128,-1,45
 432 43 432 43 412 18 c 128,-1,46
 392 -7 392 -7 367 -8 c 1,47,48
 328 14 328 14 328 52 c 0,49,50
 328 114 328 114 353 245.5 c 128,-1,51
 378 377 378 377 425.5 566 c 128,-1,52
 473 755 473 755 507.5 887 c 128,-1,53
 542 1019 542 1019 597 1220 c 128,-1,54
 652 1421 652 1421 657 1438 c 1,30,-1
811 2 m 0,55,56
 772 2 772 2 741.5 31 c 128,-1,57
 711 60 711 60 693 102.5 c 128,-1,58
 675 145 675 145 663 197.5 c 128,-1,59
 651 250 651 250 647 293 c 128,-1,60
 643 336 643 336 643 370 c 0,61,62
 643 406 643 406 643.5 429.5 c 128,-1,63
 644 453 644 453 646 499 c 128,-1,64
 648 545 648 545 653.5 578 c 128,-1,65
 659 611 659 611 667.5 653.5 c 128,-1,66
 676 696 676 696 691 726 c 128,-1,67
 706 756 706 756 725.5 783 c 128,-1,68
 745 810 745 810 774 824 c 128,-1,69
 803 838 803 838 838 838 c 0,70,71
 881 838 881 838 915 821 c 128,-1,72
 949 804 949 804 970 774 c 128,-1,73
 991 744 991 744 1006 709 c 128,-1,74
 1021 674 1021 674 1028 630.5 c 128,-1,75
 1035 587 1035 587 1037.5 551.5 c 128,-1,76
 1040 516 1040 516 1040 478 c 2,77,-1
 1040 378 l 2,78,79
 1040 314 1040 314 1030.5 255 c 128,-1,80
 1021 196 1021 196 998 135.5 c 128,-1,81
 975 75 975 75 927 38.5 c 128,-1,82
 879 2 879 2 811 2 c 0,55,56
444 1140 m 1,83,-1
 443 1141 l 1,84,85
 430 1105 430 1105 428 1041.5 c 128,-1,86
 426 978 426 978 425 923.5 c 128,-1,87
 424 869 424 869 412 815.5 c 128,-1,88
 400 762 400 762 358 731 c 128,-1,89
 316 700 316 700 241 700 c 0,90,91
 206 700 206 700 177 713.5 c 128,-1,92
 148 727 148 727 128.5 753.5 c 128,-1,93
 109 780 109 780 94 809 c 128,-1,94
 79 838 79 838 70.5 880.5 c 128,-1,95
 62 923 62 923 56.5 955 c 128,-1,96
 51 987 51 987 49 1033 c 128,-1,97
 47 1079 47 1079 46.5 1102.5 c 128,-1,98
 46 1126 46 1126 46 1163 c 0,99,100
 46 1206 46 1206 54 1264.5 c 128,-1,101
 62 1323 62 1323 79 1391.5 c 128,-1,102
 96 1460 96 1460 132 1506.5 c 128,-1,103
 168 1553 168 1553 215 1553 c 0,104,105
 444 1553 444 1553 444 1147 c 2,106,-1
 444 1140 l 1,83,-1
EndSplineSet
EndChar

StartChar: ampersand
Encoding: 38 38 9
Width: 903
GlyphClass: 2
Flags: W
LayerCount: 2
UndoRedoHistory
Layer: 1
Undoes
EndUndoes
Redoes
EndRedoes
EndUndoRedoHistory
Fore
SplineSet
309 1291 m 2,0,1
 309 1245 309 1245 310.5 1153.5 c 128,-1,2
 312 1062 312 1062 312 1016 c 2,3,-1
 312 993 l 1,4,5
 364 1058 364 1058 413 1148 c 128,-1,6
 462 1238 462 1238 462 1291 c 0,7,8
 462 1329 462 1329 429 1389.5 c 128,-1,9
 396 1450 396 1450 361 1450 c 0,10,11
 331 1450 331 1450 309 1400 c 1,12,-1
 309 1291 l 2,0,1
803 722 m 1,13,14
 861 710 861 710 861 668 c 0,15,16
 861 637 861 637 827.5 624.5 c 128,-1,17
 794 612 794 612 754 612 c 0,18,19
 753 612 753 612 751 612.5 c 128,-1,20
 749 613 749 613 748 613 c 2,21,-1
 697 613 l 1,22,23
 697 286 697 286 613 175 c 1,24,25
 674 112 674 112 743 112 c 0,26,27
 757 112 757 112 784.5 115 c 128,-1,28
 812 118 812 118 826 118 c 1,29,-1
 864 87 l 1,30,31
 864 46 864 46 835.5 32.5 c 128,-1,32
 807 19 807 19 760 19 c 0,33,34
 668 19 668 19 562 96 c 1,35,36
 447 18 447 18 331 18 c 0,37,38
 252 18 252 18 185 70.5 c 128,-1,39
 118 123 118 123 83 200 c 128,-1,40
 48 277 48 277 48 354 c 0,41,42
 48 406 48 406 53.5 455.5 c 128,-1,43
 59 505 59 505 64 540 c 128,-1,44
 69 575 69 575 86.5 625.5 c 128,-1,45
 104 676 104 676 111.5 698.5 c 128,-1,46
 119 721 119 721 147.5 780 c 128,-1,47
 176 839 176 839 184.5 856 c 128,-1,48
 193 873 193 873 230 945 c 1,49,50
 230 990 230 990 223 1083.5 c 128,-1,51
 216 1177 216 1177 216 1226 c 2,52,-1
 216 1396 l 2,53,54
 216 1471 216 1471 252 1507.5 c 128,-1,55
 288 1544 288 1544 344 1544 c 0,56,57
 420 1544 420 1544 487 1489 c 128,-1,58
 554 1434 554 1434 554 1360 c 0,59,60
 554 1237 554 1237 512.5 1138.5 c 128,-1,61
 471 1040 471 1040 388 944 c 1,62,63
 384 936 384 936 369 915 c 128,-1,64
 354 894 354 894 345 876.5 c 128,-1,65
 336 859 336 859 336 846 c 0,66,67
 336 757 336 757 411.5 526 c 128,-1,68
 487 295 487 295 541 238 c 1,69,70
 605 384 605 384 605 600 c 2,71,-1
 605 609 l 1,72,73
 598 609 598 609 593.5 610 c 128,-1,74
 589 611 589 611 585.5 616 c 128,-1,75
 582 621 582 621 580.5 623 c 128,-1,76
 579 625 579 625 575.5 633.5 c 128,-1,77
 572 642 572 642 571 644 c 1,78,-1
 571 696 l 1,79,80
 621 696 621 696 694.5 703 c 128,-1,81
 768 710 768 710 803 722 c 1,13,14
251 789 m 1,82,83
 143 619 143 619 143 389 c 0,84,85
 143 338 143 338 154.5 290 c 128,-1,86
 166 242 166 242 189 199 c 128,-1,87
 212 156 212 156 253.5 129.5 c 128,-1,88
 295 103 295 103 349 103 c 0,89,90
 382 103 382 103 430 120 c 128,-1,91
 478 137 478 137 499 158 c 1,92,93
 310 431 310 431 251 789 c 1,82,83
EndSplineSet
EndChar

StartChar: quotesingle
Encoding: 39 39 10
Width: 359
GlyphClass: 2
Flags: W
LayerCount: 2
UndoRedoHistory
Layer: 1
Undoes
EndUndoes
Redoes
EndRedoes
EndUndoRedoHistory
Fore
SplineSet
175 1193 m 2,0,1
 166 1193 166 1193 156 1321.5 c 128,-1,2
 146 1450 146 1450 146 1531 c 0,3,4
 146 1551 146 1551 165.5 1564.5 c 128,-1,5
 185 1578 185 1578 207 1578 c 0,6,7
 244 1578 244 1578 261 1531 c 1,8,-1
 256 1525 l 1,9,10
 256 1523 256 1523 256.5 1517.5 c 128,-1,11
 257 1512 257 1512 257 1511 c 0,12,13
 257 1422 257 1422 233.5 1307.5 c 128,-1,14
 210 1193 210 1193 182 1193 c 2,15,-1
 175 1193 l 2,0,1
EndSplineSet
EndChar

StartChar: parenleft
Encoding: 40 40 11
Width: 418
GlyphClass: 2
Flags: W
LayerCount: 2
UndoRedoHistory
Layer: 1
Undoes
EndUndoes
Redoes
EndRedoes
EndUndoRedoHistory
Fore
SplineSet
396 -319 m 1,0,-1
 394 -318 l 1,1,2
 376 -361 376 -361 338 -361 c 0,3,4
 284 -361 284 -361 235 -249 c 128,-1,5
 186 -137 186 -137 154 24.5 c 128,-1,6
 122 186 122 186 98 366 c 128,-1,7
 74 546 74 546 63 682.5 c 128,-1,8
 52 819 52 819 52 881 c 0,9,10
 52 934 52 934 67 1053 c 128,-1,11
 82 1172 82 1172 108.5 1309.5 c 128,-1,12
 135 1447 135 1447 179.5 1549 c 128,-1,13
 224 1651 224 1651 273 1651 c 2,14,-1
 282 1651 l 1,15,-1
 318 1621 l 1,16,17
 318 1587 318 1587 307 1554.5 c 128,-1,18
 296 1522 296 1522 274 1477.5 c 128,-1,19
 252 1433 252 1433 245 1416 c 0,20,21
 200 1305 200 1305 177 1160.5 c 128,-1,22
 154 1016 154 1016 154 879 c 0,23,24
 154 607 154 607 189.5 329.5 c 128,-1,25
 225 52 225 52 308 -130 c 0,26,27
 318 -151 318 -151 338.5 -188.5 c 128,-1,28
 359 -226 359 -226 373.5 -257.5 c 128,-1,29
 388 -289 388 -289 396 -319 c 1,0,-1
EndSplineSet
EndChar

StartChar: parenright
Encoding: 41 41 12
Width: 434
GlyphClass: 2
Flags: W
LayerCount: 2
UndoRedoHistory
Layer: 1
Undoes
EndUndoes
Redoes
EndRedoes
EndUndoRedoHistory
Fore
SplineSet
388 817 m 1,0,-1
 388 815 l 2,1,2
 388 745 388 745 362.5 569.5 c 128,-1,3
 337 394 337 394 297.5 196 c 128,-1,4
 258 -2 258 -2 198 -152.5 c 128,-1,5
 138 -303 138 -303 79 -303 c 0,6,7
 58 -303 58 -303 41.5 -289.5 c 128,-1,8
 25 -276 25 -276 25 -255 c 0,9,10
 25 -238 25 -238 41.5 -203 c 128,-1,11
 58 -168 58 -168 82 -125.5 c 128,-1,12
 106 -83 106 -83 111 -71 c 0,13,14
 186 95 186 95 235.5 357 c 128,-1,15
 285 619 285 619 285 816 c 0,16,17
 285 969 285 969 262.5 1136 c 128,-1,18
 240 1303 240 1303 194 1416 c 0,19,20
 186 1436 186 1436 165 1475 c 128,-1,21
 144 1514 144 1514 132 1546 c 128,-1,22
 120 1578 120 1578 120 1610 c 2,23,-1
 120 1621 l 1,24,-1
 157 1650 l 1,25,26
 215 1650 215 1650 262 1541.5 c 128,-1,27
 309 1433 309 1433 334.5 1282 c 128,-1,28
 360 1131 360 1131 373.5 1007 c 128,-1,29
 387 883 387 883 388 817 c 1,0,-1
EndSplineSet
EndChar

StartChar: asterisk
Encoding: 42 42 13
Width: 1051
GlyphClass: 2
Flags: W
LayerCount: 2
UndoRedoHistory
Layer: 1
Undoes
EndUndoes
Redoes
EndRedoes
EndUndoRedoHistory
Fore
SplineSet
583 1194 m 1,0,1
 622 1189 622 1189 675 1189 c 0,2,3
 686 1189 686 1189 734 1194 c 128,-1,4
 782 1199 782 1199 810 1199 c 0,5,6
 914 1199 914 1199 914 1137 c 0,7,8
 914 1085 914 1085 843 1085 c 0,9,10
 798 1085 798 1085 709 1089.5 c 128,-1,11
 620 1094 620 1094 576 1094 c 1,12,13
 582 1078 582 1078 655 934.5 c 128,-1,14
 728 791 728 791 728 752 c 0,15,16
 728 730 728 730 713 715 c 128,-1,17
 698 700 698 700 676 700 c 0,18,19
 638 700 638 700 619 738.5 c 128,-1,20
 600 777 600 777 598 821 c 1,21,-1
 511 1011 l 1,22,23
 501 985 501 985 474.5 911 c 128,-1,24
 448 837 448 837 425.5 784 c 128,-1,25
 403 731 403 731 377 690 c 1,26,-1
 328 690 l 1,27,-1
 284 736 l 1,28,-1
 283 745 l 1,29,30
 286 786 286 786 357.5 927 c 128,-1,31
 429 1068 429 1068 439 1096 c 1,32,-1
 214 1096 l 2,33,34
 211 1096 211 1096 206 1096 c 0,35,36
 186 1096 186 1096 177 1097 c 128,-1,37
 168 1098 168 1098 156.5 1102.5 c 128,-1,38
 145 1107 145 1107 140.5 1118.5 c 128,-1,39
 136 1130 136 1130 136 1150 c 0,40,41
 136 1169 136 1169 149.5 1182.5 c 128,-1,42
 163 1196 163 1196 182 1196 c 2,43,-1
 425 1196 l 1,44,45
 423 1201 423 1201 401.5 1242.5 c 128,-1,46
 380 1284 380 1284 364.5 1315 c 128,-1,47
 349 1346 349 1346 329.5 1387.5 c 128,-1,48
 310 1429 310 1429 299.5 1458.5 c 128,-1,49
 289 1488 289 1488 289 1501 c 0,50,51
 289 1522 289 1522 306 1534.5 c 128,-1,52
 323 1547 323 1547 345 1547 c 0,53,54
 370 1547 370 1547 400.5 1488.5 c 128,-1,55
 431 1430 431 1430 461 1349 c 128,-1,56
 491 1268 491 1268 496 1258 c 1,57,58
 499 1266 499 1266 512.5 1311.5 c 128,-1,59
 526 1357 526 1357 538.5 1393.5 c 128,-1,60
 551 1430 551 1430 569 1473.5 c 128,-1,61
 587 1517 587 1517 608 1542 c 128,-1,62
 629 1567 629 1567 649 1567 c 0,63,64
 671 1567 671 1567 688.5 1550.5 c 128,-1,65
 706 1534 706 1534 706 1512 c 0,66,67
 706 1482 706 1482 683.5 1423 c 128,-1,68
 661 1364 661 1364 625.5 1287.5 c 128,-1,69
 590 1211 590 1211 583 1194 c 1,0,1
EndSplineSet
EndChar

StartChar: plus
Encoding: 43 43 14
Width: 853
GlyphClass: 2
Flags: W
LayerCount: 2
UndoRedoHistory
Layer: 1
Undoes
EndUndoes
Redoes
EndRedoes
EndUndoRedoHistory
Fore
SplineSet
354 385 m 0,0,1
 354 418 354 418 347.5 484.5 c 128,-1,2
 341 551 341 551 341 584 c 2,3,-1
 341 599 l 1,4,5
 329 599 329 599 289 594.5 c 128,-1,6
 249 590 249 590 227 590 c 0,7,8
 140 590 140 590 140 655 c 0,9,10
 140 676 140 676 152.5 692 c 128,-1,11
 165 708 165 708 186 708 c 0,12,13
 206 708 206 708 246.5 704.5 c 128,-1,14
 287 701 287 701 307 701 c 0,15,16
 333 701 333 701 354 705 c 1,17,18
 353 726 353 726 347.5 777 c 128,-1,19
 342 828 342 828 342 855 c 0,20,21
 342 968 342 968 408 968 c 0,22,23
 431 968 431 968 445.5 951 c 128,-1,24
 460 934 460 934 460 909 c 2,25,-1
 460 884 l 2,26,27
 460 881 460 881 460.5 864.5 c 128,-1,28
 461 848 461 848 461.5 834 c 128,-1,29
 462 820 462 820 462.5 799.5 c 128,-1,30
 463 779 463 779 465 763 c 128,-1,31
 467 747 467 747 470 732 c 128,-1,32
 473 717 473 717 477 709 c 128,-1,33
 481 701 481 701 487 701 c 0,34,35
 497 701 497 701 538.5 705 c 128,-1,36
 580 709 580 709 606 709 c 0,37,38
 712 709 712 709 712 647 c 0,39,40
 712 623 712 623 695 607 c 128,-1,41
 678 591 678 591 654 591 c 0,42,43
 634 591 634 591 594 596.5 c 128,-1,44
 554 602 554 602 533 602 c 0,45,46
 468 602 468 602 468 553 c 0,47,48
 468 526 468 526 477.5 471.5 c 128,-1,49
 487 417 487 417 487 389 c 0,50,51
 487 364 487 364 466.5 348.5 c 128,-1,52
 446 333 446 333 420 333 c 0,53,54
 396 333 396 333 375 347.5 c 128,-1,55
 354 362 354 362 354 385 c 0,0,1
EndSplineSet
EndChar

StartChar: comma
Encoding: 44 44 15
Width: 451
GlyphClass: 2
Flags: W
LayerCount: 2
UndoRedoHistory
Layer: 1
Undoes
EndUndoes
Redoes
EndRedoes
EndUndoRedoHistory
Fore
SplineSet
273 185 m 0,0,1
 344 185 344 185 344 77 c 0,2,3
 344 30 344 30 313.5 -35 c 128,-1,4
 283 -100 283 -100 232 -151 c 128,-1,5
 181 -202 181 -202 132 -202 c 0,6,7
 119 -202 119 -202 110.5 -194.5 c 128,-1,8
 102 -187 102 -187 102 -175 c 0,9,10
 102 -151 102 -151 127 -130 c 1,11,12
 153 -100 153 -100 169.5 -42 c 128,-1,13
 186 16 186 16 193 63.5 c 128,-1,14
 200 111 200 111 219.5 148 c 128,-1,15
 239 185 239 185 273 185 c 0,0,1
EndSplineSet
EndChar

StartChar: hyphen
Encoding: 45 45 16
Width: 731
GlyphClass: 2
Flags: W
LayerCount: 2
UndoRedoHistory
Layer: 1
Undoes
EndUndoes
Redoes
EndRedoes
EndUndoRedoHistory
Fore
SplineSet
587 739 m 0,0,1
 587 714 587 714 538.5 695.5 c 128,-1,2
 490 677 490 677 419 669.5 c 128,-1,3
 348 662 348 662 297 659 c 128,-1,4
 246 656 246 656 212 656 c 0,5,6
 186 656 186 656 165.5 673 c 128,-1,7
 145 690 145 690 145 715 c 128,-1,8
 145 740 145 740 193.5 758 c 128,-1,9
 242 776 242 776 312.5 784 c 128,-1,10
 383 792 383 792 434.5 795 c 128,-1,11
 486 798 486 798 519 798 c 0,12,13
 545 798 545 798 566 781.5 c 128,-1,14
 587 765 587 765 587 739 c 0,0,1
EndSplineSet
EndChar

StartChar: period
Encoding: 46 46 17
Width: 445
GlyphClass: 2
Flags: W
LayerCount: 2
UndoRedoHistory
Layer: 1
Undoes
EndUndoes
Redoes
EndRedoes
EndUndoRedoHistory
Fore
SplineSet
148 41 m 0,0,1
 148 72 148 72 171 96 c 128,-1,2
 194 120 194 120 225 120 c 0,3,4
 254 120 254 120 276 96 c 128,-1,5
 298 72 298 72 298 43 c 0,6,7
 298 9 298 9 275 -11.5 c 128,-1,8
 252 -32 252 -32 217 -32 c 0,9,10
 189 -32 189 -32 168.5 -9.5 c 128,-1,11
 148 13 148 13 148 41 c 0,0,1
EndSplineSet
EndChar

StartChar: slash
Encoding: 47 47 18
Width: 512
GlyphClass: 2
Flags: W
LayerCount: 2
UndoRedoHistory
Layer: 1
Undoes
EndUndoes
Redoes
EndRedoes
EndUndoRedoHistory
Fore
SplineSet
423 1553 m 0,0,1
 428 1567 428 1567 443 1567 c 0,2,3
 457 1567 457 1567 468.5 1554.5 c 128,-1,4
 480 1542 480 1542 480 1520 c 0,5,6
 480 1515 480 1515 478 1503 c 0,7,8
 437 1291 437 1291 288 699 c 128,-1,9
 139 107 139 107 75 -31 c 1,10,11
 70 -54 70 -54 55 -54 c 0,12,13
 45 -54 45 -54 38 -42 c 128,-1,14
 31 -30 31 -30 31 -9 c 0,15,16
 31 8 31 8 37 30 c 0,17,18
 50 74 50 74 215 742.5 c 128,-1,19
 380 1411 380 1411 423 1553 c 0,0,1
EndSplineSet
EndChar

StartChar: zero
Encoding: 48 48 19
Width: 660
GlyphClass: 2
Flags: W
LayerCount: 2
UndoRedoHistory
Layer: 1
Undoes
EndUndoes
Redoes
EndRedoes
EndUndoRedoHistory
Fore
SplineSet
471 568 m 0,0,1
 471 652 471 652 468 735 c 128,-1,2
 465 818 465 818 458 931 c 128,-1,3
 451 1044 451 1044 435 1139 c 128,-1,4
 419 1234 419 1234 396 1320 c 128,-1,5
 373 1406 373 1406 335 1458.5 c 128,-1,6
 297 1511 297 1511 249 1518 c 1,7,8
 217 1491 217 1491 206.5 1465 c 128,-1,9
 196 1439 196 1439 196 1395 c 0,10,11
 196 1328 196 1328 200 1193 c 128,-1,12
 204 1058 204 1058 204 990 c 0,13,14
 204 956 204 956 214.5 890 c 128,-1,15
 225 824 225 824 225 790 c 0,16,17
 225 751 225 751 226.5 701.5 c 128,-1,18
 228 652 228 652 232 566 c 128,-1,19
 236 480 236 480 245.5 404.5 c 128,-1,20
 255 329 255 329 269.5 257 c 128,-1,21
 284 185 284 185 309 142.5 c 128,-1,22
 334 100 334 100 365 100 c 0,23,24
 395 100 395 100 418 161 c 128,-1,25
 441 222 441 222 451.5 309 c 128,-1,26
 462 396 462 396 466.5 463 c 128,-1,27
 471 530 471 530 471 568 c 0,0,1
98 1222 m 0,28,29
 98 1297 98 1297 105.5 1354.5 c 128,-1,30
 113 1412 113 1412 131.5 1461.5 c 128,-1,31
 150 1511 150 1511 185.5 1537 c 128,-1,32
 221 1563 221 1563 272 1563 c 0,33,34
 566 1563 566 1563 566 521 c 0,35,36
 566 7 566 7 346 7 c 0,37,38
 97 7 97 7 98 1195 c 0,39,40
 98 1214 98 1214 98 1222 c 0,28,29
EndSplineSet
EndChar

StartChar: one
Encoding: 49 49 20
Width: 452
GlyphClass: 2
Flags: W
LayerCount: 2
UndoRedoHistory
Layer: 1
Undoes
EndUndoes
Redoes
EndRedoes
EndUndoRedoHistory
Fore
SplineSet
152 1308 m 0,0,1
 152 1318 152 1318 153.5 1343.5 c 128,-1,2
 155 1369 155 1369 155 1383 c 0,3,4
 155 1479 155 1479 84 1479 c 0,5,6
 78 1479 78 1479 62 1478 c 128,-1,7
 46 1477 46 1477 37 1477 c 0,8,9
 -21 1477 -21 1477 -21 1521 c 0,10,11
 -21 1575 -21 1575 144 1575 c 0,12,13
 230 1575 230 1575 249 1541 c 1,14,15
 237 1485 237 1485 237 1455 c 0,16,17
 237 1392 237 1392 252.5 1267 c 128,-1,18
 268 1142 268 1142 268 1079 c 0,19,20
 268 918 268 918 290 594.5 c 128,-1,21
 312 271 312 271 312 109 c 2,22,-1
 312 96 l 1,23,24
 320 97 320 97 335.5 98.5 c 128,-1,25
 351 100 351 100 363.5 101 c 128,-1,26
 376 102 376 102 387 102 c 1,27,-1
 387 103 l 1,28,29
 474 103 474 103 474 52 c 0,30,31
 474 -8 474 -8 241 -8 c 0,32,33
 225 -8 225 -8 208 -8.5 c 128,-1,34
 191 -9 191 -9 180 -9 c 0,35,36
 146 -9 146 -9 131 1.5 c 128,-1,37
 116 12 116 12 116 47 c 0,38,39
 116 70 116 70 125.5 78 c 128,-1,40
 135 86 135 86 169 86 c 0,41,42
 214 86 214 86 214 120 c 0,43,44
 214 321 214 321 183 719 c 128,-1,45
 152 1117 152 1117 152 1308 c 0,0,1
EndSplineSet
EndChar

StartChar: two
Encoding: 50 50 21
Width: 537
GlyphClass: 2
Flags: W
LayerCount: 2
UndoRedoHistory
Layer: 1
Undoes
EndUndoes
Redoes
EndRedoes
EndUndoRedoHistory
Fore
SplineSet
167 86 m 1,0,1
 291 107 291 107 409 107 c 1,2,3
 452 76 452 76 452 49 c 0,4,5
 452 27 452 27 425 4 c 1,6,7
 373 4 373 4 269 -5.5 c 128,-1,8
 165 -15 165 -15 113 -15 c 0,9,10
 84 -15 84 -15 61 2 c 128,-1,11
 38 19 38 19 38 47 c 2,12,-1
 38 55 l 1,13,14
 64 86 64 86 83 126.5 c 128,-1,15
 102 167 102 167 120.5 220 c 128,-1,16
 139 273 139 273 151 299 c 0,17,18
 268 558 268 558 325 774 c 128,-1,19
 382 990 382 990 382 1236 c 0,20,21
 382 1492 382 1492 284 1500 c 1,22,23
 266 1490 266 1490 254.5 1460.5 c 128,-1,24
 243 1431 243 1431 238.5 1402 c 128,-1,25
 234 1373 234 1373 219 1350 c 128,-1,26
 204 1327 204 1327 178 1327 c 0,27,28
 128 1327 128 1327 128 1390 c 0,29,30
 128 1431 128 1431 141 1474 c 128,-1,31
 154 1517 154 1517 185.5 1551.5 c 128,-1,32
 217 1586 217 1586 260 1586 c 1,33,-1
 260 1587 l 1,34,35
 296 1587 296 1587 325.5 1578.5 c 128,-1,36
 355 1570 355 1570 376.5 1557 c 128,-1,37
 398 1544 398 1544 414.5 1521 c 128,-1,38
 431 1498 431 1498 442 1478 c 128,-1,39
 453 1458 453 1458 460.5 1426 c 128,-1,40
 468 1394 468 1394 471.5 1371 c 128,-1,41
 475 1348 475 1348 477 1312 c 128,-1,42
 479 1276 479 1276 479.5 1256 c 128,-1,43
 480 1236 480 1236 480 1201 c 0,44,45
 480 1052 480 1052 444 887 c 128,-1,46
 408 722 408 722 365.5 607.5 c 128,-1,47
 323 493 323 493 259 332 c 128,-1,48
 195 171 195 171 167 86 c 1,0,1
EndSplineSet
EndChar

StartChar: three
Encoding: 51 51 22
Width: 476
GlyphClass: 2
Flags: W
LayerCount: 2
UndoRedoHistory
Layer: 1
Undoes
EndUndoes
Redoes
EndRedoes
EndUndoRedoHistory
Fore
SplineSet
392 1124 m 0,0,1
 392 1094 392 1094 382.5 1065 c 128,-1,2
 373 1036 373 1036 363.5 1020.5 c 128,-1,3
 354 1005 354 1005 331 972 c 128,-1,4
 308 939 308 939 300 927 c 1,5,6
 349 898 349 898 384.5 826.5 c 128,-1,7
 420 755 420 755 437.5 666.5 c 128,-1,8
 455 578 455 578 463 502 c 128,-1,9
 471 426 471 426 471 361 c 0,10,11
 471 316 471 316 469 280.5 c 128,-1,12
 467 245 467 245 460.5 197 c 128,-1,13
 454 149 454 149 439.5 114 c 128,-1,14
 425 79 425 79 402.5 46.5 c 128,-1,15
 380 14 380 14 343.5 -3 c 128,-1,16
 307 -20 307 -20 259 -20 c 0,17,18
 227 -20 227 -20 194.5 -11.5 c 128,-1,19
 162 -3 162 -3 135 20 c 128,-1,20
 108 43 108 43 108 76 c 0,21,22
 108 96 108 96 113.5 103 c 128,-1,23
 119 110 119 110 142 110 c 0,24,25
 159 110 159 110 170 98.5 c 128,-1,26
 181 87 181 87 197.5 75.5 c 128,-1,27
 214 64 214 64 243 64 c 0,28,29
 368 64 368 64 368 294 c 0,30,31
 368 387 368 387 365.5 442.5 c 128,-1,32
 363 498 363 498 352 579.5 c 128,-1,33
 341 661 341 661 314 727.5 c 128,-1,34
 287 794 287 794 243 849 c 1,35,36
 237 847 237 847 222 847 c 0,37,38
 197 847 197 847 178 857.5 c 128,-1,39
 159 868 159 868 159 889 c 0,40,41
 159 909 159 909 179.5 937 c 128,-1,42
 200 965 200 965 224.5 991.5 c 128,-1,43
 249 1018 249 1018 269.5 1061.5 c 128,-1,44
 290 1105 290 1105 290 1150 c 0,45,46
 290 1185 290 1185 286 1231 c 128,-1,47
 282 1277 282 1277 272 1337 c 128,-1,48
 262 1397 262 1397 238.5 1437 c 128,-1,49
 215 1477 215 1477 183 1477 c 0,50,51
 158 1477 158 1477 141.5 1458.5 c 128,-1,52
 125 1440 125 1440 118 1418.5 c 128,-1,53
 111 1397 111 1397 93.5 1378.5 c 128,-1,54
 76 1360 76 1360 48 1360 c 0,55,56
 25 1360 25 1360 8 1376.5 c 128,-1,57
 -9 1393 -9 1393 -13 1416 c 1,58,59
 15 1485 15 1485 66.5 1529 c 128,-1,60
 118 1573 118 1573 187 1573 c 0,61,62
 236 1573 236 1573 274 1542 c 128,-1,63
 312 1511 312 1511 333.5 1464 c 128,-1,64
 355 1417 355 1417 369 1354 c 128,-1,65
 383 1291 383 1291 387.5 1236 c 128,-1,66
 392 1181 392 1181 392 1124 c 0,0,1
EndSplineSet
EndChar

StartChar: four
Encoding: 52 52 23
Width: 554
GlyphClass: 2
Flags: W
LayerCount: 2
UndoRedoHistory
Layer: 1
Undoes
EndUndoes
Redoes
EndRedoes
EndUndoRedoHistory
Fore
SplineSet
288 1160 m 0,0,1
 288 1181 288 1181 306 1193.5 c 128,-1,2
 324 1206 324 1206 341 1206 c 1,3,-1
 373 1170 l 1,4,-1
 373 1072 l 2,5,6
 373 753 373 753 369 596 c 1,7,8
 371 596 371 596 393 598.5 c 128,-1,9
 415 601 415 601 428 601 c 0,10,11
 489 601 489 601 489 557 c 0,12,13
 489 507 489 507 407 507 c 0,14,15
 374 507 374 507 374 489 c 0,16,17
 374 420 374 420 379.5 299 c 128,-1,18
 385 178 385 178 395 155 c 1,19,20
 391 131 391 131 391 117 c 0,21,22
 391 91 391 91 400 76 c 1,23,-1
 400 39 l 2,24,25
 400 10 400 10 389 -14 c 128,-1,26
 378 -38 378 -38 352 -38 c 0,27,28
 321 -38 321 -38 304 -6 c 128,-1,29
 287 26 287 26 287 59 c 2,30,-1
 287 66 l 1,31,32
 298 104 298 104 298 140 c 0,33,34
 298 174 298 174 290.5 240 c 128,-1,35
 283 306 283 306 283 339 c 0,36,37
 283 354 283 354 284 383.5 c 128,-1,38
 285 413 285 413 285 428 c 0,39,40
 285 463 285 463 281 491 c 1,41,42
 266 490 266 490 227.5 485 c 128,-1,43
 189 480 189 480 169 480 c 1,44,-1
 169 479 l 1,45,46
 131 479 131 479 89 512 c 1,47,48
 89 558 89 558 98 591 c 1,49,50
 89 639 89 639 89 706 c 0,51,52
 89 776 89 776 104.5 917 c 128,-1,53
 120 1058 120 1058 120 1124 c 2,54,-1
 120 1503 l 2,55,56
 120 1516 120 1516 122 1523.5 c 128,-1,57
 124 1531 124 1531 133 1537 c 128,-1,58
 142 1543 142 1543 159 1543 c 0,59,60
 182 1543 182 1543 201 1529 c 128,-1,61
 220 1515 220 1515 220 1492 c 0,62,63
 220 1466 220 1466 215.5 1413 c 128,-1,64
 211 1360 211 1360 211 1333 c 0,65,66
 211 1327 211 1327 210.5 1314.5 c 128,-1,67
 210 1302 210 1302 210 1296 c 0,68,69
 210 1275 210 1275 214 1259 c 1,70,-1
 214 1252 l 1,71,72
 220 1198 220 1198 220 1143 c 0,73,74
 220 1056 220 1056 205.5 882.5 c 128,-1,75
 191 709 191 709 191 622 c 0,76,77
 191 598 191 598 194 576 c 1,78,79
 229 577 229 577 269 587 c 1,80,81
 269 683 269 683 278.5 877 c 128,-1,82
 288 1071 288 1071 288 1160 c 0,0,1
EndSplineSet
EndChar

StartChar: five
Encoding: 53 53 24
Width: 429
GlyphClass: 2
Flags: W
LayerCount: 2
UndoRedoHistory
Layer: 1
Undoes
EndUndoes
Redoes
EndRedoes
EndUndoRedoHistory
Fore
SplineSet
27 1008 m 0,0,1
 27 1026 27 1026 32.5 1060 c 128,-1,2
 38 1094 38 1094 38 1112 c 0,3,4
 38 1153 38 1153 35.5 1195.5 c 128,-1,5
 33 1238 33 1238 26.5 1286.5 c 128,-1,6
 20 1335 20 1335 15.5 1366.5 c 128,-1,7
 11 1398 11 1398 1.5 1457 c 128,-1,8
 -8 1516 -8 1516 -12 1540 c 1,9,-1
 23 1576 l 1,10,-1
 190 1576 l 2,11,12
 275 1576 275 1576 275 1524 c 2,13,-1
 275 1513 l 1,14,-1
 237 1482 l 1,15,-1
 186 1482 l 1,16,-1
 186 1488 l 1,17,-1
 99 1488 l 1,18,19
 104 1359 104 1359 139 1002 c 1,20,21
 144 1001 144 1001 178.5 998 c 128,-1,22
 213 995 213 995 227 992.5 c 128,-1,23
 241 990 241 990 265 983 c 128,-1,24
 289 976 289 976 305 965 c 0,25,26
 352 933 352 933 383 821 c 128,-1,27
 414 709 414 709 423.5 610 c 128,-1,28
 433 511 433 511 433 434 c 0,29,30
 433 378 433 378 432.5 351 c 128,-1,31
 432 324 432 324 429 277.5 c 128,-1,32
 426 231 426 231 419.5 205 c 128,-1,33
 413 179 413 179 400.5 142 c 128,-1,34
 388 105 388 105 370 78.5 c 128,-1,35
 352 52 352 52 324 22 c 128,-1,36
 296 -8 296 -8 260 -36 c 1,37,38
 255 -36 255 -36 243.5 -36.5 c 128,-1,39
 232 -37 232 -37 225 -37 c 0,40,41
 113 -37 113 -37 113 21 c 0,42,43
 113 44 113 44 132.5 55.5 c 128,-1,44
 152 67 152 67 176 67 c 0,45,46
 206 67 206 67 229 50 c 1,47,48
 278 67 278 67 306.5 162 c 128,-1,49
 335 257 335 257 335 328 c 0,50,51
 335 382 335 382 334.5 415.5 c 128,-1,52
 334 449 334 449 332 502 c 128,-1,53
 330 555 330 555 325.5 589 c 128,-1,54
 321 623 321 623 313 668 c 128,-1,55
 305 713 305 713 293.5 741.5 c 128,-1,56
 282 770 282 770 264 801.5 c 128,-1,57
 246 833 246 833 223.5 850.5 c 128,-1,58
 201 868 201 868 170 879.5 c 128,-1,59
 139 891 139 891 102 891 c 0,60,61
 78 891 78 891 62 901 c 128,-1,62
 46 911 46 911 39 930 c 128,-1,63
 32 949 32 949 29.5 966.5 c 128,-1,64
 27 984 27 984 27 1008 c 0,0,1
EndSplineSet
EndChar

StartChar: six
Encoding: 54 54 25
Width: 562
GlyphClass: 2
Flags: W
LayerCount: 2
UndoRedoHistory
Layer: 1
Undoes
EndUndoes
Redoes
EndRedoes
EndUndoRedoHistory
Fore
SplineSet
95 880 m 0,0,1
 95 1586 95 1586 315 1586 c 0,2,3
 331 1586 331 1586 347 1573.5 c 128,-1,4
 363 1561 363 1561 363 1545 c 0,5,6
 363 1518 363 1518 339 1499.5 c 128,-1,7
 315 1481 315 1481 285 1475 c 1,8,9
 259 1450 259 1450 238 1333 c 128,-1,10
 217 1216 217 1216 208 1117 c 128,-1,11
 199 1018 199 1018 196 949 c 1,12,13
 212 952 212 952 228 952 c 0,14,15
 277 952 277 952 316 920 c 128,-1,16
 355 888 355 888 380 839 c 128,-1,17
 405 790 405 790 423.5 719.5 c 128,-1,18
 442 649 442 649 451.5 586 c 128,-1,19
 461 523 461 523 466.5 447 c 128,-1,20
 472 371 472 371 473 327 c 128,-1,21
 474 283 474 283 474 236 c 0,22,23
 474 192 474 192 472 162.5 c 128,-1,24
 470 133 470 133 460.5 96.5 c 128,-1,25
 451 60 451 60 434 38 c 128,-1,26
 417 16 417 16 385.5 1 c 128,-1,27
 354 -14 354 -14 309 -14 c 0,28,29
 109 -14 109 -14 95 591 c 0,30,31
 95 603 95 603 95 880 c 0,0,1
325 73 m 0,32,33
 378 73 378 73 378 212 c 0,34,35
 378 271 378 271 372.5 362.5 c 128,-1,36
 367 454 367 454 354 576 c 128,-1,37
 341 698 341 698 311 786 c 128,-1,38
 281 874 281 874 240 882 c 1,39,40
 212 862 212 862 203.5 836 c 128,-1,41
 195 810 195 810 195 770 c 0,42,43
 195 735 195 735 195.5 700.5 c 128,-1,44
 196 666 196 666 197.5 605 c 128,-1,45
 199 544 199 544 203 489.5 c 128,-1,46
 207 435 207 435 213 371.5 c 128,-1,47
 219 308 219 308 229 257.5 c 128,-1,48
 239 207 239 207 252 163.5 c 128,-1,49
 265 120 265 120 283.5 96.5 c 128,-1,50
 302 73 302 73 325 73 c 0,32,33
EndSplineSet
EndChar

StartChar: seven
Encoding: 55 55 26
Width: 467
GlyphClass: 2
Flags: W
LayerCount: 2
UndoRedoHistory
Layer: 1
Undoes
EndUndoes
Redoes
EndRedoes
EndUndoRedoHistory
Fore
SplineSet
193 119 m 1,0,1
 194 114 194 114 194 101 c 0,2,3
 194 62 194 62 171.5 25.5 c 128,-1,4
 149 -11 149 -11 114 -11 c 1,5,-1
 75 24 l 1,6,7
 75 49 75 49 80.5 74.5 c 128,-1,8
 86 100 86 100 97 133.5 c 128,-1,9
 108 167 108 167 112 182 c 0,10,11
 192 486 192 486 240.5 831 c 128,-1,12
 289 1176 289 1176 296 1494 c 1,13,14
 264 1498 264 1498 248 1498 c 0,15,16
 215 1498 215 1498 118 1489 c 1,17,18
 99 1498 99 1498 84.5 1514 c 128,-1,19
 70 1530 70 1530 70 1549 c 0,20,21
 70 1582 70 1582 258 1582 c 2,22,-1
 296 1582 l 2,23,24
 324 1582 324 1582 341.5 1579 c 128,-1,25
 359 1576 359 1576 376 1562.5 c 128,-1,26
 393 1549 393 1549 400 1523 c 1,27,28
 377 1410 377 1410 353.5 1202 c 128,-1,29
 330 994 330 994 312.5 810 c 128,-1,30
 295 626 295 626 263.5 428.5 c 128,-1,31
 232 231 232 231 193 119 c 1,0,1
EndSplineSet
EndChar

StartChar: eight
Encoding: 56 56 27
Width: 531
GlyphClass: 2
Flags: W
LayerCount: 2
UndoRedoHistory
Layer: 1
Undoes
EndUndoes
Redoes
EndRedoes
EndUndoRedoHistory
Fore
SplineSet
204 863 m 0,0,1
 204 922 204 922 182 997.5 c 128,-1,2
 160 1073 160 1073 133.5 1135 c 128,-1,3
 107 1197 107 1197 85 1276 c 128,-1,4
 63 1355 63 1355 63 1421 c 0,5,6
 63 1497 63 1497 98.5 1552 c 128,-1,7
 134 1607 134 1607 205 1607 c 2,8,-1
 248 1607 l 1,9,10
 279 1588 279 1588 301 1570 c 128,-1,11
 323 1552 323 1552 337 1530 c 128,-1,12
 351 1508 351 1508 359 1489.5 c 128,-1,13
 367 1471 367 1471 370.5 1439.5 c 128,-1,14
 374 1408 374 1408 375 1383.5 c 128,-1,15
 376 1359 376 1359 376 1313 c 0,16,17
 376 1288 376 1288 375 1263 c 128,-1,18
 374 1238 374 1238 370.5 1210.5 c 128,-1,19
 367 1183 367 1183 365 1162.5 c 128,-1,20
 363 1142 363 1142 357 1110 c 128,-1,21
 351 1078 351 1078 348 1062 c 128,-1,22
 345 1046 345 1046 337.5 1010 c 128,-1,23
 330 974 330 974 327 962 c 128,-1,24
 324 950 324 950 315 910 c 128,-1,25
 306 870 306 870 304 862 c 1,26,27
 374 699 374 699 420 493 c 128,-1,28
 466 287 466 287 466 119 c 0,29,30
 466 76 466 76 465 72 c 2,31,-1
 464 61 l 1,32,-1
 464 60 l 1,33,34
 401 -82 401 -82 270 -82 c 0,35,36
 224 -82 224 -82 190.5 -53 c 128,-1,37
 157 -24 157 -24 140 21.5 c 128,-1,38
 123 67 123 67 115.5 111 c 128,-1,39
 108 155 108 155 108 198 c 0,40,41
 108 313 108 313 156 542 c 128,-1,42
 204 771 204 771 204 863 c 0,0,1
203 190 m 2,43,-1
 203 188 l 2,44,45
 203 136 203 136 229 81 c 1,46,-1
 229 71 l 1,47,48
 231 50 231 50 242.5 28 c 128,-1,49
 254 6 254 6 272 6 c 0,50,51
 326 6 326 6 349 44.5 c 128,-1,52
 372 83 372 83 372 140 c 0,53,54
 372 280 372 280 343 422 c 128,-1,55
 314 564 314 564 261 750 c 1,56,57
 231 651 231 651 217 492.5 c 128,-1,58
 203 334 203 334 203 190 c 2,43,-1
212 1515 m 1,59,-1
 191 1515 l 1,60,-1
 191 1516 l 1,61,62
 163 1485 163 1485 163 1413 c 0,63,64
 163 1345 163 1345 189 1214.5 c 128,-1,65
 215 1084 215 1084 240 1007 c 1,66,67
 285 1166 285 1166 285 1312 c 0,68,69
 285 1355 285 1355 271 1435.5 c 128,-1,70
 257 1516 257 1516 234 1516 c 1,71,-1
 212 1515 l 1,59,-1
EndSplineSet
EndChar

StartChar: nine
Encoding: 57 57 28
Width: 563
GlyphClass: 2
Flags: W
LayerCount: 2
UndoRedoHistory
Layer: 1
Undoes
EndUndoes
Redoes
EndRedoes
EndUndoRedoHistory
Fore
SplineSet
440 237 m 0,0,1
 440 214 440 214 433 164.5 c 128,-1,2
 426 115 426 115 426 90 c 0,3,4
 426 84 426 84 426.5 70.5 c 128,-1,5
 427 57 427 57 427 49 c 0,6,7
 427 15 427 15 410.5 -9.5 c 128,-1,8
 394 -34 394 -34 359 -34 c 1,9,-1
 327 4 l 1,10,11
 359 100 359 100 359 686 c 0,12,13
 359 735 359 735 357 819 c 128,-1,14
 355 903 355 903 355 931 c 1,15,16
 241 957 241 957 167.5 1042.5 c 128,-1,17
 94 1128 94 1128 94 1243 c 0,18,19
 94 1287 94 1287 98 1331 c 128,-1,20
 102 1375 102 1375 115 1428 c 128,-1,21
 128 1481 128 1481 148.5 1520.5 c 128,-1,22
 169 1560 169 1560 206 1587 c 128,-1,23
 243 1614 243 1614 292 1614 c 0,24,25
 392 1614 392 1614 428 1568 c 128,-1,26
 464 1522 464 1522 464 1420 c 0,27,28
 464 1223 464 1223 452 828.5 c 128,-1,29
 440 434 440 434 440 237 c 0,0,1
357 1009 m 1,30,31
 366 1165 366 1165 366 1427 c 0,32,33
 366 1474 366 1474 351.5 1500.5 c 128,-1,34
 337 1527 337 1527 293 1527 c 0,35,36
 265 1527 265 1527 244 1492.5 c 128,-1,37
 223 1458 223 1458 213 1408 c 128,-1,38
 203 1358 203 1358 198.5 1317 c 128,-1,39
 194 1276 194 1276 194 1247 c 0,40,41
 194 1223 194 1223 196 1202.5 c 128,-1,42
 198 1182 198 1182 200.5 1166 c 128,-1,43
 203 1150 203 1150 210 1135 c 128,-1,44
 217 1120 217 1120 221 1110 c 128,-1,45
 225 1100 225 1100 237 1088.5 c 128,-1,46
 249 1077 249 1077 254.5 1071.5 c 128,-1,47
 260 1066 260 1066 277 1055.5 c 128,-1,48
 294 1045 294 1045 300.5 1041 c 128,-1,49
 307 1037 307 1037 328 1025.5 c 128,-1,50
 349 1014 349 1014 357 1009 c 1,30,31
EndSplineSet
EndChar

StartChar: colon
Encoding: 58 58 29
Width: 443
GlyphClass: 2
Flags: W
LayerCount: 2
UndoRedoHistory
Layer: 1
Undoes
EndUndoes
Redoes
EndRedoes
EndUndoRedoHistory
Fore
SplineSet
138 250 m 0,0,1
 138 281 138 281 161 305 c 128,-1,2
 184 329 184 329 215 329 c 0,3,4
 244 329 244 329 265.5 305 c 128,-1,5
 287 281 287 281 287 252 c 0,6,7
 287 218 287 218 264 197.5 c 128,-1,8
 241 177 241 177 207 177 c 0,9,10
 179 177 179 177 158.5 199.5 c 128,-1,11
 138 222 138 222 138 250 c 0,0,1
159 1024 m 0,12,13
 159 1054 159 1054 182 1078.5 c 128,-1,14
 205 1103 205 1103 235 1103 c 0,15,16
 264 1103 264 1103 286 1079 c 128,-1,17
 308 1055 308 1055 308 1026 c 0,18,19
 308 992 308 992 285 971.5 c 128,-1,20
 262 951 262 951 227 951 c 0,21,22
 199 951 199 951 179 973.5 c 128,-1,23
 159 996 159 996 159 1024 c 0,12,13
EndSplineSet
EndChar

StartChar: semicolon
Encoding: 59 59 30
Width: 438
GlyphClass: 2
Flags: W
LayerCount: 2
UndoRedoHistory
Layer: 1
Undoes
EndUndoes
Redoes
EndRedoes
EndUndoRedoHistory
Fore
SplineSet
244 359 m 0,0,1
 315 359 315 359 315 251 c 0,2,3
 315 204 315 204 289 139 c 128,-1,4
 263 74 263 74 219 23 c 128,-1,5
 175 -28 175 -28 133 -28 c 0,6,7
 120 -28 120 -28 111.5 -20.5 c 128,-1,8
 103 -13 103 -13 103 -1 c 0,9,10
 103 23 103 23 128 44 c 1,11,12
 153 81 153 81 167 163 c 128,-1,13
 181 245 181 245 195.5 302 c 128,-1,14
 210 359 210 359 244 359 c 0,0,1
179 1025 m 0,15,16
 179 1055 179 1055 202 1079.5 c 128,-1,17
 225 1104 225 1104 255 1104 c 0,18,19
 284 1104 284 1104 306 1080 c 128,-1,20
 328 1056 328 1056 328 1027 c 0,21,22
 328 993 328 993 305 972.5 c 128,-1,23
 282 952 282 952 247 952 c 0,24,25
 219 952 219 952 199 974.5 c 128,-1,26
 179 997 179 997 179 1025 c 0,15,16
EndSplineSet
EndChar

StartChar: less
Encoding: 60 60 31
Width: 524
GlyphClass: 2
Flags: W
LayerCount: 2
UndoRedoHistory
Layer: 1
Undoes
EndUndoes
Redoes
EndRedoes
EndUndoRedoHistory
Fore
SplineSet
37 698 m 1,0,1
 38 729 38 729 104.5 912.5 c 128,-1,2
 171 1096 171 1096 251 1271.5 c 128,-1,3
 331 1447 331 1447 360 1447 c 0,4,5
 361 1447 361 1447 363 1446.5 c 128,-1,6
 365 1446 365 1446 367 1446 c 1,7,-1
 412 1411 l 1,8,9
 403 1339 403 1339 360.5 1232.5 c 128,-1,10
 318 1126 318 1126 272.5 1037 c 128,-1,11
 227 948 227 948 190.5 853 c 128,-1,12
 154 758 154 758 154 702 c 0,13,14
 154 686 154 686 293 397 c 128,-1,15
 432 108 432 108 465 49 c 1,16,-1
 491 49 l 1,17,18
 489 22 489 22 475.5 0 c 128,-1,19
 462 -22 462 -22 437 -22 c 0,20,21
 394 -22 394 -22 343.5 39.5 c 128,-1,22
 293 101 293 101 246 198.5 c 128,-1,23
 199 296 199 296 160 390.5 c 128,-1,24
 121 485 121 485 85 578.5 c 128,-1,25
 49 672 49 672 37 698 c 1,0,1
EndSplineSet
EndChar

StartChar: equal
Encoding: 61 61 32
Width: 684
GlyphClass: 2
Flags: W
LayerCount: 2
UndoRedoHistory
Layer: 1
Undoes
EndUndoes
Redoes
EndRedoes
EndUndoRedoHistory
Fore
SplineSet
470 872 m 2,0,1
 629 872 629 872 629 818 c 128,-1,2
 629 764 629 764 413 764 c 0,3,4
 391 764 391 764 367 764.5 c 128,-1,5
 343 765 343 765 324.5 766 c 128,-1,6
 306 767 306 767 291 768 c 128,-1,7
 276 769 276 769 267 770 c 1,8,-1
 258 770 l 2,9,10
 250 770 250 770 223 768.5 c 128,-1,11
 196 767 196 767 180 767 c 0,12,13
 57 767 57 767 57 826 c 0,14,15
 57 847 57 847 69.5 859.5 c 128,-1,16
 82 872 82 872 103 872 c 2,17,-1
 470 872 l 2,0,1
410 680 m 2,18,19
 619 680 619 680 619 626 c 0,20,21
 619 605 619 605 605.5 592 c 128,-1,22
 592 579 592 579 571 579 c 0,23,24
 499 579 499 579 355 584 c 128,-1,25
 211 589 211 589 139 589 c 0,26,27
 57 589 57 589 57 634 c 0,28,29
 57 655 57 655 69.5 667.5 c 128,-1,30
 82 680 82 680 103 680 c 2,31,-1
 410 680 l 2,18,19
EndSplineSet
EndChar

StartChar: greater
Encoding: 62 62 33
Width: 523
GlyphClass: 2
Flags: W
LayerCount: 2
UndoRedoHistory
Layer: 1
Undoes
EndUndoes
Redoes
EndRedoes
EndUndoRedoHistory
Fore
SplineSet
369 702 m 0,0,1
 369 759 369 759 342.5 833.5 c 128,-1,2
 316 908 316 908 278.5 981.5 c 128,-1,3
 241 1055 241 1055 203.5 1129 c 128,-1,4
 166 1203 166 1203 139.5 1278.5 c 128,-1,5
 113 1354 113 1354 112 1411 c 1,6,-1
 167 1446 l 1,7,-1
 167 1444 l 1,8,9
 207 1426 207 1426 285.5 1258 c 128,-1,10
 364 1090 364 1090 424.5 917 c 128,-1,11
 485 744 485 744 487 698 c 1,12,-1
 126 -19 l 1,13,14
 120 -19 120 -19 107 -21 c 128,-1,15
 94 -23 94 -23 88 -23 c 0,16,17
 71 -23 71 -23 58 -10 c 128,-1,18
 45 3 45 3 45 24 c 0,19,20
 45 64 45 64 126 223 c 128,-1,21
 207 382 207 382 288 532.5 c 128,-1,22
 369 683 369 683 369 702 c 0,0,1
EndSplineSet
EndChar

StartChar: question
Encoding: 63 63 34
Width: 464
GlyphClass: 2
Flags: W
LayerCount: 2
UndoRedoHistory
Layer: 1
Undoes
EndUndoes
Redoes
EndRedoes
EndUndoRedoHistory
Fore
SplineSet
131 68 m 128,-1,1
 131 97 131 97 156 122.5 c 128,-1,2
 181 148 181 148 211 148 c 0,3,4
 238 148 238 148 262 121.5 c 128,-1,5
 286 95 286 95 286 70 c 0,6,7
 286 30 286 30 263.5 11 c 128,-1,8
 241 -8 241 -8 203 -8 c 0,9,10
 174 -8 174 -8 152.5 15.5 c 128,-1,0
 131 39 131 39 131 68 c 128,-1,1
63 1359 m 0,11,12
 63 1408 63 1408 74 1447.5 c 128,-1,13
 85 1487 85 1487 118 1517 c 128,-1,14
 151 1547 151 1547 203 1547 c 0,15,16
 249 1547 249 1547 282.5 1528.5 c 128,-1,17
 316 1510 316 1510 334 1483.5 c 128,-1,18
 352 1457 352 1457 362.5 1415.5 c 128,-1,19
 373 1374 373 1374 375.5 1339.5 c 128,-1,20
 378 1305 378 1305 378 1260 c 0,21,22
 378 1156 378 1156 358.5 1051 c 128,-1,23
 339 946 339 946 315.5 867 c 128,-1,24
 292 788 292 788 272.5 654 c 128,-1,25
 253 520 253 520 253 366 c 0,26,27
 253 267 253 267 254 229 c 1,28,29
 218 229 218 229 212.5 226 c 128,-1,30
 207 223 207 223 203 223 c 0,31,32
 165 223 165 223 153 269 c 1,33,34
 153 391 153 391 171 533.5 c 128,-1,35
 189 676 189 676 210.5 784 c 128,-1,36
 232 892 232 892 250 1024 c 128,-1,37
 268 1156 268 1156 268 1258 c 0,38,39
 268 1447 268 1447 207 1447 c 0,40,41
 168 1447 168 1447 168 1356 c 0,42,43
 168 1340 168 1340 182 1245 c 0,44,45
 182 1243 182 1243 172 1233 c 128,-1,46
 162 1223 162 1223 147 1213 c 128,-1,47
 132 1203 132 1203 121 1203 c 0,48,49
 107 1203 107 1203 96.5 1209.5 c 128,-1,50
 86 1216 86 1216 80 1230 c 128,-1,51
 74 1244 74 1244 70 1256 c 128,-1,52
 66 1268 66 1268 64.5 1289 c 128,-1,53
 63 1310 63 1310 63 1320 c 128,-1,54
 63 1330 63 1330 63 1350 c 0,55,56
 63 1356 63 1356 63 1359 c 0,11,12
EndSplineSet
EndChar

StartChar: at
Encoding: 64 64 35
Width: 1030
GlyphClass: 2
Flags: W
LayerCount: 2
UndoRedoHistory
Layer: 1
Undoes
EndUndoes
Redoes
EndRedoes
EndUndoRedoHistory
Fore
SplineSet
430 -120 m 0,0,1
 15 -120 15 -120 15 956 c 0,2,3
 15 1042 15 1042 16.5 1096.5 c 128,-1,4
 18 1151 18 1151 27.5 1239.5 c 128,-1,5
 37 1328 37 1328 54 1386.5 c 128,-1,6
 71 1445 71 1445 105 1513.5 c 128,-1,7
 139 1582 139 1582 187 1622.5 c 128,-1,8
 235 1663 235 1663 309.5 1691 c 128,-1,9
 384 1719 384 1719 478 1719 c 0,10,11
 567 1719 567 1719 640.5 1686 c 128,-1,12
 714 1653 714 1653 765.5 1598 c 128,-1,13
 817 1543 817 1543 857 1464.5 c 128,-1,14
 897 1386 897 1386 920.5 1303 c 128,-1,15
 944 1220 944 1220 959 1123 c 128,-1,16
 974 1026 974 1026 979.5 941 c 128,-1,17
 985 856 985 856 985 767 c 0,18,19
 985 732 985 732 984.5 707.5 c 128,-1,20
 984 683 984 683 980 642.5 c 128,-1,21
 976 602 976 602 969.5 573 c 128,-1,22
 963 544 963 544 950 510.5 c 128,-1,23
 937 477 937 477 919 456 c 128,-1,24
 901 435 901 435 873 420.5 c 128,-1,25
 845 406 845 406 809 406 c 0,26,27
 759 406 759 406 706 519 c 1,28,29
 672 425 672 425 612.5 365.5 c 128,-1,30
 553 306 553 306 487 306 c 0,31,32
 450 306 450 306 419.5 319 c 128,-1,33
 389 332 389 332 366.5 352 c 128,-1,34
 344 372 344 372 326.5 405.5 c 128,-1,35
 309 439 309 439 298 470 c 128,-1,36
 287 501 287 501 279 546 c 128,-1,37
 271 591 271 591 267 624.5 c 128,-1,38
 263 658 263 658 261 706.5 c 128,-1,39
 259 755 259 755 258.5 781.5 c 128,-1,40
 258 808 258 808 258 851 c 0,41,42
 258 893 258 893 258.5 920.5 c 128,-1,43
 259 948 259 948 261 992.5 c 128,-1,44
 263 1037 263 1037 267.5 1068 c 128,-1,45
 272 1099 272 1099 280 1139.5 c 128,-1,46
 288 1180 288 1180 299.5 1207.5 c 128,-1,47
 311 1235 311 1235 329 1264.5 c 128,-1,48
 347 1294 347 1294 369.5 1311 c 128,-1,49
 392 1328 392 1328 423 1339.5 c 128,-1,50
 454 1351 454 1351 491 1351 c 0,51,52
 540 1351 540 1351 579.5 1326.5 c 128,-1,53
 619 1302 619 1302 646 1264.5 c 128,-1,54
 673 1227 673 1227 695 1168.5 c 128,-1,55
 717 1110 717 1110 729.5 1054 c 128,-1,56
 742 998 742 998 752 924 c 128,-1,57
 762 850 762 850 767 795.5 c 128,-1,58
 772 741 772 741 778 670.5 c 128,-1,59
 784 600 784 600 788 565 c 1,60,-1
 788 556 l 1,61,-1
 817 510 l 1,62,63
 839 522 839 522 852 581 c 128,-1,64
 865 640 865 640 867.5 687 c 128,-1,65
 870 734 870 734 870 776 c 0,66,67
 870 851 870 851 866 922.5 c 128,-1,68
 862 994 862 994 850.5 1079.5 c 128,-1,69
 839 1165 839 1165 820.5 1238.5 c 128,-1,70
 802 1312 802 1312 771 1382 c 128,-1,71
 740 1452 740 1452 699 1502 c 128,-1,72
 658 1552 658 1552 598.5 1582 c 128,-1,73
 539 1612 539 1612 468 1612 c 0,74,75
 402 1612 402 1612 350 1593 c 128,-1,76
 298 1574 298 1574 264 1545 c 128,-1,77
 230 1516 230 1516 205 1468.5 c 128,-1,78
 180 1421 180 1421 167 1377 c 128,-1,79
 154 1333 154 1333 146.5 1270 c 128,-1,80
 139 1207 139 1207 137.5 1161 c 128,-1,81
 136 1115 136 1115 136 1050 c 2,82,-1
 136 966 l 1,83,-1
 136 930 l 2,84,85
 136 877 136 877 136.5 832.5 c 128,-1,86
 137 788 137 788 140 711.5 c 128,-1,87
 143 635 143 635 148.5 572.5 c 128,-1,88
 154 510 154 510 165 430.5 c 128,-1,89
 176 351 176 351 190.5 289 c 128,-1,90
 205 227 205 227 228 165 c 128,-1,91
 251 103 251 103 279.5 61.5 c 128,-1,92
 308 20 308 20 347.5 -5.5 c 128,-1,93
 387 -31 387 -31 434 -31 c 0,94,95
 516 -31 516 -31 584.5 -12.5 c 128,-1,96
 653 6 653 6 695 32.5 c 128,-1,97
 737 59 737 59 769.5 86 c 128,-1,98
 802 113 802 113 828.5 131.5 c 128,-1,99
 855 150 855 150 876 150 c 0,100,101
 894 150 894 150 894 130 c 0,102,103
 894 106 894 106 864.5 66 c 128,-1,104
 835 26 835 26 781 -16.5 c 128,-1,105
 727 -59 727 -59 633.5 -89.5 c 128,-1,106
 540 -120 540 -120 430 -120 c 0,0,1
491 1246 m 0,107,108
 433 1246 433 1246 399 1120 c 128,-1,109
 365 994 365 994 365 825 c 0,110,111
 365 655 365 655 401 532.5 c 128,-1,112
 437 410 437 410 503 410 c 0,113,114
 546 410 546 410 592 484 c 128,-1,115
 638 558 638 558 638 605 c 2,116,-1
 638 759 l 2,117,118
 638 814 638 814 631.5 886 c 128,-1,119
 625 958 625 958 610.5 1044 c 128,-1,120
 596 1130 596 1130 564.5 1188 c 128,-1,121
 533 1246 533 1246 491 1246 c 0,107,108
EndSplineSet
EndChar

StartChar: A
Encoding: 65 65 36
Width: 656
GlyphClass: 2
Flags: W
LayerCount: 2
UndoRedoHistory
Layer: 1
Undoes
EndUndoes
Redoes
EndRedoes
EndUndoRedoHistory
Fore
SplineSet
472 1525 m 1,0,1
 472 1452 472 1452 512 1130 c 128,-1,2
 552 808 552 808 552 710 c 0,3,4
 552 619 552 619 573.5 399.5 c 128,-1,5
 595 180 595 180 595 70 c 0,6,7
 595 1 595 1 527 1 c 0,8,9
 495 1 495 1 479.5 13 c 128,-1,10
 464 25 464 25 464 54 c 2,11,-1
 464 321 l 1,12,13
 435 341 435 341 359.5 355 c 128,-1,14
 284 369 284 369 225 373 c 1,15,16
 204 337 204 337 190.5 269 c 128,-1,17
 177 201 177 201 162.5 132 c 128,-1,18
 148 63 148 63 124 23 c 1,19,20
 44 23 44 23 34 64 c 1,21,22
 53 91 53 91 84.5 255.5 c 128,-1,23
 116 420 116 420 152 631 c 128,-1,24
 188 842 188 842 228.5 1050.5 c 128,-1,25
 269 1259 269 1259 316 1401 c 128,-1,26
 363 1543 363 1543 406 1543 c 128,-1,27
 449 1543 449 1543 472 1525 c 1,0,1
394 1236 m 0,28,29
 394 1249 394 1249 395 1254 c 1,30,31
 363 1221 363 1221 302.5 887 c 128,-1,32
 242 553 242 553 238 464 c 1,33,34
 323 441 323 441 420 441 c 0,35,36
 438 441 438 441 462 447 c 1,37,38
 459 488 459 488 441 669.5 c 128,-1,39
 423 851 423 851 408.5 1015.5 c 128,-1,40
 394 1180 394 1180 394 1236 c 0,28,29
EndSplineSet
EndChar

StartChar: B
Encoding: 66 66 37
Width: 576
GlyphClass: 2
Flags: W
LayerCount: 2
UndoRedoHistory
Layer: 1
Undoes
EndUndoes
Redoes
EndRedoes
EndUndoRedoHistory
Fore
SplineSet
214 1421 m 0,0,1
 185 1421 185 1421 185 1357 c 0,2,3
 185 1274 185 1274 189 1116.5 c 128,-1,4
 193 959 193 959 193 888 c 1,5,6
 219 894 219 894 242.5 917 c 128,-1,7
 266 940 266 940 284 976.5 c 128,-1,8
 302 1013 302 1013 314.5 1044 c 128,-1,9
 327 1075 327 1075 341 1117 c 128,-1,10
 355 1159 355 1159 361 1173 c 1,11,-1
 361 1246 l 2,12,13
 361 1306 361 1306 316.5 1363.5 c 128,-1,14
 272 1421 272 1421 214 1421 c 0,0,1
421 369 m 0,15,16
 421 466 421 466 405 543.5 c 128,-1,17
 389 621 389 621 366 661 c 128,-1,18
 343 701 343 701 320 727.5 c 128,-1,19
 297 754 297 754 281 762 c 2,20,-1
 265 769 l 1,21,-1
 192 769 l 1,22,23
 202 486 202 486 202 90 c 1,24,25
 305 106 305 106 363 184 c 128,-1,26
 421 262 421 262 421 369 c 0,15,16
527 374 m 0,27,28
 527 343 527 343 516 298 c 128,-1,29
 505 253 505 253 478.5 197 c 128,-1,30
 452 141 452 141 414.5 94 c 128,-1,31
 377 47 377 47 316 15 c 128,-1,32
 255 -17 255 -17 182 -17 c 2,33,-1
 174 -17 l 2,34,35
 78 -17 78 -17 78 34 c 0,36,37
 78 118 78 118 83 286 c 128,-1,38
 88 454 88 454 88 538 c 0,39,40
 88 676 88 676 81 954 c 128,-1,41
 74 1232 74 1232 74 1370 c 2,42,-1
 74 1382 l 2,43,44
 74 1411 74 1411 76 1432 c 128,-1,45
 78 1453 78 1453 84.5 1480 c 128,-1,46
 91 1507 91 1507 108 1522 c 128,-1,47
 125 1537 125 1537 151 1537 c 0,48,49
 297 1537 297 1537 379 1443 c 128,-1,50
 461 1349 461 1349 461 1201 c 0,51,52
 461 1108 461 1108 412 1008 c 128,-1,53
 363 908 363 908 295 859 c 1,54,55
 420 775 420 775 473.5 645.5 c 128,-1,56
 527 516 527 516 527 374 c 0,27,28
EndSplineSet
EndChar

StartChar: C
Encoding: 67 67 38
Width: 649
GlyphClass: 2
Flags: W
LayerCount: 2
UndoRedoHistory
Layer: 1
Undoes
EndUndoes
Redoes
EndRedoes
EndUndoRedoHistory
Fore
SplineSet
557 166 m 0,0,1
 586 166 586 166 617 135 c 1,2,3
 617 97 617 97 601 67 c 128,-1,4
 585 37 585 37 559.5 19 c 128,-1,5
 534 1 534 1 500 -11.5 c 128,-1,6
 466 -24 466 -24 433 -28.5 c 128,-1,7
 400 -33 400 -33 366 -33 c 0,8,9
 306 -33 306 -33 258 -5.5 c 128,-1,10
 210 22 210 22 178 65.5 c 128,-1,11
 146 109 146 109 122 177 c 128,-1,12
 98 245 98 245 84.5 312.5 c 128,-1,13
 71 380 71 380 63.5 468.5 c 128,-1,14
 56 557 56 557 53.5 629.5 c 128,-1,15
 51 702 51 702 51 792 c 0,16,17
 51 839 51 839 52 921.5 c 128,-1,18
 53 1004 53 1004 53 1037 c 0,19,20
 53 1154 53 1154 67 1226 c 1,21,22
 61 1259 61 1259 61 1290 c 0,23,24
 61 1416 61 1416 155 1490.5 c 128,-1,25
 249 1565 249 1565 387 1565 c 0,26,27
 436 1565 436 1565 483 1537.5 c 128,-1,28
 530 1510 530 1510 530 1465 c 0,29,30
 530 1443 530 1443 513 1431 c 128,-1,31
 496 1419 496 1419 473 1419 c 0,32,33
 454 1419 454 1419 430.5 1425.5 c 128,-1,34
 407 1432 407 1432 400 1444 c 1,35,-1
 400 1443 l 1,36,-1
 372 1443 l 1,37,-1
 372 1448 l 1,38,39
 331 1448 331 1448 299 1438.5 c 128,-1,40
 267 1429 267 1429 246 1414.5 c 128,-1,41
 225 1400 225 1400 210 1374.5 c 128,-1,42
 195 1349 195 1349 187.5 1326.5 c 128,-1,43
 180 1304 180 1304 176 1267.5 c 128,-1,44
 172 1231 172 1231 171 1206 c 128,-1,45
 170 1181 170 1181 170 1140 c 0,46,47
 170 1116 170 1116 173 1069 c 128,-1,48
 176 1022 176 1022 176 999 c 0,49,50
 176 975 176 975 167 927.5 c 128,-1,51
 158 880 158 880 158 856 c 2,52,-1
 158 807 l 2,53,54
 158 746 158 746 159 701.5 c 128,-1,55
 160 657 160 657 162.5 587.5 c 128,-1,56
 165 518 165 518 172 466.5 c 128,-1,57
 179 415 179 415 190 354 c 128,-1,58
 201 293 201 293 218.5 250 c 128,-1,59
 236 207 236 207 260 169 c 128,-1,60
 284 131 284 131 318 112 c 128,-1,61
 352 93 352 93 393 93 c 0,62,63
 428 93 428 93 480 129.5 c 128,-1,64
 532 166 532 166 557 166 c 0,0,1
EndSplineSet
EndChar

StartChar: D
Encoding: 68 68 39
Width: 653
GlyphClass: 2
Flags: W
LayerCount: 2
UndoRedoHistory
Layer: 1
Undoes
EndUndoes
Redoes
EndRedoes
EndUndoRedoHistory
Fore
SplineSet
211 310 m 2,0,-1
 211 114 l 1,1,2
 288 164 288 164 345 253.5 c 128,-1,3
 402 343 402 343 431.5 449 c 128,-1,4
 461 555 461 555 474.5 655.5 c 128,-1,5
 488 756 488 756 488 854 c 0,6,7
 488 912 488 912 483 969 c 128,-1,8
 478 1026 478 1026 466.5 1094.5 c 128,-1,9
 455 1163 455 1163 430.5 1220 c 128,-1,10
 406 1277 406 1277 372 1325.5 c 128,-1,11
 338 1374 338 1374 284 1401.5 c 128,-1,12
 230 1429 230 1429 162 1429 c 1,13,-1
 162 1427 l 2,14,15
 162 1242 162 1242 186.5 870 c 128,-1,16
 211 498 211 498 211 310 c 2,0,-1
168 -5 m 0,17,18
 130 -5 130 -5 99 12.5 c 128,-1,19
 68 30 68 30 68 65 c 1,20,21
 113 112 113 112 113 306 c 0,22,23
 113 420 113 420 94 645 c 128,-1,24
 75 870 75 870 75 982 c 0,25,26
 75 1018 75 1018 78 1093 c 128,-1,27
 81 1168 81 1168 81 1206 c 0,28,29
 81 1260 81 1260 58.5 1351.5 c 128,-1,30
 36 1443 36 1443 36 1481 c 0,31,32
 36 1552 36 1552 193 1552 c 2,33,-1
 224 1552 l 2,34,35
 283 1552 283 1552 332.5 1533 c 128,-1,36
 382 1514 382 1514 417 1484 c 128,-1,37
 452 1454 452 1454 480.5 1408.5 c 128,-1,38
 509 1363 509 1363 527 1318.5 c 128,-1,39
 545 1274 545 1274 558.5 1216.5 c 128,-1,40
 572 1159 572 1159 578.5 1115 c 128,-1,41
 585 1071 585 1071 588.5 1016.5 c 128,-1,42
 592 962 592 962 592.5 933 c 128,-1,43
 593 904 593 904 593 868 c 2,44,-1
 593 773 l 1,45,46
 588 765 588 765 588 754.5 c 128,-1,47
 588 744 588 744 590.5 731 c 128,-1,48
 593 718 593 718 593 711 c 0,49,50
 593 647 593 647 573.5 557 c 128,-1,51
 554 467 554 467 515.5 369 c 128,-1,52
 477 271 477 271 427 187.5 c 128,-1,53
 377 104 377 104 308.5 49.5 c 128,-1,54
 240 -5 240 -5 168 -5 c 0,17,18
EndSplineSet
EndChar

StartChar: E
Encoding: 69 69 40
Width: 457
GlyphClass: 2
Flags: W
LayerCount: 2
UndoRedoHistory
Layer: 1
Undoes
EndUndoes
Redoes
EndRedoes
EndUndoRedoHistory
Fore
SplineSet
431 50 m 1,0,1
 417 22 417 22 383 7 c 128,-1,2
 349 -8 349 -8 323 -10 c 128,-1,3
 297 -12 297 -12 256 -12 c 2,4,-1
 192 -12 l 2,5,6
 169 -12 169 -12 155 -10.5 c 128,-1,7
 141 -9 141 -9 124 -3 c 128,-1,8
 107 3 107 3 98.5 17.5 c 128,-1,9
 90 32 90 32 90 55 c 2,10,-1
 90 1245 l 2,11,12
 90 1280 90 1280 76 1349 c 128,-1,13
 62 1418 62 1418 62 1454 c 2,14,-1
 62 1461 l 1,15,16
 96 1517 96 1517 113 1533 c 1,17,18
 138 1533 138 1533 189 1542 c 128,-1,19
 240 1551 240 1551 265 1551 c 0,20,21
 296 1551 296 1551 327.5 1532.5 c 128,-1,22
 359 1514 359 1514 359 1484 c 0,23,24
 359 1423 359 1423 266 1423 c 0,25,26
 256 1423 256 1423 236.5 1424 c 128,-1,27
 217 1425 217 1425 207 1425 c 0,28,29
 192 1425 192 1425 185 1424 c 1,30,31
 185 1368 185 1368 193 1255 c 128,-1,32
 201 1142 201 1142 201 1086 c 0,33,34
 201 1045 201 1045 196 966.5 c 128,-1,35
 191 888 191 888 191 852 c 1,36,37
 202 854 202 854 221 859 c 128,-1,38
 240 864 240 864 256 867 c 128,-1,39
 272 870 272 870 287 870 c 0,40,41
 310 870 310 870 328.5 853 c 128,-1,42
 347 836 347 836 347 813 c 0,43,44
 347 788 347 788 332 769 c 128,-1,45
 317 750 317 750 293 750 c 0,46,47
 287 750 287 750 269.5 751 c 128,-1,48
 252 752 252 752 242 752 c 0,49,50
 212 752 212 752 200 737 c 1,51,-1
 200 105 l 1,52,53
 305 111 305 111 314 111 c 0,54,55
 431 111 431 111 431 57 c 2,56,-1
 431 50 l 1,0,1
EndSplineSet
EndChar

StartChar: F
Encoding: 70 70 41
Width: 391
GlyphClass: 2
Flags: W
LayerCount: 2
UndoRedoHistory
Layer: 1
Undoes
EndUndoes
Redoes
EndRedoes
EndUndoRedoHistory
Fore
SplineSet
225 81 m 0,0,1
 229 69 229 69 229 56 c 0,2,3
 229 30 229 30 210 14 c 128,-1,4
 191 -2 191 -2 160 -2 c 0,5,6
 101 -2 101 -2 101 129 c 0,7,8
 101 324 101 324 80.5 866 c 128,-1,9
 60 1408 60 1408 39 1440 c 1,10,11
 39 1472 39 1472 52.5 1494 c 128,-1,12
 66 1516 66 1516 84 1527.5 c 128,-1,13
 102 1539 102 1539 132 1545.5 c 128,-1,14
 162 1552 162 1552 183.5 1553 c 128,-1,15
 205 1554 205 1554 237 1554 c 0,16,17
 281 1554 281 1554 302.5 1540 c 128,-1,18
 324 1526 324 1526 324 1484 c 0,19,20
 324 1462 324 1462 307 1451 c 128,-1,21
 290 1440 290 1440 267 1440 c 0,22,23
 264 1440 264 1440 246.5 1441 c 128,-1,24
 229 1442 229 1442 217 1442 c 0,25,26
 160 1442 160 1442 160 1419 c 0,27,28
 160 1324 160 1324 175 1140.5 c 128,-1,29
 190 957 190 957 191 869 c 1,30,31
 195 870 195 870 238.5 880.5 c 128,-1,32
 282 891 282 891 305 891 c 128,-1,33
 328 891 328 891 344.5 871.5 c 128,-1,34
 361 852 361 852 361 828 c 0,35,36
 361 814 361 814 354.5 803.5 c 128,-1,37
 348 793 348 793 334.5 786.5 c 128,-1,38
 321 780 321 780 308.5 775 c 128,-1,39
 296 770 296 770 276 767.5 c 128,-1,40
 256 765 256 765 245 764 c 128,-1,41
 234 763 234 763 214 762 c 128,-1,42
 194 761 194 761 191 761 c 1,43,44
 191 650 191 650 210.5 428 c 128,-1,45
 230 206 230 206 230 94 c 0,46,47
 230 92 230 92 227.5 87 c 128,-1,48
 225 82 225 82 225 81 c 0,0,1
EndSplineSet
EndChar

StartChar: G
Encoding: 71 71 42
Width: 727
GlyphClass: 2
Flags: W
LayerCount: 2
UndoRedoHistory
Layer: 1
Undoes
EndUndoes
Redoes
EndRedoes
EndUndoRedoHistory
Fore
SplineSet
562 2 m 1,0,-1
 562 4 l 1,1,2
 550 -1 550 -1 517 -19 c 128,-1,3
 484 -37 484 -37 460 -45.5 c 128,-1,4
 436 -54 436 -54 411 -54 c 0,5,6
 354 -54 354 -54 306.5 -35 c 128,-1,7
 259 -16 259 -16 224.5 13.5 c 128,-1,8
 190 43 190 43 162.5 90 c 128,-1,9
 135 137 135 137 117 183 c 128,-1,10
 99 229 99 229 86.5 291 c 128,-1,11
 74 353 74 353 67.5 402 c 128,-1,12
 61 451 61 451 57 515.5 c 128,-1,13
 53 580 53 580 52.5 619 c 128,-1,14
 52 658 52 658 52 711 c 0,15,16
 52 730 52 730 51.5 781 c 128,-1,17
 51 832 51 832 51 862 c 0,18,19
 51 918 51 918 52.5 965 c 128,-1,20
 54 1012 54 1012 58 1072.5 c 128,-1,21
 62 1133 62 1133 69.5 1182.5 c 128,-1,22
 77 1232 77 1232 90.5 1287 c 128,-1,23
 104 1342 104 1342 122 1384.5 c 128,-1,24
 140 1427 140 1427 166.5 1467 c 128,-1,25
 193 1507 193 1507 226.5 1533.5 c 128,-1,26
 260 1560 260 1560 304.5 1575.5 c 128,-1,27
 349 1591 349 1591 402 1591 c 0,28,29
 487 1591 487 1591 487 1533 c 0,30,31
 487 1511 487 1511 471 1498 c 128,-1,32
 455 1485 455 1485 433 1485 c 0,33,34
 423 1485 423 1485 403.5 1490 c 128,-1,35
 384 1495 384 1495 374 1495 c 0,36,37
 336 1495 336 1495 305 1471 c 128,-1,38
 274 1447 274 1447 253 1402.5 c 128,-1,39
 232 1358 232 1358 215.5 1306.5 c 128,-1,40
 199 1255 199 1255 189.5 1187 c 128,-1,41
 180 1119 180 1119 173.5 1063 c 128,-1,42
 167 1007 167 1007 164.5 937.5 c 128,-1,43
 162 868 162 868 161.5 829.5 c 128,-1,44
 161 791 161 791 161 744 c 0,45,46
 161 729 161 729 160.5 687.5 c 128,-1,47
 160 646 160 646 160 617 c 0,48,49
 160 562 160 562 161.5 516.5 c 128,-1,50
 163 471 163 471 169 410.5 c 128,-1,51
 175 350 175 350 185 302.5 c 128,-1,52
 195 255 195 255 213.5 206 c 128,-1,53
 232 157 232 157 257.5 124.5 c 128,-1,54
 283 92 283 92 321.5 71.5 c 128,-1,55
 360 51 360 51 407 51 c 0,56,57
 498 51 498 51 558 137 c 1,58,59
 557 197 557 197 549 270 c 128,-1,60
 541 343 541 343 525 371 c 1,61,62
 523 371 523 371 492.5 367 c 128,-1,63
 462 363 462 363 445 363 c 0,64,65
 375 363 375 363 375 421 c 0,66,67
 375 441 375 441 396.5 455 c 128,-1,68
 418 469 418 469 449.5 476 c 128,-1,69
 481 483 481 483 507 486 c 128,-1,70
 533 489 533 489 552 489 c 0,71,72
 595 489 595 489 617 457 c 128,-1,73
 639 425 639 425 639 380 c 0,74,75
 639 318 639 318 659.5 197 c 128,-1,76
 680 76 680 76 680 15 c 0,77,78
 680 -8 680 -8 666 -24.5 c 128,-1,79
 652 -41 652 -41 630 -41 c 0,80,81
 579 -41 579 -41 562 2 c 1,0,-1
EndSplineSet
EndChar

StartChar: H
Encoding: 72 72 43
Width: 560
GlyphClass: 2
Flags: W
LayerCount: 2
UndoRedoHistory
Layer: 1
Undoes
EndUndoes
Redoes
EndRedoes
EndUndoRedoHistory
Fore
SplineSet
54 1510 m 0,0,1
 54 1547 54 1547 89 1547 c 0,2,3
 108 1547 108 1547 130 1536.5 c 128,-1,4
 152 1526 152 1526 161 1514 c 1,5,6
 154 1441 154 1441 154 1360 c 0,7,8
 154 1290 154 1290 161 1149.5 c 128,-1,9
 168 1009 168 1009 168 939 c 0,10,11
 168 927 168 927 167 901 c 128,-1,12
 166 875 166 875 166 862 c 0,13,14
 166 833 166 833 170 809 c 1,15,16
 203 810 203 810 269 816.5 c 128,-1,17
 335 823 335 823 369 824 c 1,18,19
 369 926 369 926 365 1151.5 c 128,-1,20
 361 1377 361 1377 361 1496 c 2,21,-1
 361 1550 l 1,22,23
 389 1550 389 1550 409 1540 c 128,-1,24
 429 1530 429 1530 439 1517 c 128,-1,25
 449 1504 449 1504 454 1480 c 128,-1,26
 459 1456 459 1456 460 1439 c 128,-1,27
 461 1422 461 1422 461 1393 c 0,28,29
 461 1168 461 1168 480.5 717.5 c 128,-1,30
 500 267 500 267 500 43 c 0,31,32
 500 16 500 16 483 -7.5 c 128,-1,33
 466 -31 466 -31 440 -31 c 0,34,35
 413 -31 413 -31 400.5 -11 c 128,-1,36
 388 9 388 9 388 37 c 0,37,38
 388 427 388 427 370 759 c 1,39,40
 315 769 315 769 302 769 c 0,41,42
 219 769 219 769 181 753 c 1,43,44
 181 639 181 639 198 408 c 128,-1,45
 215 177 215 177 215 59 c 0,46,47
 215 39 215 39 203 22 c 128,-1,48
 191 5 191 5 171 5 c 0,49,50
 144 5 144 5 122.5 99 c 128,-1,51
 101 193 101 193 89 356.5 c 128,-1,52
 77 520 77 520 69.5 682 c 128,-1,53
 62 844 62 844 59 1039 c 128,-1,54
 56 1234 56 1234 55 1328.5 c 128,-1,55
 54 1423 54 1423 54 1510 c 0,0,1
EndSplineSet
EndChar

StartChar: I
Encoding: 73 73 44
Width: 432
GlyphClass: 2
Flags: W
LayerCount: 2
UndoRedoHistory
Layer: 1
Undoes
EndUndoes
Redoes
EndRedoes
EndUndoRedoHistory
Fore
SplineSet
352 8 m 1,0,1
 347 8 347 8 298 5.5 c 128,-1,2
 249 3 249 3 213 3 c 0,3,4
 36 3 36 3 36 64 c 0,5,6
 36 113 36 113 98 113 c 0,7,8
 107 113 107 113 121.5 111.5 c 128,-1,9
 136 110 136 110 141 110 c 0,10,11
 157 110 157 110 164 120 c 128,-1,12
 171 130 171 130 171 158 c 0,13,14
 171 316 171 316 152 631.5 c 128,-1,15
 133 947 133 947 133 1105 c 0,16,17
 133 1140 133 1140 135 1209.5 c 128,-1,18
 137 1279 137 1279 137 1314 c 0,19,20
 137 1380 137 1380 132 1428 c 1,21,22
 105 1419 105 1419 84 1419 c 0,23,24
 36 1419 36 1419 36 1468 c 0,25,26
 36 1493 36 1493 67 1511.5 c 128,-1,27
 98 1530 98 1530 144 1538 c 128,-1,28
 190 1546 190 1546 226.5 1549.5 c 128,-1,29
 263 1553 263 1553 289 1553 c 0,30,31
 313 1553 313 1553 331 1536.5 c 128,-1,32
 349 1520 349 1520 349 1497 c 0,33,34
 349 1475 349 1475 335.5 1458.5 c 128,-1,35
 322 1442 322 1442 301 1442 c 0,36,37
 294 1442 294 1442 282 1442.5 c 128,-1,38
 270 1443 270 1443 265 1443 c 0,39,40
 245 1443 245 1443 235.5 1434.5 c 128,-1,41
 226 1426 226 1426 226 1401 c 0,42,43
 226 1201 226 1201 251 802 c 128,-1,44
 276 403 276 403 276 203 c 2,45,-1
 276 124 l 1,46,47
 297 127 297 127 318 127 c 0,48,49
 403 127 403 127 403 55 c 2,50,-1
 403 43 l 1,51,-1
 352 8 l 1,0,1
EndSplineSet
EndChar

StartChar: J
Encoding: 74 74 45
Width: 419
GlyphClass: 2
Flags: W
LayerCount: 2
UndoRedoHistory
Layer: 1
Undoes
EndUndoes
Redoes
EndRedoes
EndUndoRedoHistory
Fore
SplineSet
164 1445 m 1,0,1
 157 1444 157 1444 137 1439 c 128,-1,2
 117 1434 117 1434 103 1431.5 c 128,-1,3
 89 1429 89 1429 75 1429 c 0,4,5
 54 1429 54 1429 38.5 1444.5 c 128,-1,6
 23 1460 23 1460 23 1481 c 0,7,8
 23 1553 23 1553 268 1553 c 2,9,-1
 294 1553 l 2,10,11
 320 1553 320 1553 337.5 1550 c 128,-1,12
 355 1547 355 1547 370.5 1534 c 128,-1,13
 386 1521 386 1521 386 1497 c 0,14,15
 386 1444 386 1444 301 1444 c 0,16,17
 300 1444 300 1444 298 1444.5 c 128,-1,18
 296 1445 296 1445 295 1445 c 2,19,-1
 267 1445 l 1,20,-1
 267 1429 l 2,21,22
 267 1376 267 1376 279 1270.5 c 128,-1,23
 291 1165 291 1165 291 1112 c 0,24,25
 291 979 291 979 309.5 713.5 c 128,-1,26
 328 448 328 448 328 315 c 0,27,28
 328 288 328 288 327.5 233.5 c 128,-1,29
 327 179 327 179 327 152 c 0,30,31
 327 31 327 31 276.5 -64.5 c 128,-1,32
 226 -160 226 -160 129 -194 c 1,33,34
 97 -194 97 -194 76 -178 c 128,-1,35
 55 -162 55 -162 55 -131 c 0,36,37
 55 -106 55 -106 80.5 -83 c 128,-1,38
 106 -60 106 -60 135 -48 c 1,39,40
 163 -12 163 -12 190 68 c 128,-1,41
 217 148 217 148 217 241 c 0,42,43
 217 287 217 287 217.5 382 c 128,-1,44
 218 477 218 477 218 525 c 0,45,46
 218 1119 218 1119 164 1445 c 1,0,1
EndSplineSet
EndChar

StartChar: K
Encoding: 75 75 46
Width: 650
GlyphClass: 2
Flags: W
LayerCount: 2
UndoRedoHistory
Layer: 1
Undoes
EndUndoes
Redoes
EndRedoes
EndUndoRedoHistory
Fore
SplineSet
70 1476 m 0,0,1
 70 1502 70 1502 86.5 1521.5 c 128,-1,2
 103 1541 103 1541 128 1541 c 0,3,4
 204 1541 204 1541 204 1375 c 0,5,6
 204 1374 204 1374 195 954 c 1,7,8
 202 971 202 971 234 1054 c 128,-1,9
 266 1137 266 1137 300.5 1221 c 128,-1,10
 335 1305 335 1305 374 1394.5 c 128,-1,11
 413 1484 413 1484 447.5 1540 c 128,-1,12
 482 1596 482 1596 502 1596 c 0,13,14
 525 1596 525 1596 542.5 1580.5 c 128,-1,15
 560 1565 560 1565 560 1542 c 0,16,17
 560 1522 560 1522 448.5 1288 c 128,-1,18
 337 1054 337 1054 323 991 c 1,19,-1
 323 955 l 1,20,21
 353 879 353 879 486.5 458 c 128,-1,22
 620 37 620 37 620 11 c 0,23,24
 620 -14 620 -14 600 -31 c 128,-1,25
 580 -48 580 -48 555 -48 c 0,26,27
 546 -48 546 -48 530 -44 c 128,-1,28
 514 -40 514 -40 507 -40 c 1,29,30
 456 251 456 251 401 467.5 c 128,-1,31
 346 684 346 684 257 880 c 1,32,33
 248 864 248 864 233.5 836.5 c 128,-1,34
 219 809 219 809 214.5 800 c 128,-1,35
 210 791 210 791 202 772 c 128,-1,36
 194 753 194 753 192.5 738.5 c 128,-1,37
 191 724 191 724 189 702 c 128,-1,38
 187 680 187 680 187 650 c 0,39,40
 187 586 187 586 193.5 460 c 128,-1,41
 200 334 200 334 200 270 c 2,42,-1
 200 102 l 2,43,44
 200 -7 200 -7 130 -7 c 0,45,46
 70 -7 70 -7 70 108 c 0,47,48
 70 200 70 200 83.5 384 c 128,-1,49
 97 568 97 568 97 660 c 0,50,51
 97 701 97 701 98.5 836 c 128,-1,52
 100 971 100 971 100 1049 c 0,53,54
 100 1151 100 1151 85 1285 c 128,-1,55
 70 1419 70 1419 70 1476 c 0,0,1
EndSplineSet
EndChar

StartChar: L
Encoding: 76 76 47
Width: 430
GlyphClass: 2
Flags: W
LayerCount: 2
UndoRedoHistory
Layer: 1
Undoes
EndUndoes
Redoes
EndRedoes
EndUndoRedoHistory
Fore
SplineSet
201 115 m 1,0,-1
 357 115 l 1,1,2
 401 85 401 85 401 54 c 0,3,4
 401 31 401 31 386 13.5 c 128,-1,5
 371 -4 371 -4 349 -4 c 0,6,7
 345 -4 345 -4 339.5 -3 c 128,-1,8
 334 -2 334 -2 327.5 0 c 128,-1,9
 321 2 321 2 318 3 c 1,10,11
 301 -1 301 -1 279 -1 c 0,12,13
 268 -1 268 -1 246 0.5 c 128,-1,14
 224 2 224 2 213 2 c 1,15,16
 192 -23 192 -23 155 -23 c 0,17,18
 129 -23 129 -23 107.5 -3.5 c 128,-1,19
 86 16 86 16 86 42 c 0,20,21
 86 58 86 58 92.5 87.5 c 128,-1,22
 99 117 99 117 99 132 c 0,23,24
 99 365 99 365 78.5 830.5 c 128,-1,25
 58 1296 58 1296 58 1529 c 0,26,27
 58 1548 58 1548 73 1559.5 c 128,-1,28
 88 1571 88 1571 108 1571 c 0,29,30
 133 1571 133 1571 151.5 1554 c 128,-1,31
 170 1537 170 1537 170 1512 c 0,32,33
 170 1389 170 1389 180.5 1143 c 128,-1,34
 191 897 191 897 191 775 c 0,35,36
 191 769 191 769 193 742.5 c 128,-1,37
 195 716 195 716 193 710 c 1,38,-1
 193 701 l 1,39,40
 201 523 201 523 201 167 c 2,41,-1
 201 115 l 1,0,-1
EndSplineSet
EndChar

StartChar: M
Encoding: 77 77 48
Width: 824
GlyphClass: 2
Flags: W
LayerCount: 2
UndoRedoHistory
Layer: 1
Undoes
EndUndoes
Redoes
EndRedoes
EndUndoRedoHistory
Fore
SplineSet
598 1517 m 1,0,-1
 598 1529 l 1,1,2
 602 1555 602 1555 623 1571 c 128,-1,3
 644 1587 644 1587 671 1587 c 0,4,5
 690 1587 690 1587 704.5 1570.5 c 128,-1,6
 719 1554 719 1554 719 1535 c 0,7,8
 719 1290 719 1290 737.5 801 c 128,-1,9
 756 312 756 312 756 67 c 0,10,11
 756 18 756 18 730 -18 c 128,-1,12
 704 -54 704 -54 675 -54 c 0,13,14
 656 -54 656 -54 643 -33.5 c 128,-1,15
 630 -13 630 -13 630 27 c 0,16,17
 630 170 630 170 626 458 c 128,-1,18
 622 746 622 746 622 889 c 2,19,-1
 622 993 l 1,20,21
 608 914 608 914 559 716.5 c 128,-1,22
 510 519 510 519 496 414 c 1,23,-1
 496 401 l 1,24,25
 494 393 494 393 490 363 c 128,-1,26
 486 333 486 333 481.5 313.5 c 128,-1,27
 477 294 477 294 468 270.5 c 128,-1,28
 459 247 459 247 443 234.5 c 128,-1,29
 427 222 427 222 405 222 c 0,30,31
 332 222 332 222 332 413 c 0,32,33
 332 524 332 524 309 648 c 128,-1,34
 286 772 286 772 240.5 941.5 c 128,-1,35
 195 1111 195 1111 181 1172 c 1,36,37
 177 1008 177 1008 177 925 c 0,38,39
 177 784 177 784 185.5 504 c 128,-1,40
 194 224 194 224 194 83 c 0,41,42
 194 39 194 39 163 6 c 1,43,44
 110 6 110 6 91.5 40 c 128,-1,45
 73 74 73 74 73 132 c 0,46,47
 73 188 73 188 78 298.5 c 128,-1,48
 83 409 83 409 83 464 c 0,49,50
 83 597 83 597 79.5 861 c 128,-1,51
 76 1125 76 1125 76 1257 c 0,52,53
 76 1390 76 1390 79 1522 c 1,54,-1
 136 1554 l 1,55,56
 167 1552 167 1552 203.5 1462.5 c 128,-1,57
 240 1373 240 1373 275 1227.5 c 128,-1,58
 310 1082 310 1082 337 954 c 128,-1,59
 364 826 364 826 390 686 c 128,-1,60
 416 546 416 546 420 528 c 1,61,62
 434 594 434 594 472 764 c 128,-1,63
 510 934 510 934 529 1027.5 c 128,-1,64
 548 1121 548 1121 569.5 1261.5 c 128,-1,65
 591 1402 591 1402 598 1517 c 1,0,-1
EndSplineSet
EndChar

StartChar: N
Encoding: 78 78 49
Width: 737
GlyphClass: 2
Flags: W
LayerCount: 2
UndoRedoHistory
Layer: 1
Undoes
EndUndoes
Redoes
EndRedoes
EndUndoRedoHistory
Fore
SplineSet
540 225 m 1,0,1
 540 344 540 344 544 582 c 128,-1,2
 548 820 548 820 548 939 c 2,3,-1
 548 1545 l 1,4,5
 560 1596 560 1596 615 1596 c 128,-1,6
 670 1596 670 1596 670 1516 c 2,7,-1
 670 1504 l 1,8,9
 658 1479 658 1479 658 1444 c 0,10,11
 658 1319 658 1319 651.5 1066 c 128,-1,12
 645 813 645 813 645 687 c 2,13,-1
 645 61 l 2,14,15
 645 30 645 30 628 0 c 128,-1,16
 611 -30 611 -30 586 -30 c 0,17,18
 543 -30 543 -30 418 391.5 c 128,-1,19
 293 813 293 813 171 1298 c 1,20,-1
 171 626 l 2,21,22
 171 528 171 528 185.5 334 c 128,-1,23
 200 140 200 140 200 42 c 0,24,25
 200 23 200 23 177 10.5 c 128,-1,26
 154 -2 154 -2 128 -2 c 0,27,28
 83 -2 83 -2 83 30 c 0,29,30
 83 43 83 43 88 91 c 128,-1,31
 93 139 93 139 93 177 c 0,32,33
 93 283 93 283 80 521 c 128,-1,34
 67 759 67 759 67 812 c 2,35,-1
 67 1073 l 2,36,37
 67 1136 67 1136 74 1261 c 128,-1,38
 81 1386 81 1386 81 1449 c 2,39,-1
 81 1462 l 2,40,41
 81 1564 81 1564 126 1564 c 0,42,43
 154 1564 154 1564 195 1475 c 128,-1,44
 236 1386 236 1386 279.5 1245.5 c 128,-1,45
 323 1105 323 1105 366 946.5 c 128,-1,46
 409 788 409 788 446 632.5 c 128,-1,47
 483 477 483 477 506 376.5 c 128,-1,48
 529 276 529 276 538 235 c 2,49,-1
 540 225 l 1,0,1
EndSplineSet
EndChar

StartChar: O
Encoding: 79 79 50
Width: 650
GlyphClass: 2
Flags: W
LayerCount: 2
UndoRedoHistory
Layer: 1
Undoes
EndUndoes
Redoes
EndRedoes
EndUndoRedoHistory
Fore
SplineSet
273 1585 m 0,0,1
 330 1585 330 1585 376 1561.5 c 128,-1,2
 422 1538 422 1538 453.5 1486 c 128,-1,3
 485 1434 485 1434 508.5 1385 c 128,-1,4
 532 1336 532 1336 545.5 1248.5 c 128,-1,5
 559 1161 559 1161 567 1107 c 128,-1,6
 575 1053 575 1053 578 950.5 c 128,-1,7
 581 848 581 848 581.5 807.5 c 128,-1,8
 582 767 582 767 582 671 c 0,9,10
 582 659 582 659 582 652.5 c 128,-1,11
 582 646 582 646 582 636 c 128,-1,12
 582 626 582 626 582 618 c 0,13,14
 582 573 582 573 573 487 c 128,-1,15
 564 401 564 401 564 359 c 2,16,-1
 564 350 l 1,17,18
 551 293 551 293 551 215 c 0,19,20
 551 161 551 161 528 99.5 c 128,-1,21
 505 38 505 38 458 -9.5 c 128,-1,22
 411 -57 411 -57 355 -57 c 128,-1,23
 299 -57 299 -57 253 -19 c 128,-1,24
 207 19 207 19 177 78.5 c 128,-1,25
 147 138 147 138 124 220.5 c 128,-1,26
 101 303 101 303 88.5 381.5 c 128,-1,27
 76 460 76 460 68.5 547 c 128,-1,28
 61 634 61 634 59 691 c 128,-1,29
 57 748 57 748 57 799 c 0,30,31
 57 827 57 827 56 879.5 c 128,-1,32
 55 932 55 932 54 974 c 128,-1,33
 53 1016 53 1016 54 1075 c 128,-1,34
 55 1134 55 1134 57.5 1181 c 128,-1,35
 60 1228 60 1228 66.5 1282.5 c 128,-1,36
 73 1337 73 1337 83 1378.5 c 128,-1,37
 93 1420 93 1420 110 1460.5 c 128,-1,38
 127 1501 127 1501 149.5 1527 c 128,-1,39
 172 1553 172 1553 203.5 1569 c 128,-1,40
 235 1585 235 1585 273 1585 c 0,0,1
283 1477 m 0,41,42
 259 1477 259 1477 239.5 1456 c 128,-1,43
 220 1435 220 1435 206.5 1396.5 c 128,-1,44
 193 1358 193 1358 182.5 1314 c 128,-1,45
 172 1270 172 1270 166.5 1212.5 c 128,-1,46
 161 1155 161 1155 157 1108.5 c 128,-1,47
 153 1062 153 1062 151.5 1006 c 128,-1,48
 150 950 150 950 149.5 922 c 128,-1,49
 149 894 149 894 149 861 c 2,50,-1
 149 852 l 2,51,52
 149 803 149 803 154.5 717.5 c 128,-1,53
 160 632 160 632 175.5 515 c 128,-1,54
 191 398 191 398 213.5 297 c 128,-1,55
 236 196 236 196 274 125.5 c 128,-1,56
 312 55 312 55 359 55 c 0,57,58
 400 55 400 55 428.5 132 c 128,-1,59
 457 209 457 209 468.5 323.5 c 128,-1,60
 480 438 480 438 484.5 517 c 128,-1,61
 489 596 489 596 489 653 c 0,62,63
 489 693 489 693 488.5 731 c 128,-1,64
 488 769 488 769 485.5 841.5 c 128,-1,65
 483 914 483 914 477 977.5 c 128,-1,66
 471 1041 471 1041 461.5 1118 c 128,-1,67
 452 1195 452 1195 436.5 1255 c 128,-1,68
 421 1315 421 1315 400.5 1367.5 c 128,-1,69
 380 1420 380 1420 349.5 1448.5 c 128,-1,70
 319 1477 319 1477 283 1477 c 0,41,42
EndSplineSet
EndChar

StartChar: P
Encoding: 80 80 51
Width: 495
GlyphClass: 2
Flags: W
LayerCount: 2
UndoRedoHistory
Layer: 1
Undoes
EndUndoes
Redoes
EndRedoes
EndUndoRedoHistory
Fore
SplineSet
96 789 m 0,0,1
 96 1271 96 1271 43 1520 c 1,2,3
 75 1566 75 1566 122 1566 c 0,4,5
 198 1566 198 1566 260.5 1532 c 128,-1,6
 323 1498 323 1498 362 1441.5 c 128,-1,7
 401 1385 401 1385 422 1316.5 c 128,-1,8
 443 1248 443 1248 443 1175 c 0,9,10
 443 1025 443 1025 378 902.5 c 128,-1,11
 313 780 313 780 187 712 c 1,12,13
 187 609 187 609 195 396.5 c 128,-1,14
 203 184 203 184 203 74 c 0,15,16
 203 37 203 37 187 13 c 128,-1,17
 171 -11 171 -11 135 -11 c 0,18,19
 110 -11 110 -11 98 10.5 c 128,-1,20
 86 32 86 32 86 58 c 0,21,22
 86 151 86 151 91 400.5 c 128,-1,23
 96 650 96 650 96 789 c 0,0,1
338 1158 m 2,24,-1
 338 1159 l 2,25,26
 338 1197 338 1197 334.5 1226.5 c 128,-1,27
 331 1256 331 1256 327 1277.5 c 128,-1,28
 323 1299 323 1299 309.5 1320.5 c 128,-1,29
 296 1342 296 1342 287.5 1354.5 c 128,-1,30
 279 1367 279 1367 253 1388 c 128,-1,31
 227 1409 227 1409 212 1420 c 128,-1,32
 197 1431 197 1431 158 1459 c 1,33,34
 158 1351 158 1351 170 1135 c 128,-1,35
 182 919 182 919 182 811 c 1,36,37
 262 886 262 886 300 969 c 128,-1,38
 338 1052 338 1052 338 1158 c 2,24,-1
EndSplineSet
EndChar

StartChar: Q
Encoding: 81 81 52
Width: 676
GlyphClass: 2
Flags: W
LayerCount: 2
UndoRedoHistory
Layer: 1
Undoes
EndUndoes
Redoes
EndRedoes
EndUndoRedoHistory
Fore
SplineSet
273 1474 m 0,0,1
 236 1474 236 1474 210.5 1368.5 c 128,-1,2
 185 1263 185 1263 174.5 1104 c 128,-1,3
 164 945 164 945 160.5 838.5 c 128,-1,4
 157 732 157 732 157 653 c 0,5,6
 157 610 157 610 159 565 c 128,-1,7
 161 520 161 520 167 450.5 c 128,-1,8
 173 381 173 381 186.5 322 c 128,-1,9
 200 263 200 263 219.5 207.5 c 128,-1,10
 239 152 239 152 272.5 118 c 128,-1,11
 306 84 306 84 348 80 c 1,12,-1
 348 82 l 1,13,14
 363 108 363 108 404 108 c 1,15,-1
 404 107 l 1,16,17
 481 178 481 178 481 327 c 2,18,-1
 481 793 l 2,19,20
 481 1029 481 1029 472 1125 c 0,21,22
 439 1474 439 1474 273 1474 c 0,0,1
593 659 m 2,23,-1
 593 567 l 2,24,25
 593 394 593 394 571 289 c 128,-1,26
 549 184 549 184 467 70 c 1,27,28
 469 62 469 62 474.5 29 c 128,-1,29
 480 -4 480 -4 486 -34 c 128,-1,30
 492 -64 492 -64 501.5 -96.5 c 128,-1,31
 511 -129 511 -129 524.5 -149 c 128,-1,32
 538 -169 538 -169 554 -169 c 2,33,-1
 562 -169 l 2,34,35
 580 -169 580 -169 592 -170 c 128,-1,36
 604 -171 604 -171 619 -175.5 c 128,-1,37
 634 -180 634 -180 642 -191 c 128,-1,38
 650 -202 650 -202 650 -219 c 0,39,40
 650 -282 650 -282 559 -282 c 0,41,42
 524 -282 524 -282 474 -253 c 1,43,-1
 474 -252 l 1,44,45
 446 -239 446 -239 426.5 -216 c 128,-1,46
 407 -193 407 -193 396.5 -161 c 128,-1,47
 386 -129 386 -129 380.5 -102.5 c 128,-1,48
 375 -76 375 -76 369.5 -37 c 128,-1,49
 364 2 364 2 360 20 c 1,50,-1
 276 20 l 1,51,52
 220 57 220 57 179 107 c 128,-1,53
 138 157 138 157 114.5 208 c 128,-1,54
 91 259 91 259 77.5 324 c 128,-1,55
 64 389 64 389 60 445.5 c 128,-1,56
 56 502 56 502 56 574 c 0,57,58
 56 630 56 630 61 741 c 128,-1,59
 66 852 66 852 66 908 c 0,60,61
 66 923 66 923 65 971.5 c 128,-1,62
 64 1020 64 1020 64 1052 c 0,63,64
 64 1104 64 1104 65.5 1148.5 c 128,-1,65
 67 1193 67 1193 73 1248.5 c 128,-1,66
 79 1304 79 1304 88.5 1348 c 128,-1,67
 98 1392 98 1392 115.5 1436 c 128,-1,68
 133 1480 133 1480 156 1509.5 c 128,-1,69
 179 1539 179 1539 213.5 1557.5 c 128,-1,70
 248 1576 248 1576 290 1576 c 0,71,72
 355 1576 355 1576 405.5 1547.5 c 128,-1,73
 456 1519 456 1519 487.5 1470.5 c 128,-1,74
 519 1422 519 1422 542 1356 c 128,-1,75
 565 1290 565 1290 574 1215.5 c 128,-1,76
 583 1141 583 1141 589.5 1060.5 c 128,-1,77
 596 980 596 980 594.5 902.5 c 128,-1,78
 593 825 593 825 594 753 c 1,79,80
 593 731 593 731 593 719 c 128,-1,81
 593 707 593 707 593 690 c 128,-1,82
 593 673 593 673 593 659 c 2,23,-1
EndSplineSet
EndChar

StartChar: R
Encoding: 82 82 53
Width: 548
GlyphClass: 2
Flags: W
LayerCount: 2
UndoRedoHistory
Layer: 1
Undoes
EndUndoes
Redoes
EndRedoes
EndUndoRedoHistory
Fore
SplineSet
187 859 m 1,0,-1
 187 52 l 2,1,2
 187 21 187 21 176 4 c 128,-1,3
 165 -13 165 -13 130 -13 c 0,4,5
 107 -13 107 -13 92.5 3.5 c 128,-1,6
 78 20 78 20 78 44 c 2,7,-1
 78 60 l 2,8,9
 78 260 78 260 82 660.5 c 128,-1,10
 86 1061 86 1061 86 1261 c 2,11,-1
 86 1513 l 2,12,13
 86 1537 86 1537 96 1547 c 128,-1,14
 106 1557 106 1557 140 1557 c 0,15,16
 191 1557 191 1557 234.5 1536.5 c 128,-1,17
 278 1516 278 1516 307.5 1481.5 c 128,-1,18
 337 1447 337 1447 358 1402.5 c 128,-1,19
 379 1358 379 1358 388.5 1311 c 128,-1,20
 398 1264 398 1264 398 1217 c 0,21,22
 398 1188 398 1188 393 1156 c 128,-1,23
 388 1124 388 1124 383.5 1101.5 c 128,-1,24
 379 1079 379 1079 366 1040.5 c 128,-1,25
 353 1002 353 1002 347.5 988 c 128,-1,26
 342 974 342 974 324 929 c 128,-1,27
 306 884 306 884 303 876 c 1,28,29
 304 796 304 796 329.5 679.5 c 128,-1,30
 355 563 355 563 380.5 481 c 128,-1,31
 406 399 406 399 454 256.5 c 128,-1,32
 502 114 502 114 514 76 c 1,33,-1
 514 71 l 2,34,35
 514 51 514 51 513 40.5 c 128,-1,36
 512 30 512 30 508 12.5 c 128,-1,37
 504 -5 504 -5 493 -13 c 128,-1,38
 482 -21 482 -21 464 -21 c 0,39,40
 426 -21 426 -21 390 34 c 1,41,-1
 390 41 l 1,42,43
 383 156 383 156 349 294 c 128,-1,44
 315 432 315 432 261.5 604 c 128,-1,45
 208 776 208 776 187 859 c 1,0,-1
283 1207 m 2,46,47
 293 1261 293 1261 265.5 1357.5 c 128,-1,48
 238 1454 238 1454 191 1463 c 1,49,50
 191 1398 191 1398 185.5 1258 c 128,-1,51
 180 1118 180 1118 180 1045 c 0,52,53
 180 982 180 982 182 951 c 1,54,55
 217 984 217 984 251 1030 c 1,56,-1
 283 1207 l 2,46,47
EndSplineSet
EndChar

StartChar: S
Encoding: 83 83 54
Width: 523
GlyphClass: 2
Flags: W
LayerCount: 2
UndoRedoHistory
Layer: 1
Undoes
EndUndoes
Redoes
EndRedoes
EndUndoRedoHistory
Fore
SplineSet
180 1290 m 0,0,1
 180 1208 180 1208 202 1126 c 128,-1,2
 224 1044 224 1044 257 979 c 128,-1,3
 290 914 290 914 328.5 837.5 c 128,-1,4
 367 761 367 761 400 691.5 c 128,-1,5
 433 622 433 622 455 530 c 128,-1,6
 477 438 477 438 477 342 c 0,7,8
 477 278 477 278 459.5 212 c 128,-1,9
 442 146 442 146 409.5 87.5 c 128,-1,10
 377 29 377 29 321.5 -8 c 128,-1,11
 266 -45 266 -45 197 -45 c 0,12,13
 170 -45 170 -45 137 -40 c 128,-1,14
 104 -35 104 -35 71 -18 c 128,-1,15
 38 -1 38 -1 38 24 c 0,16,17
 38 47 38 47 49.5 63 c 128,-1,18
 61 79 61 79 84 79 c 128,-1,19
 107 79 107 79 144.5 63.5 c 128,-1,20
 182 48 182 48 197 48 c 0,21,22
 237 48 237 48 269 83 c 128,-1,23
 301 118 301 118 319 169.5 c 128,-1,24
 337 221 337 221 346.5 270 c 128,-1,25
 356 319 356 319 356 355 c 0,26,27
 356 447 356 447 326 545 c 128,-1,28
 296 643 296 643 252.5 729 c 128,-1,29
 209 815 209 815 166 901 c 128,-1,30
 123 987 123 987 93 1085 c 128,-1,31
 63 1183 63 1183 63 1275 c 0,32,33
 63 1345 63 1345 87 1411.5 c 128,-1,34
 111 1478 111 1478 164.5 1526 c 128,-1,35
 218 1574 218 1574 291 1574 c 0,36,37
 328 1574 328 1574 363 1553.5 c 128,-1,38
 398 1533 398 1533 412 1500 c 1,39,-1
 377 1456 l 1,40,41
 326 1456 326 1456 297 1476 c 1,42,43
 259 1472 259 1472 231 1439.5 c 128,-1,44
 203 1407 203 1407 191.5 1367.5 c 128,-1,45
 180 1328 180 1328 180 1290 c 0,0,1
EndSplineSet
EndChar

StartChar: T
Encoding: 84 84 55
Width: 492
GlyphClass: 2
Flags: W
LayerCount: 2
UndoRedoHistory
Layer: 1
Undoes
EndUndoes
Redoes
EndRedoes
EndUndoRedoHistory
Fore
SplineSet
317 925 m 0,0,1
 317 845 317 845 326 690 c 128,-1,2
 335 535 335 535 335 454 c 0,3,4
 335 392 335 392 343.5 270 c 128,-1,5
 352 148 352 148 352 86 c 0,6,7
 352 -14 352 -14 293 -14 c 0,8,9
 259 -14 259 -14 243 18 c 128,-1,10
 227 50 227 50 227 89 c 0,11,12
 227 144 227 144 235 253 c 128,-1,13
 243 362 243 362 243 416 c 0,14,15
 243 522 243 522 229 735 c 128,-1,16
 215 948 215 948 215 1054 c 0,17,18
 215 1070 215 1070 216.5 1132 c 128,-1,19
 218 1194 218 1194 218 1233 c 0,20,21
 218 1380 218 1380 199 1424 c 1,22,23
 184 1423 184 1423 146 1418 c 128,-1,24
 108 1413 108 1413 88 1413 c 0,25,26
 62 1413 62 1413 41.5 1428.5 c 128,-1,27
 21 1444 21 1444 21 1469 c 0,28,29
 21 1493 21 1493 70 1510.5 c 128,-1,30
 119 1528 119 1528 189.5 1536 c 128,-1,31
 260 1544 260 1544 312 1547 c 128,-1,32
 364 1550 364 1550 397 1550 c 0,33,34
 422 1550 422 1550 442.5 1533.5 c 128,-1,35
 463 1517 463 1517 463 1492 c 128,-1,36
 463 1467 463 1467 445 1452.5 c 128,-1,37
 427 1438 427 1438 401 1438 c 0,38,39
 388 1438 388 1438 364 1440 c 128,-1,40
 340 1442 340 1442 328 1442 c 0,41,42
 314 1442 314 1442 307 1441 c 1,43,44
 321 1323 321 1323 321 1189 c 0,45,46
 321 1146 321 1146 319 1057.5 c 128,-1,47
 317 969 317 969 317 925 c 0,0,1
EndSplineSet
EndChar

StartChar: U
Encoding: 85 85 56
Width: 699
GlyphClass: 2
Flags: W
LayerCount: 2
UndoRedoHistory
Layer: 1
Undoes
EndUndoes
Redoes
EndRedoes
EndUndoRedoHistory
Fore
SplineSet
54 1435 m 1,0,1
 39 1452 39 1452 39 1477 c 128,-1,2
 39 1502 39 1502 56.5 1521 c 128,-1,3
 74 1540 74 1540 98 1540 c 0,4,5
 172 1540 172 1540 172 1394 c 0,6,7
 172 1276 172 1276 181.5 1038.5 c 128,-1,8
 191 801 191 801 191 682 c 1,9,10
 203 655 203 655 211.5 573 c 128,-1,11
 220 491 220 491 220 444 c 0,12,13
 220 400 220 400 234.5 333.5 c 128,-1,14
 249 267 249 267 274.5 199 c 128,-1,15
 300 131 300 131 343.5 83 c 128,-1,16
 387 35 387 35 436 35 c 0,17,18
 465 35 465 35 484 53.5 c 128,-1,19
 503 72 503 72 510 106.5 c 128,-1,20
 517 141 517 141 519 163.5 c 128,-1,21
 521 186 521 186 521 219 c 2,22,-1
 521 619 l 2,23,24
 521 684 521 684 508 812 c 128,-1,25
 495 940 495 940 495 1005 c 2,26,-1
 495 1019 l 2,27,28
 495 1039 495 1039 493 1078.5 c 128,-1,29
 491 1118 491 1118 491 1138 c 0,30,31
 491 1196 491 1196 483.5 1313 c 128,-1,32
 476 1430 476 1430 476 1489 c 0,33,34
 476 1514 476 1514 501 1529.5 c 128,-1,35
 526 1545 526 1545 553 1545 c 1,36,-1
 603 1497 l 1,37,-1
 603 1463 l 2,38,39
 603 1443 603 1443 595.5 1401.5 c 128,-1,40
 588 1360 588 1360 588 1338 c 0,41,42
 588 1167 588 1167 606.5 823 c 128,-1,43
 625 479 625 479 625 288 c 0,44,45
 625 236 625 236 621.5 195.5 c 128,-1,46
 618 155 618 155 606 109 c 128,-1,47
 594 63 594 63 573 33 c 128,-1,48
 552 3 552 3 513.5 -17 c 128,-1,49
 475 -37 475 -37 423 -37 c 0,50,51
 361 -37 361 -37 310 -9 c 128,-1,52
 259 19 259 19 222 72.5 c 128,-1,53
 185 126 185 126 156.5 192.5 c 128,-1,54
 128 259 128 259 110 349.5 c 128,-1,55
 92 440 92 440 80 526.5 c 128,-1,56
 68 613 68 613 62 721.5 c 128,-1,57
 56 830 56 830 54 918.5 c 128,-1,58
 52 1007 52 1007 52 1115 c 0,59,60
 52 1176 52 1176 53 1284 c 128,-1,61
 54 1392 54 1392 54 1435 c 1,0,1
EndSplineSet
EndChar

StartChar: V
Encoding: 86 86 57
Width: 620
GlyphClass: 2
Flags: W
LayerCount: 2
UndoRedoHistory
Layer: 1
Undoes
EndUndoes
Redoes
EndRedoes
EndUndoRedoHistory
Fore
SplineSet
88 1563 m 0,0,1
 120 1563 120 1563 172.5 1301 c 128,-1,2
 225 1039 225 1039 277 702 c 128,-1,3
 329 365 329 365 334 339 c 1,4,5
 347 455 347 455 383.5 708.5 c 128,-1,6
 420 962 420 962 439.5 1156 c 128,-1,7
 459 1350 459 1350 459 1528 c 1,8,9
 491 1569 491 1569 534 1569 c 1,10,-1
 577 1546 l 1,11,12
 575 1531 575 1531 565.5 1443 c 128,-1,13
 556 1355 556 1355 547 1269 c 128,-1,14
 538 1183 538 1183 523 1053 c 128,-1,15
 508 923 508 923 494 807.5 c 128,-1,16
 480 692 480 692 463.5 563.5 c 128,-1,17
 447 435 447 435 432 332.5 c 128,-1,18
 417 230 417 230 402 145 c 128,-1,19
 387 60 387 60 373.5 13 c 128,-1,20
 360 -34 360 -34 350 -34 c 0,21,22
 321 -34 321 -34 302 -12 c 1,23,24
 252 194 252 194 156 787.5 c 128,-1,25
 60 1381 60 1381 31 1523 c 1,26,27
 43 1563 43 1563 88 1563 c 0,0,1
EndSplineSet
EndChar

StartChar: W
Encoding: 87 87 58
Width: 901
GlyphClass: 2
Flags: W
LayerCount: 2
UndoRedoHistory
Layer: 1
Undoes
EndUndoes
Redoes
EndRedoes
EndUndoRedoHistory
Fore
SplineSet
697 43 m 0,0,1
 697 12 697 12 681.5 -8 c 128,-1,2
 666 -28 666 -28 636 -28 c 0,3,4
 611 -28 611 -28 583 55 c 128,-1,5
 555 138 555 138 530 268.5 c 128,-1,6
 505 399 505 399 485.5 521 c 128,-1,7
 466 643 466 643 449.5 759 c 128,-1,8
 433 875 433 875 430 893 c 1,9,10
 405 714 405 714 391 599 c 128,-1,11
 377 484 377 484 364.5 324 c 128,-1,12
 352 164 352 164 352 28 c 0,13,14
 352 6 352 6 333.5 -11.5 c 128,-1,15
 315 -29 315 -29 293 -29 c 0,16,17
 218 -29 218 -29 218 127 c 0,18,19
 218 223 218 223 133.5 828.5 c 128,-1,20
 49 1434 49 1434 26 1491 c 1,21,22
 52 1540 52 1540 97 1540 c 0,23,24
 146 1540 146 1540 184.5 1327 c 128,-1,25
 223 1114 223 1114 250.5 810.5 c 128,-1,26
 278 507 278 507 279 503 c 1,27,28
 282 531 282 531 299.5 675.5 c 128,-1,29
 317 820 317 820 327 908.5 c 128,-1,30
 337 997 337 997 347 1111.5 c 128,-1,31
 357 1226 357 1226 357 1286 c 2,32,-1
 357 1325 l 2,33,34
 357 1347 357 1347 373.5 1367.5 c 128,-1,35
 390 1388 390 1388 411 1388 c 0,36,37
 484 1388 484 1388 484 1328 c 2,38,-1
 484 1297 l 2,39,40
 484 1171 484 1171 510 1029.5 c 128,-1,41
 536 888 536 888 576.5 724 c 128,-1,42
 617 560 617 560 633 461 c 1,43,44
 644 574 644 574 673 788.5 c 128,-1,45
 702 1003 702 1003 719 1176.5 c 128,-1,46
 736 1350 736 1350 736 1506 c 0,47,48
 736 1551 736 1551 751 1571.5 c 128,-1,49
 766 1592 766 1592 810 1592 c 0,50,51
 834 1592 834 1592 853.5 1576 c 128,-1,52
 873 1560 873 1560 873 1536 c 0,53,54
 873 1510 873 1510 852 1489 c 1,55,56
 852 1330 852 1330 828 1129 c 128,-1,57
 804 928 804 928 774.5 766.5 c 128,-1,58
 745 605 745 605 721 404 c 128,-1,59
 697 203 697 203 697 43 c 0,0,1
EndSplineSet
EndChar

StartChar: X
Encoding: 88 88 59
Width: 520
GlyphClass: 2
Flags: W
LayerCount: 2
UndoRedoHistory
Layer: 1
Undoes
EndUndoes
Redoes
EndRedoes
EndUndoRedoHistory
Fore
SplineSet
276 1087 m 1,0,1
 279 1097 279 1097 301.5 1229 c 128,-1,2
 324 1361 324 1361 353.5 1455.5 c 128,-1,3
 383 1550 383 1550 418 1550 c 0,4,5
 441 1550 441 1550 460 1538 c 128,-1,6
 479 1526 479 1526 479 1505 c 0,7,8
 479 1455 479 1455 402.5 1160.5 c 128,-1,9
 326 866 326 866 326 796 c 0,10,11
 326 787 326 787 335.5 734 c 128,-1,12
 345 681 345 681 360 606 c 128,-1,13
 375 531 375 531 389.5 459.5 c 128,-1,14
 404 388 404 388 417 324 c 128,-1,15
 430 260 430 260 432 248 c 1,16,-1
 432 236 l 1,17,18
 434 211 434 211 450 160 c 128,-1,19
 466 109 466 109 466 80 c 0,20,21
 466 58 466 58 449 41 c 128,-1,22
 432 24 432 24 410 24 c 0,23,24
 384 24 384 24 367 36 c 128,-1,25
 350 48 350 48 350 73 c 0,26,27
 350 129 350 129 341 195.5 c 128,-1,28
 332 262 332 262 323 303.5 c 128,-1,29
 314 345 314 345 293.5 427.5 c 128,-1,30
 273 510 273 510 267 538 c 1,31,32
 262 517 262 517 250 444 c 128,-1,33
 238 371 238 371 224.5 299.5 c 128,-1,34
 211 228 211 228 192.5 153.5 c 128,-1,35
 174 79 174 79 148 33 c 128,-1,36
 122 -13 122 -13 93 -13 c 0,37,38
 73 -13 73 -13 55.5 0 c 128,-1,39
 38 13 38 13 38 33 c 0,40,41
 38 111 38 111 81 263 c 128,-1,42
 124 415 124 415 167 572.5 c 128,-1,43
 210 730 210 730 210 819 c 0,44,45
 210 894 210 894 189.5 986.5 c 128,-1,46
 169 1079 169 1079 144.5 1151.5 c 128,-1,47
 120 1224 120 1224 99.5 1313.5 c 128,-1,48
 79 1403 79 1403 79 1473 c 2,49,-1
 79 1478 l 1,50,51
 98 1520 98 1520 135 1520 c 0,52,53
 157 1520 157 1520 177.5 1485 c 128,-1,54
 198 1450 198 1450 214 1390.5 c 128,-1,55
 230 1331 230 1331 241 1278.5 c 128,-1,56
 252 1226 252 1226 262.5 1163 c 128,-1,57
 273 1100 273 1100 276 1087 c 1,0,1
EndSplineSet
EndChar

StartChar: Y
Encoding: 89 89 60
Width: 453
GlyphClass: 2
Flags: W
LayerCount: 2
UndoRedoHistory
Layer: 1
Undoes
EndUndoes
Redoes
EndRedoes
EndUndoRedoHistory
Fore
SplineSet
240 1006 m 1,0,1
 244 1024 244 1024 249.5 1091.5 c 128,-1,2
 255 1159 255 1159 262.5 1230 c 128,-1,3
 270 1301 270 1301 282 1373.5 c 128,-1,4
 294 1446 294 1446 315 1492.5 c 128,-1,5
 336 1539 336 1539 364 1539 c 0,6,7
 418 1539 418 1539 418 1517 c 0,8,9
 418 1402 418 1402 369 1174 c 128,-1,10
 320 946 320 946 320 828 c 0,11,12
 320 817 320 817 316.5 793.5 c 128,-1,13
 313 770 313 770 314 757 c 1,14,-1
 314 726 l 2,15,16
 314 635 314 635 319.5 454.5 c 128,-1,17
 325 274 325 274 325 183 c 0,18,19
 325 167 325 167 329 133 c 128,-1,20
 333 99 333 99 332 81 c 1,21,-1
 332 35 l 2,22,23
 332 8 332 8 311.5 -8.5 c 128,-1,24
 291 -25 291 -25 264 -25 c 0,25,26
 243 -25 243 -25 227.5 -10.5 c 128,-1,27
 212 4 212 4 212 25 c 0,28,29
 212 91 212 91 217 223 c 128,-1,30
 222 355 222 355 222 421 c 0,31,32
 222 481 222 481 202.5 598.5 c 128,-1,33
 183 716 183 716 183 776 c 0,34,35
 183 859 183 859 158.5 961.5 c 128,-1,36
 134 1064 134 1064 104 1145.5 c 128,-1,37
 74 1227 74 1227 49.5 1329 c 128,-1,38
 25 1431 25 1431 25 1513 c 0,39,40
 25 1528 25 1528 42.5 1538.5 c 128,-1,41
 60 1549 60 1549 77 1549 c 0,42,43
 98 1549 98 1549 119.5 1502 c 128,-1,44
 141 1455 141 1455 159 1382 c 128,-1,45
 177 1309 177 1309 192.5 1236 c 128,-1,46
 208 1163 208 1163 221 1094.5 c 128,-1,47
 234 1026 234 1026 240 1006 c 1,0,1
EndSplineSet
EndChar

StartChar: Z
Encoding: 90 90 61
Width: 429
GlyphClass: 2
Flags: W
LayerCount: 2
UndoRedoHistory
Layer: 1
Undoes
EndUndoes
Redoes
EndRedoes
EndUndoRedoHistory
Fore
SplineSet
161 85 m 1,0,1
 166 85 166 85 205 89 c 128,-1,2
 244 93 244 93 269 93 c 0,3,4
 377 93 377 93 377 30 c 2,5,-1
 377 21 l 1,6,-1
 345 -11 l 1,7,8
 303 -11 303 -11 218.5 -15 c 128,-1,9
 134 -19 134 -19 92 -19 c 0,10,11
 53 -19 53 -19 34 31 c 1,12,13
 81 106 81 106 139.5 420.5 c 128,-1,14
 198 735 198 735 235.5 1028 c 128,-1,15
 273 1321 273 1321 281 1451 c 1,16,17
 274 1450 274 1450 252 1447.5 c 128,-1,18
 230 1445 230 1445 207 1443 c 128,-1,19
 184 1441 184 1441 164 1441 c 0,20,21
 53 1441 53 1441 53 1506 c 2,22,-1
 53 1515 l 1,23,-1
 81 1549 l 1,24,-1
 81 1550 l 1,25,26
 108 1543 108 1543 139 1543 c 0,27,28
 171 1543 171 1543 235.5 1553.5 c 128,-1,29
 300 1564 300 1564 332 1564 c 0,30,31
 356 1564 356 1564 372 1546.5 c 128,-1,32
 388 1529 388 1529 388 1505 c 0,33,34
 388 969 388 969 161 85 c 1,0,1
EndSplineSet
EndChar

StartChar: bracketleft
Encoding: 91 91 62
Width: 467
GlyphClass: 2
Flags: W
LayerCount: 2
UndoRedoHistory
Layer: 1
Undoes
EndUndoes
Redoes
EndRedoes
EndUndoRedoHistory
Fore
SplineSet
152 48 m 2,0,-1
 152 6 l 1,1,2
 173 6 l 0,3,4
 355 6 355 6 355 -68 c 0,5,6
 355 -92 355 -92 335 -102 c 128,-1,7
 315 -112 315 -112 289 -112 c 0,8,9
 259 -112 259 -112 227 -110 c 128,-1,10
 195 -108 195 -108 148 -101.5 c 128,-1,11
 101 -95 101 -95 71.5 -77.5 c 128,-1,12
 42 -60 42 -60 42 -35 c 0,13,14
 42 49 42 49 63.5 217.5 c 128,-1,15
 85 386 85 386 85 470 c 0,16,17
 85 639 85 639 111.5 975 c 128,-1,18
 138 1311 138 1311 138 1480 c 0,19,20
 138 1488 138 1488 137 1501 c 128,-1,21
 136 1514 136 1514 136 1519 c 0,22,23
 136 1542 136 1542 144 1554.5 c 128,-1,24
 152 1567 152 1567 177 1577 c 1,25,-1
 255 1577 l 2,26,27
 278 1577 278 1577 303 1575 c 128,-1,28
 328 1573 328 1573 362.5 1567 c 128,-1,29
 397 1561 397 1561 419 1546.5 c 128,-1,30
 441 1532 441 1532 441 1511 c 128,-1,31
 441 1490 441 1490 423.5 1477.5 c 128,-1,32
 406 1465 406 1465 385 1465 c 0,33,34
 366 1465 366 1465 328 1471.5 c 128,-1,35
 290 1478 290 1478 270 1478 c 0,36,37
 232 1478 232 1478 232 1458 c 0,38,39
 232 1220 232 1220 192 746.5 c 128,-1,40
 152 273 152 273 152 48 c 2,0,-1
EndSplineSet
EndChar

StartChar: backslash
Encoding: 92 92 63
Width: 511
GlyphClass: 2
Flags: W
LayerCount: 2
UndoRedoHistory
Layer: 1
Undoes
EndUndoes
Redoes
EndRedoes
EndUndoRedoHistory
Fore
SplineSet
477 31 m 0,0,1
 477 -2 477 -2 431 -30 c 1,2,-1
 431 -31 l 1,3,4
 397 -31 397 -31 352 89 c 128,-1,5
 307 209 307 209 263.5 397.5 c 128,-1,6
 220 586 220 586 184 763.5 c 128,-1,7
 148 941 148 941 116 1112 c 128,-1,8
 84 1283 84 1283 78 1312 c 0,9,10
 73 1333 73 1333 61.5 1372 c 128,-1,11
 50 1411 50 1411 43 1443.5 c 128,-1,12
 36 1476 36 1476 36 1505 c 0,13,14
 36 1527 36 1527 52.5 1541 c 128,-1,15
 69 1555 69 1555 91 1555 c 0,16,17
 132 1555 132 1555 201 1331 c 128,-1,18
 270 1107 270 1107 329.5 828.5 c 128,-1,19
 389 550 389 550 433 310.5 c 128,-1,20
 477 71 477 71 477 31 c 0,0,1
EndSplineSet
EndChar

StartChar: bracketright
Encoding: 93 93 64
Width: 472
GlyphClass: 2
Flags: W
LayerCount: 2
UndoRedoHistory
Layer: 1
Undoes
EndUndoes
Redoes
EndRedoes
EndUndoRedoHistory
Fore
SplineSet
185 -112 m 0,0,1
 118 -112 118 -112 118 -68 c 0,2,3
 118 -55 118 -55 123 -44.5 c 128,-1,4
 128 -34 128 -34 138 -27 c 128,-1,5
 148 -20 148 -20 158.5 -14 c 128,-1,6
 169 -8 169 -8 186 -5 c 128,-1,7
 203 -2 203 -2 214.5 0.5 c 128,-1,8
 226 3 226 3 245.5 4 c 128,-1,9
 265 5 265 5 274 5.5 c 128,-1,10
 283 6 283 6 300.5 6 c 128,-1,11
 318 6 318 6 321 6 c 1,12,-1
 321 48 l 1,13,14
 315 252 315 252 277.5 726.5 c 128,-1,15
 240 1201 240 1201 240 1458 c 2,16,-1
 240 1476 l 1,17,18
 219 1476 219 1476 174.5 1470.5 c 128,-1,19
 130 1465 130 1465 106 1465 c 0,20,21
 32 1465 32 1465 32 1511 c 0,22,23
 32 1529 32 1529 48.5 1542 c 128,-1,24
 65 1555 65 1555 87 1561.5 c 128,-1,25
 109 1568 109 1568 139 1571.5 c 128,-1,26
 169 1575 169 1575 188 1576 c 128,-1,27
 207 1577 207 1577 225 1577 c 0,28,29
 234 1577 234 1577 248 1577.5 c 128,-1,30
 262 1578 262 1578 267 1578 c 0,31,32
 307 1578 307 1578 321.5 1560.5 c 128,-1,33
 336 1543 336 1543 336 1481 c 0,34,35
 336 1318 336 1318 364 995 c 128,-1,36
 392 672 392 672 392 510 c 0,37,38
 392 418 392 418 412.5 237 c 128,-1,39
 433 56 433 56 433 -35 c 0,40,41
 433 -60 433 -60 403.5 -77.5 c 128,-1,42
 374 -95 374 -95 326.5 -101.5 c 128,-1,43
 279 -108 279 -108 247 -110 c 128,-1,44
 215 -112 215 -112 185 -112 c 0,0,1
EndSplineSet
EndChar

StartChar: asciicircum
Encoding: 94 94 65
Width: 280
GlyphClass: 2
Flags: W
LayerCount: 2
UndoRedoHistory
Layer: 1
Undoes
EndUndoes
Redoes
EndRedoes
EndUndoRedoHistory
Fore
SplineSet
73 1575 m 0,0,1
 73 1606 73 1606 89.5 1631 c 128,-1,2
 106 1656 106 1656 136 1656 c 128,-1,3
 166 1656 166 1656 188 1634.5 c 128,-1,4
 210 1613 210 1613 210 1583 c 0,5,6
 210 1555 210 1555 192 1535 c 128,-1,7
 174 1515 174 1515 146 1515 c 0,8,9
 116 1515 116 1515 94.5 1530.5 c 128,-1,10
 73 1546 73 1546 73 1575 c 0,0,1
EndSplineSet
EndChar

StartChar: underscore
Encoding: 95 95 66
Width: 844
GlyphClass: 2
Flags: W
LayerCount: 2
UndoRedoHistory
Layer: 1
Undoes
EndUndoes
Redoes
EndRedoes
EndUndoRedoHistory
Fore
SplineSet
800 2 m 0,0,1
 825 2 825 2 837.5 -9 c 128,-1,2
 850 -20 850 -20 850 -36 c 0,3,4
 850 -53 850 -53 834 -67.5 c 128,-1,5
 818 -82 818 -82 794 -82 c 0,6,7
 733 -82 733 -82 705 -84 c 1,8,9
 600 -84 600 -84 389 -89 c 128,-1,10
 178 -94 178 -94 73 -94 c 0,11,12
 41 -94 41 -94 17.5 -80 c 128,-1,13
 -6 -66 -6 -66 -6 -50 c 0,14,15
 -6 -29 -6 -29 8.5 -14.5 c 128,-1,16
 23 0 23 0 44 0 c 2,17,-1
 703 0 l 2,18,19
 719 0 719 0 751.5 1 c 128,-1,20
 784 2 784 2 800 2 c 0,0,1
EndSplineSet
EndChar

StartChar: grave
Encoding: 96 96 67
Width: 506
GlyphClass: 2
Flags: W
LayerCount: 2
UndoRedoHistory
Layer: 1
Undoes
EndUndoes
Redoes
EndRedoes
EndUndoRedoHistory
Fore
SplineSet
116 1752 m 0,0,1
 135 1752 135 1752 288 1668 c 128,-1,2
 441 1584 441 1584 441 1557 c 0,3,4
 441 1543 441 1543 426 1543 c 0,5,6
 392 1543 392 1543 220 1598.5 c 128,-1,7
 48 1654 48 1654 48 1672 c 0,8,9
 48 1695 48 1695 69.5 1723.5 c 128,-1,10
 91 1752 91 1752 116 1752 c 0,0,1
EndSplineSet
EndChar

StartChar: a
Encoding: 97 97 68
Width: 621
GlyphClass: 2
Flags: W
LayerCount: 2
UndoRedoHistory
Layer: 1
Undoes
EndUndoes
Redoes
EndRedoes
EndUndoRedoHistory
Fore
SplineSet
411 375 m 1,0,1
 405 405 405 405 405 451 c 0,2,3
 405 554 405 554 396.5 664.5 c 128,-1,4
 388 775 388 775 372 921.5 c 128,-1,5
 356 1068 356 1068 350 1134 c 1,6,7
 257 619 257 619 230 408 c 1,8,9
 265 385 265 385 411 375 c 1,0,1
424 302 m 1,10,-1
 222 332 l 1,11,12
 211 292 211 292 202 237 c 128,-1,13
 193 182 193 182 188 142 c 128,-1,14
 183 102 183 102 174 65 c 128,-1,15
 165 28 165 28 149 8.5 c 128,-1,16
 133 -11 133 -11 107 -11 c 0,17,18
 83 -11 83 -11 62.5 4.5 c 128,-1,19
 42 20 42 20 42 44 c 0,20,21
 42 47 42 47 44.5 53.5 c 128,-1,22
 47 60 47 60 47 62 c 0,23,24
 185 595 185 595 252 1100 c 0,25,26
 254 1115 254 1115 258.5 1182.5 c 128,-1,27
 263 1250 263 1250 271 1299 c 128,-1,28
 279 1348 279 1348 296 1373 c 1,29,-1
 365 1373 l 2,30,31
 393 1373 393 1373 414 1360 c 128,-1,32
 435 1347 435 1347 435 1321 c 0,33,34
 435 1165 435 1165 476.5 858 c 128,-1,35
 518 551 518 551 518 416 c 0,36,37
 518 396 518 396 529 353 c 128,-1,38
 540 310 540 310 540 290 c 0,39,40
 540 265 540 265 559.5 168 c 128,-1,41
 579 71 579 71 579 41 c 2,42,-1
 579 39 l 2,43,44
 579 -6 579 -6 545 -19 c 1,45,46
 502 -19 502 -19 478 -5 c 128,-1,47
 454 9 454 9 454 49 c 0,48,49
 454 88 454 88 446.5 151 c 128,-1,50
 439 214 439 214 432 258 c 2,51,-1
 424 302 l 1,10,-1
EndSplineSet
EndChar

StartChar: b
Encoding: 98 98 69
Width: 491
GlyphClass: 2
Flags: W
LayerCount: 2
UndoRedoHistory
Layer: 1
Undoes
EndUndoes
Redoes
EndRedoes
EndUndoRedoHistory
Fore
SplineSet
194 1068 m 2,0,-1
 194 763 l 1,1,2
 302 766 302 766 302 1012 c 0,3,4
 302 1278 302 1278 218 1288 c 1,5,6
 194 1236 194 1236 194 1068 c 2,0,-1
188 333 m 0,7,8
 188 304 188 304 184.5 255.5 c 128,-1,9
 181 207 181 207 181 186 c 0,10,11
 181 184 181 184 182 181 c 128,-1,12
 183 178 183 178 183 176 c 2,13,-1
 183 84 l 1,14,15
 252 100 252 100 286.5 165.5 c 128,-1,16
 321 231 321 231 321 308 c 0,17,18
 321 344 321 344 319.5 377 c 128,-1,19
 318 410 318 410 310.5 458 c 128,-1,20
 303 506 303 506 290.5 542 c 128,-1,21
 278 578 278 578 254 607 c 128,-1,22
 230 636 230 636 197 643 c 1,23,24
 188 511 188 511 188 333 c 0,7,8
336 705 m 1,25,26
 395 648 395 648 413 561.5 c 128,-1,27
 431 475 431 475 431 360 c 0,28,29
 431 300 431 300 421 246 c 128,-1,30
 411 192 411 192 388 143 c 128,-1,31
 365 94 365 94 330.5 58 c 128,-1,32
 296 22 296 22 244.5 1 c 128,-1,33
 193 -20 193 -20 129 -20 c 0,34,35
 107 -20 107 -20 93 -10.5 c 128,-1,36
 79 -1 79 -1 73.5 17.5 c 128,-1,37
 68 36 68 36 66.5 50.5 c 128,-1,38
 65 65 65 65 65 88 c 0,39,40
 65 161 65 161 75 306 c 128,-1,41
 85 451 85 451 85 524 c 0,42,43
 85 632 85 632 89.5 848.5 c 128,-1,44
 94 1065 94 1065 94 1173 c 0,45,46
 94 1192 94 1192 89 1228 c 128,-1,47
 84 1264 84 1264 83 1279 c 1,48,-1
 83 1290 l 2,49,50
 83 1333 83 1333 96.5 1358 c 128,-1,51
 110 1383 110 1383 150 1383 c 0,52,53
 221 1383 221 1383 274 1354 c 128,-1,54
 327 1325 327 1325 358 1274 c 128,-1,55
 389 1223 389 1223 404 1161.5 c 128,-1,56
 419 1100 419 1100 419 1028 c 0,57,58
 419 918 419 918 400 843.5 c 128,-1,59
 381 769 381 769 336 705 c 1,25,26
EndSplineSet
EndChar

StartChar: c
Encoding: 99 99 70
Width: 505
GlyphClass: 2
Flags: W
LayerCount: 2
UndoRedoHistory
Layer: 1
Undoes
EndUndoes
Redoes
EndRedoes
EndUndoRedoHistory
Fore
SplineSet
396 1364 m 0,0,1
 428 1364 428 1364 443.5 1349 c 128,-1,2
 459 1334 459 1334 459 1312 c 0,3,4
 459 1292 459 1292 446.5 1275.5 c 128,-1,5
 434 1259 434 1259 415 1258 c 1,6,-1
 319 1258 l 2,7,8
 277 1258 277 1258 246.5 1204.5 c 128,-1,9
 216 1151 216 1151 202.5 1072.5 c 128,-1,10
 189 994 189 994 183 932.5 c 128,-1,11
 177 871 177 871 177 827 c 2,12,-1
 177 817 l 2,13,14
 177 751 177 751 172.5 619.5 c 128,-1,15
 168 488 168 488 168 422 c 0,16,17
 168 387 168 387 169 359.5 c 128,-1,18
 170 332 170 332 174.5 295 c 128,-1,19
 179 258 179 258 187 229.5 c 128,-1,20
 195 201 195 201 209.5 171.5 c 128,-1,21
 224 142 224 142 244 123 c 128,-1,22
 264 104 264 104 294 91.5 c 128,-1,23
 324 79 324 79 362 79 c 0,24,25
 386 79 386 79 406 97 c 1,26,27
 430 97 430 97 449 86 c 128,-1,28
 468 75 468 75 468 52 c 0,29,30
 468 -29 468 -29 355 -29 c 0,31,32
 309 -29 309 -29 258.5 -15.5 c 128,-1,33
 208 -2 208 -2 183 14 c 0,34,35
 47 102 47 102 47 495 c 0,36,37
 47 509 47 509 46.5 549.5 c 128,-1,38
 46 590 46 590 46 615 c 2,39,-1
 46 664 l 2,40,41
 46 756 46 756 47.5 812 c 128,-1,42
 49 868 49 868 56 950.5 c 128,-1,43
 63 1033 63 1033 76 1084 c 128,-1,44
 89 1135 89 1135 114.5 1194.5 c 128,-1,45
 140 1254 140 1254 176.5 1286.5 c 128,-1,46
 213 1319 213 1319 269 1341.5 c 128,-1,47
 325 1364 325 1364 396 1364 c 0,0,1
EndSplineSet
EndChar

StartChar: d
Encoding: 100 100 71
Width: 610
GlyphClass: 2
Flags: W
LayerCount: 2
UndoRedoHistory
Layer: 1
Undoes
EndUndoes
Redoes
EndRedoes
EndUndoRedoHistory
Fore
SplineSet
55 1286 m 0,0,1
 55 1312 55 1312 78 1332.5 c 128,-1,2
 101 1353 101 1353 127 1353 c 0,3,4
 199 1353 199 1353 266 1320 c 128,-1,5
 333 1287 333 1287 383 1231.5 c 128,-1,6
 433 1176 433 1176 470.5 1106 c 128,-1,7
 508 1036 508 1036 527 959 c 128,-1,8
 546 882 546 882 546 808 c 0,9,10
 546 794 546 794 544 759 c 128,-1,11
 542 724 542 724 542 705 c 2,12,-1
 542 592 l 2,13,14
 542 529 542 529 540.5 485 c 128,-1,15
 539 441 539 441 533 385.5 c 128,-1,16
 527 330 527 330 516 289 c 128,-1,17
 505 248 505 248 485 202 c 128,-1,18
 465 156 465 156 437 120.5 c 128,-1,19
 409 85 409 85 367.5 50 c 128,-1,20
 326 15 326 15 273 -12 c 1,21,-1
 125 -12 l 2,22,23
 73 -12 73 -12 73 256 c 0,24,25
 73 364 73 364 76 579 c 128,-1,26
 79 794 79 794 79 901 c 0,27,28
 79 967 79 967 67 1102.5 c 128,-1,29
 55 1238 55 1238 55 1286 c 0,0,1
216 141 m 2,30,-1
 216 92 l 1,31,32
 258 92 258 92 292.5 114.5 c 128,-1,33
 327 137 327 137 349.5 171.5 c 128,-1,34
 372 206 372 206 389 255.5 c 128,-1,35
 406 305 406 305 415 351.5 c 128,-1,36
 424 398 424 398 429.5 451.5 c 128,-1,37
 435 505 435 505 436.5 541 c 128,-1,38
 438 577 438 577 438 612 c 0,39,40
 438 1230 438 1230 200 1258 c 1,41,42
 185 1177 185 1177 185 1045 c 0,43,44
 185 894 185 894 200.5 593 c 128,-1,45
 216 292 216 292 216 141 c 2,30,-1
EndSplineSet
EndChar

StartChar: e
Encoding: 101 101 72
Width: 455
GlyphClass: 2
Flags: W
LayerCount: 2
UndoRedoHistory
Layer: 1
Undoes
EndUndoes
Redoes
EndRedoes
EndUndoRedoHistory
Fore
SplineSet
406 1261 m 0,0,1
 406 1239 406 1239 388 1222.5 c 128,-1,2
 370 1206 370 1206 346 1197 c 1,3,4
 251 1229 251 1229 191 1236 c 1,5,6
 194 1192 194 1192 194 1148 c 0,7,8
 194 1099 194 1099 189.5 1001 c 128,-1,9
 185 903 185 903 185 854 c 0,10,11
 185 852 185 852 191 822 c 1,12,13
 198 822 198 822 223.5 823.5 c 128,-1,14
 249 825 249 825 264 825 c 0,15,16
 363 825 363 825 363 769 c 0,17,18
 363 747 363 747 345 730.5 c 128,-1,19
 327 714 327 714 298 714 c 0,20,21
 272 714 272 714 240 718 c 1,22,-1
 188 718 l 1,23,24
 194 640 194 640 194 563 c 0,25,26
 194 502 194 502 189.5 378 c 128,-1,27
 185 254 185 254 185 192 c 0,28,29
 185 77 185 77 189 77 c 0,30,31
 203 77 203 77 255.5 79.5 c 128,-1,32
 308 82 308 82 340 82 c 0,33,34
 418 82 418 82 418 32 c 0,35,36
 418 1 418 1 391 -13 c 128,-1,37
 364 -27 364 -27 330 -27 c 2,38,-1
 157 -27 l 2,39,40
 130 -27 130 -27 108 -8.5 c 128,-1,41
 86 10 86 10 85 36 c 1,42,-1
 85 90 l 2,43,44
 85 103 85 103 83.5 131 c 128,-1,45
 82 159 82 159 82 174 c 0,46,47
 82 217 82 217 77 304.5 c 128,-1,48
 72 392 72 392 72 436 c 0,49,50
 72 536 72 536 79 735 c 128,-1,51
 86 934 86 934 86 1034 c 0,52,53
 86 1063 86 1063 80.5 1120.5 c 128,-1,54
 75 1178 75 1178 75 1207 c 0,55,56
 75 1352 75 1352 161 1352 c 0,57,58
 216 1352 216 1352 311 1326.5 c 128,-1,59
 406 1301 406 1301 406 1261 c 0,0,1
EndSplineSet
EndChar

StartChar: f
Encoding: 102 102 73
Width: 483
GlyphClass: 2
Flags: W
LayerCount: 2
UndoRedoHistory
Layer: 1
Undoes
EndUndoes
Redoes
EndRedoes
EndUndoRedoHistory
Fore
SplineSet
201 753 m 1,0,1
 205 753 205 753 218 753.5 c 128,-1,2
 231 754 231 754 239 754 c 0,3,4
 338 754 338 754 338 700 c 0,5,6
 338 673 338 673 316 656.5 c 128,-1,7
 294 640 294 640 266 640 c 0,8,9
 223 640 223 640 185 652 c 1,10,-1
 185 72 l 2,11,12
 185 -18 185 -18 132 -18 c 0,13,14
 100 -18 100 -18 59 13 c 1,15,16
 76 196 76 196 84.5 533.5 c 128,-1,17
 93 871 93 871 99 975 c 1,18,-1
 99 1025 l 1,19,20
 107 1174 107 1174 107 1303 c 0,21,22
 107 1332 107 1332 131.5 1348 c 128,-1,23
 156 1364 156 1364 186 1364 c 0,24,25
 217 1364 217 1364 252.5 1361.5 c 128,-1,26
 288 1359 288 1359 339 1351.5 c 128,-1,27
 390 1344 390 1344 422.5 1326 c 128,-1,28
 455 1308 455 1308 455 1281 c 0,29,30
 455 1223 455 1223 351 1223 c 1,31,32
 310 1243 310 1243 244 1243 c 2,33,-1
 220 1243 l 1,34,-1
 220 1219 l 2,35,36
 220 1153 220 1153 210.5 1015.5 c 128,-1,37
 201 878 201 878 201 808 c 2,38,-1
 201 753 l 1,0,1
EndSplineSet
EndChar

StartChar: g
Encoding: 103 103 74
Width: 638
GlyphClass: 2
Flags: W
LayerCount: 2
UndoRedoHistory
Layer: 1
Undoes
EndUndoes
Redoes
EndRedoes
EndUndoRedoHistory
Fore
SplineSet
338 -16 m 0,0,1
 291 -16 291 -16 251.5 -2 c 128,-1,2
 212 12 212 12 183.5 32.5 c 128,-1,3
 155 53 155 53 132.5 90 c 128,-1,4
 110 127 110 127 96 159 c 128,-1,5
 82 191 82 191 72 244.5 c 128,-1,6
 62 298 62 298 57 334 c 128,-1,7
 52 370 52 370 49.5 431 c 128,-1,8
 47 492 47 492 46.5 524 c 128,-1,9
 46 556 46 556 46 617 c 0,10,11
 46 620 46 620 46 622 c 0,12,13
 46 865 46 865 57 966 c 0,14,15
 95 1302 95 1302 284 1347 c 0,16,17
 314 1354 314 1354 348 1354 c 0,18,19
 435 1354 435 1354 435 1302 c 0,20,21
 435 1278 435 1278 415 1262.5 c 128,-1,22
 395 1247 395 1247 370 1247 c 0,23,24
 362 1247 362 1247 348 1249.5 c 128,-1,25
 334 1252 334 1252 327 1252 c 0,26,27
 292 1252 292 1252 264 1214 c 128,-1,28
 236 1176 236 1176 219.5 1112 c 128,-1,29
 203 1048 203 1048 192 980 c 128,-1,30
 181 912 181 912 176 835 c 128,-1,31
 171 758 171 758 169.5 712 c 128,-1,32
 168 666 168 666 168 629 c 0,33,34
 168 576 168 576 169 537 c 128,-1,35
 170 498 170 498 174 438 c 128,-1,36
 178 378 178 378 185.5 334.5 c 128,-1,37
 193 291 193 291 207.5 242 c 128,-1,38
 222 193 222 193 242 162.5 c 128,-1,39
 262 132 262 132 293 111.5 c 128,-1,40
 324 91 324 91 363 91 c 0,41,42
 462 91 462 91 462 417 c 2,43,-1
 462 450 l 1,44,-1
 462 511 l 1,45,46
 447 519 447 519 414 519 c 0,47,48
 409 519 409 519 395.5 518.5 c 128,-1,49
 382 518 382 518 374 518 c 0,50,51
 303 518 303 518 303 565 c 0,52,53
 303 594 303 594 323.5 609 c 128,-1,54
 344 624 344 624 373 624 c 1,55,-1
 373 623 l 1,56,-1
 401 623 l 2,57,58
 585 623 585 623 585 560 c 0,59,60
 585 534 585 534 574 485 c 128,-1,61
 563 436 563 436 563 411 c 0,62,63
 563 376 563 376 568 303 c 128,-1,64
 573 230 573 230 573 194 c 0,65,66
 573 93 573 93 502.5 38.5 c 128,-1,67
 432 -16 432 -16 338 -16 c 0,0,1
EndSplineSet
EndChar

StartChar: h
Encoding: 104 104 75
Width: 571
GlyphClass: 2
Flags: W
LayerCount: 2
UndoRedoHistory
Layer: 1
Undoes
EndUndoes
Redoes
EndRedoes
EndUndoRedoHistory
Fore
SplineSet
367 548 m 2,0,-1
 367 556 l 2,1,2
 367 563 367 563 368 575 c 128,-1,3
 369 587 369 587 369.5 596.5 c 128,-1,4
 370 606 370 606 370 615 c 0,5,6
 370 618 370 618 364 624.5 c 128,-1,7
 358 631 358 631 358 634 c 2,8,-1
 358 636 l 1,9,10
 341 632 341 632 321 632 c 0,11,12
 298 632 298 632 254.5 641 c 128,-1,13
 211 650 211 650 189 651 c 1,14,15
 189 618 189 618 189 580 c 128,-1,16
 189 542 189 542 189 496 c 128,-1,17
 189 450 189 450 189 425 c 2,18,-1
 189 416 l 2,19,20
 189 360 189 360 195 247.5 c 128,-1,21
 201 135 201 135 201 79 c 0,22,23
 201 50 201 50 186 27.5 c 128,-1,24
 171 5 171 5 143 5 c 0,25,26
 102 5 102 5 86.5 79.5 c 128,-1,27
 71 154 71 154 71 283 c 0,28,29
 71 340 71 340 74 447.5 c 128,-1,30
 77 555 77 555 77 595 c 0,31,32
 77 692 77 692 74 702 c 1,33,-1
 74 712 l 1,34,35
 82 819 82 819 82 832 c 0,36,37
 82 909 82 909 75 1063 c 128,-1,38
 68 1217 68 1217 68 1294 c 0,39,40
 68 1318 68 1318 85 1336.5 c 128,-1,41
 102 1355 102 1355 126 1355 c 0,42,43
 191 1355 191 1355 191 1233 c 0,44,45
 191 1148 191 1148 187 977.5 c 128,-1,46
 183 807 183 807 183 722 c 1,47,48
 220 712 220 712 295 712 c 2,49,-1
 369 712 l 1,50,51
 374 721 374 721 374 738 c 0,52,53
 374 835 374 835 360.5 1028.5 c 128,-1,54
 347 1222 347 1222 347 1320 c 0,55,56
 347 1343 347 1343 365 1358.5 c 128,-1,57
 383 1374 383 1374 406 1374 c 0,58,59
 415 1374 415 1374 425 1371 c 128,-1,60
 435 1368 435 1368 447 1363 c 128,-1,61
 459 1358 459 1358 466 1356 c 1,62,63
 466 1090 466 1090 485.5 578.5 c 128,-1,64
 505 67 505 67 505 62 c 0,65,66
 505 33 505 33 483.5 16.5 c 128,-1,67
 462 0 462 0 434 0 c 0,68,69
 409 0 409 0 393 39 c 128,-1,70
 377 78 377 78 371.5 154.5 c 128,-1,71
 366 231 366 231 364.5 287 c 128,-1,72
 363 343 363 343 365 438 c 128,-1,73
 367 533 367 533 367 548 c 2,0,-1
EndSplineSet
EndChar

StartChar: i
Encoding: 105 105 76
Width: 499
GlyphClass: 2
Flags: W
LayerCount: 2
UndoRedoHistory
Layer: 1
Undoes
EndUndoes
Redoes
EndRedoes
EndUndoRedoHistory
Fore
SplineSet
296 185 m 2,0,1
 296 175 296 175 295.5 155.5 c 128,-1,2
 295 136 295 136 295 128 c 1,3,-1
 322 128 l 2,4,5
 328 128 328 128 348 129 c 128,-1,6
 368 130 368 130 381 130 c 0,7,8
 465 130 465 130 465 79 c 0,9,10
 465 53 465 53 444.5 34.5 c 128,-1,11
 424 16 424 16 397 16 c 2,12,-1
 307 16 l 2,13,14
 214 16 214 16 188 20 c 1,15,16
 172 18 172 18 163 18 c 0,17,18
 90 18 90 18 90 64 c 0,19,20
 90 83 90 83 102 100 c 128,-1,21
 114 117 114 117 126 118 c 1,22,-1
 184 118 l 1,23,24
 184 121 184 121 186 130.5 c 128,-1,25
 188 140 188 140 188 145 c 0,26,27
 188 218 188 218 181 363 c 128,-1,28
 174 508 174 508 174 580 c 0,29,30
 174 656 174 656 179.5 808 c 128,-1,31
 185 960 185 960 185 1036 c 0,32,33
 185 1153 185 1153 175 1256 c 1,34,-1
 136 1256 l 2,35,36
 129 1256 129 1256 113 1255 c 128,-1,37
 97 1254 97 1254 89 1254 c 0,38,39
 59 1254 59 1254 42 1265.5 c 128,-1,40
 25 1277 25 1277 25 1309 c 0,41,42
 25 1356 25 1356 126 1356 c 2,43,-1
 370 1356 l 2,44,45
 413 1356 413 1356 433 1343.5 c 128,-1,46
 453 1331 453 1331 453 1313 c 0,47,48
 453 1294 453 1294 435 1278 c 128,-1,49
 417 1262 417 1262 394 1262 c 2,50,-1
 289 1262 l 1,51,52
 297 1178 297 1178 297 1072 c 0,53,54
 297 1007 297 1007 291.5 876.5 c 128,-1,55
 286 746 286 746 286 681 c 0,56,57
 286 608 286 608 291 463 c 128,-1,58
 296 318 296 318 296 246 c 2,59,-1
 296 185 l 2,0,1
EndSplineSet
EndChar

StartChar: j
Encoding: 106 106 77
Width: 520
GlyphClass: 2
Flags: W
LayerCount: 2
UndoRedoHistory
Layer: 1
Undoes
EndUndoes
Redoes
EndRedoes
EndUndoRedoHistory
Fore
SplineSet
352 164 m 2,0,1
 352 134 352 134 350 107 c 128,-1,2
 348 80 348 80 340.5 42 c 128,-1,3
 333 4 333 4 320.5 -26.5 c 128,-1,4
 308 -57 308 -57 284.5 -89 c 128,-1,5
 261 -121 261 -121 229 -143 c 128,-1,6
 197 -165 197 -165 148.5 -179 c 128,-1,7
 100 -193 100 -193 41 -193 c 0,8,9
 17 -193 17 -193 17 -168 c 0,10,11
 17 -163 17 -163 18 -151.5 c 128,-1,12
 19 -140 19 -140 19 -134 c 0,13,14
 19 -123 19 -123 48 -113 c 128,-1,15
 77 -103 77 -103 118 -86.5 c 128,-1,16
 159 -70 159 -70 181 -46 c 0,17,18
 240 18 240 18 240 187 c 0,19,20
 240 362 240 362 228.5 710 c 128,-1,21
 217 1058 217 1058 217 1233 c 2,22,-1
 217 1242 l 1,23,24
 212 1242 212 1242 195 1243.5 c 128,-1,25
 178 1245 178 1245 167 1246 c 128,-1,26
 156 1247 156 1247 138 1249.5 c 128,-1,27
 120 1252 120 1252 108 1255.5 c 128,-1,28
 96 1259 96 1259 84 1264 c 128,-1,29
 72 1269 72 1269 66 1276 c 128,-1,30
 60 1283 60 1283 60 1292 c 0,31,32
 60 1312 60 1312 83 1325.5 c 128,-1,33
 106 1339 106 1339 127 1339 c 0,34,35
 209 1339 209 1339 350.5 1326.5 c 128,-1,36
 492 1314 492 1314 492 1293 c 0,37,38
 492 1271 492 1271 475.5 1258 c 128,-1,39
 459 1245 459 1245 436 1245 c 2,40,-1
 331 1245 l 1,41,42
 331 1104 331 1104 341.5 813.5 c 128,-1,43
 352 523 352 523 352 382 c 2,44,-1
 352 164 l 2,0,1
EndSplineSet
EndChar

StartChar: k
Encoding: 107 107 78
Width: 637
GlyphClass: 2
Flags: W
LayerCount: 2
UndoRedoHistory
Layer: 1
Undoes
EndUndoes
Redoes
EndRedoes
EndUndoRedoHistory
Fore
SplineSet
572 1289 m 0,0,1
 572 1287 572 1287 523 1207 c 128,-1,2
 474 1127 474 1127 419 1035.5 c 128,-1,3
 364 944 364 944 352 919 c 1,4,5
 352 898 352 898 350 858 c 128,-1,6
 348 818 348 818 348 797 c 0,7,8
 348 709 348 709 418.5 468 c 128,-1,9
 489 227 489 227 536 149 c 0,10,11
 542 140 542 140 562.5 112 c 128,-1,12
 583 84 583 84 592.5 63 c 128,-1,13
 602 42 602 42 602 19 c 128,-1,14
 602 -4 602 -4 584.5 -19.5 c 128,-1,15
 567 -35 567 -35 544 -35 c 0,16,17
 496 -35 496 -35 444 66.5 c 128,-1,18
 392 168 392 168 351.5 315 c 128,-1,19
 311 462 311 462 286.5 572.5 c 128,-1,20
 262 683 262 683 250 752 c 1,21,22
 176 605 176 605 176 396 c 2,23,-1
 176 17 l 2,24,25
 176 -31 176 -31 134 -31 c 0,26,27
 103 -31 103 -31 84.5 -13.5 c 128,-1,28
 66 4 66 4 66 34 c 2,29,-1
 66 656 l 2,30,31
 66 767 66 767 85.5 987.5 c 128,-1,32
 105 1208 105 1208 105 1318 c 1,33,34
 123 1357 123 1357 166 1357 c 0,35,36
 192 1357 192 1357 210.5 1338.5 c 128,-1,37
 229 1320 229 1320 229 1294 c 2,38,-1
 229 1288 l 1,39,40
 202 1241 202 1241 202 915 c 2,41,-1
 202 842 l 1,42,43
 205 847 205 847 277 992 c 128,-1,44
 349 1137 349 1137 409 1240.5 c 128,-1,45
 469 1344 469 1344 493 1344 c 0,46,47
 523 1344 523 1344 547.5 1330 c 128,-1,48
 572 1316 572 1316 572 1289 c 0,0,1
EndSplineSet
EndChar

StartChar: l
Encoding: 108 108 79
Width: 467
GlyphClass: 2
Flags: W
LayerCount: 2
UndoRedoHistory
Layer: 1
Undoes
EndUndoes
Redoes
EndRedoes
EndUndoRedoHistory
Fore
SplineSet
184 545 m 2,0,1
 184 490 184 490 180 383 c 128,-1,2
 176 276 176 276 176 219 c 0,3,4
 176 78 176 78 245 78 c 0,5,6
 253 78 253 78 282.5 79.5 c 128,-1,7
 312 81 312 81 330 81 c 0,8,9
 440 81 440 81 440 21 c 0,10,11
 440 -1 440 -1 421 -15.5 c 128,-1,12
 402 -30 402 -30 378 -33 c 1,13,14
 303 -9 303 -9 195 -9 c 1,15,16
 162 -28 162 -28 125 -28 c 0,17,18
 101 -28 101 -28 84 -7 c 128,-1,19
 67 14 67 14 67 39 c 0,20,21
 67 191 67 191 80 496.5 c 128,-1,22
 93 802 93 802 93 954 c 2,23,-1
 93 969 l 1,24,25
 81 1097 81 1097 81 1161 c 0,26,27
 81 1355 81 1355 152 1355 c 0,28,29
 173 1355 173 1355 188.5 1340 c 128,-1,30
 204 1325 204 1325 204 1304 c 0,31,32
 204 1278 204 1278 197 1226 c 128,-1,33
 190 1174 190 1174 190 1148 c 0,34,35
 190 1066 190 1066 193 902 c 128,-1,36
 196 738 196 738 196 656 c 1,37,38
 184 628 184 628 184 570 c 2,39,-1
 184 545 l 2,0,1
EndSplineSet
EndChar

StartChar: m
Encoding: 109 109 80
Width: 1013
GlyphClass: 2
Flags: W
LayerCount: 2
UndoRedoHistory
Layer: 1
Undoes
EndUndoes
Redoes
EndRedoes
EndUndoRedoHistory
Fore
SplineSet
795 806 m 0,0,1
 795 848 795 848 799 932.5 c 128,-1,2
 803 1017 803 1017 803 1059 c 1,3,4
 794 1032 794 1032 733.5 775.5 c 128,-1,5
 673 519 673 519 611.5 316.5 c 128,-1,6
 550 114 550 114 511 114 c 0,7,8
 471 114 471 114 448.5 138 c 128,-1,9
 426 162 426 162 426 202 c 0,10,11
 426 299 426 299 349.5 601.5 c 128,-1,12
 273 904 273 904 220 1065 c 1,13,14
 218 1028 218 1028 207.5 834 c 128,-1,15
 197 640 197 640 193.5 564.5 c 128,-1,16
 190 489 190 489 185.5 346.5 c 128,-1,17
 181 204 181 204 181 89 c 0,18,19
 181 79 181 79 182.5 58 c 128,-1,20
 184 37 184 37 184 28 c 0,21,22
 184 -5 184 -5 170 -22.5 c 128,-1,23
 156 -40 156 -40 116 -40 c 0,24,25
 96 -40 96 -40 77 -25.5 c 128,-1,26
 58 -11 58 -11 58 9 c 0,27,28
 58 218 58 218 89.5 635 c 128,-1,29
 121 1052 121 1052 121 1261 c 1,30,31
 109 1280 109 1280 109 1301 c 0,32,33
 109 1327 109 1327 134 1339 c 128,-1,34
 159 1351 159 1351 188 1351 c 0,35,36
 232 1351 232 1351 362 939.5 c 128,-1,37
 492 528 492 528 522 370 c 1,38,39
 531 400 531 400 559.5 521.5 c 128,-1,40
 588 643 588 643 620.5 774.5 c 128,-1,41
 653 906 653 906 690.5 1040.5 c 128,-1,42
 728 1175 728 1175 767 1261.5 c 128,-1,43
 806 1348 806 1348 836 1348 c 0,44,45
 863 1348 863 1348 887 1333 c 128,-1,46
 911 1318 911 1318 911 1292 c 0,47,48
 911 1144 911 1144 924 850 c 128,-1,49
 937 556 937 556 937 423 c 0,50,51
 937 387 937 387 934.5 315 c 128,-1,52
 932 243 932 243 932 207 c 2,53,-1
 932 206 l 2,54,55
 932 193 932 193 936 147 c 128,-1,56
 940 101 940 101 944 60 c 2,57,-1
 948 20 l 1,58,59
 957 -2 957 -2 957 -19 c 0,60,61
 957 -51 957 -51 938 -79 c 128,-1,62
 919 -107 919 -107 888 -107 c 0,63,64
 824 -107 824 -107 824 21 c 0,65,66
 824 64 824 64 824.5 152 c 128,-1,67
 825 240 825 240 825 283 c 0,68,69
 825 374 825 374 810 550 c 128,-1,70
 795 726 795 726 795 806 c 0,0,1
EndSplineSet
EndChar

StartChar: n
Encoding: 110 110 81
Width: 827
GlyphClass: 2
Flags: W
LayerCount: 2
UndoRedoHistory
Layer: 1
Undoes
EndUndoes
Redoes
EndRedoes
EndUndoRedoHistory
Fore
SplineSet
603 189 m 1,0,1
 644 618 644 618 644 1228 c 0,2,3
 644 1236 644 1236 642.5 1254.5 c 128,-1,4
 641 1273 641 1273 641 1283 c 0,5,6
 641 1344 641 1344 692 1344 c 0,7,8
 721 1344 721 1344 735.5 1320 c 128,-1,9
 750 1296 750 1296 750 1264 c 2,10,-1
 750 1109 l 1,11,12
 748 868 748 868 728.5 465.5 c 128,-1,13
 709 63 709 63 676 11 c 1,14,15
 620 -6 620 -6 604 -6 c 0,16,17
 577 -6 577 -6 565.5 8.5 c 128,-1,18
 554 23 554 23 547 53 c 128,-1,19
 540 83 540 83 535 93 c 0,20,21
 535 94 535 94 535.5 97 c 128,-1,22
 536 100 536 100 536 102 c 0,23,24
 536 178 536 178 389 585 c 128,-1,25
 242 992 242 992 176 1145 c 1,26,-1
 176 114 l 1,27,28
 178 110 178 110 184 100 c 128,-1,29
 190 90 190 90 193.5 82 c 128,-1,30
 197 74 197 74 197 66 c 0,31,32
 197 40 197 40 178.5 21 c 128,-1,33
 160 2 160 2 135 2 c 0,34,35
 68 2 68 2 68 127 c 0,36,37
 68 244 68 244 66 478 c 128,-1,38
 64 712 64 712 64 829 c 0,39,40
 64 892 64 892 70 1020 c 128,-1,41
 76 1148 76 1148 76 1211 c 0,42,43
 76 1306 76 1306 151 1362 c 1,44,-1
 151 1349 l 1,45,46
 159 1354 159 1354 166 1354 c 0,47,48
 214 1354 214 1354 286 1188.5 c 128,-1,49
 358 1023 358 1023 416 825 c 128,-1,50
 474 627 474 627 531.5 425.5 c 128,-1,51
 589 224 589 224 603 189 c 1,0,1
EndSplineSet
EndChar

StartChar: o
Encoding: 111 111 82
Width: 651
GlyphClass: 2
Flags: W
LayerCount: 2
UndoRedoHistory
Layer: 1
Undoes
EndUndoes
Redoes
EndRedoes
EndUndoRedoHistory
Fore
SplineSet
584 798 m 2,0,-1
 584 783 l 2,1,2
 584 744 584 744 586 666.5 c 128,-1,3
 588 589 588 589 588 551 c 0,4,5
 588 -38 588 -38 315 -38 c 0,6,7
 259 -38 259 -38 214.5 -4.5 c 128,-1,8
 170 29 170 29 142.5 87 c 128,-1,9
 115 145 115 145 96 212 c 128,-1,10
 77 279 77 279 67.5 359 c 128,-1,11
 58 439 58 439 54.5 501 c 128,-1,12
 51 563 51 563 51 626 c 0,13,14
 51 643 51 643 52 667 c 128,-1,15
 53 691 53 691 53 704 c 0,16,17
 53 714 53 714 50 714 c 1,18,-1
 50 751 l 2,19,20
 50 786 50 786 50.5 810.5 c 128,-1,21
 51 835 51 835 52.5 894 c 128,-1,22
 54 953 54 953 58 998 c 128,-1,23
 62 1043 62 1043 68.5 1104 c 128,-1,24
 75 1165 75 1165 87 1209 c 128,-1,25
 99 1253 99 1253 114.5 1294 c 128,-1,26
 130 1335 130 1335 153 1356.5 c 128,-1,27
 176 1378 176 1378 204 1378 c 0,28,29
 288 1378 288 1378 353.5 1347.5 c 128,-1,30
 419 1317 419 1317 461.5 1265 c 128,-1,31
 504 1213 504 1213 532 1138.5 c 128,-1,32
 560 1064 560 1064 572 980 c 128,-1,33
 584 896 584 896 584 798 c 2,0,-1
282 1269 m 0,34,35
 247 1269 247 1269 223.5 1248.5 c 128,-1,36
 200 1228 200 1228 189 1190 c 128,-1,37
 178 1152 178 1152 174 1114 c 128,-1,38
 170 1076 170 1076 170 1027 c 0,39,40
 170 1002 170 1002 171 961 c 128,-1,41
 172 920 172 920 172 906 c 0,42,43
 172 874 172 874 167 811 c 128,-1,44
 162 748 162 748 162 717 c 0,45,46
 162 680 162 680 163.5 630 c 128,-1,47
 165 580 165 580 169.5 498 c 128,-1,48
 174 416 174 416 184.5 342 c 128,-1,49
 195 268 195 268 210 199 c 128,-1,50
 225 130 225 130 250 88.5 c 128,-1,51
 275 47 275 47 307 47 c 0,52,53
 344 47 344 47 374 77 c 128,-1,54
 404 107 404 107 421.5 157.5 c 128,-1,55
 439 208 439 208 451 263.5 c 128,-1,56
 463 319 463 319 468.5 382 c 128,-1,57
 474 445 474 445 476 486.5 c 128,-1,58
 478 528 478 528 478 564 c 0,59,60
 478 645 478 645 464.5 804 c 128,-1,61
 451 963 451 963 451 1041 c 2,62,-1
 451 1077 l 1,63,64
 449 1152 449 1152 402 1210.5 c 128,-1,65
 355 1269 355 1269 282 1269 c 0,34,35
EndSplineSet
EndChar

StartChar: p
Encoding: 112 112 83
Width: 483
GlyphClass: 2
Flags: W
LayerCount: 2
UndoRedoHistory
Layer: 1
Undoes
EndUndoes
Redoes
EndRedoes
EndUndoRedoHistory
Fore
SplineSet
71 1270 m 1,0,1
 76 1296 76 1296 90 1319 c 128,-1,2
 104 1342 104 1342 126 1342 c 2,3,-1
 216 1342 l 2,4,5
 275 1342 275 1342 317.5 1315.5 c 128,-1,6
 360 1289 360 1289 382 1243.5 c 128,-1,7
 404 1198 404 1198 414 1149 c 128,-1,8
 424 1100 424 1100 424 1044 c 0,9,10
 424 1000 424 1000 423.5 975.5 c 128,-1,11
 423 951 423 951 421 914.5 c 128,-1,12
 419 878 419 878 414.5 857 c 128,-1,13
 410 836 410 836 402 807 c 128,-1,14
 394 778 394 778 382.5 760 c 128,-1,15
 371 742 371 742 353 720.5 c 128,-1,16
 335 699 335 699 312 684 c 128,-1,17
 289 669 289 669 258 654.5 c 128,-1,18
 227 640 227 640 189 628 c 1,19,-1
 189 409 l 2,20,21
 189 344 189 344 197 215 c 128,-1,22
 205 86 205 86 205 21 c 0,23,24
 205 -4 205 -4 184 -21.5 c 128,-1,25
 163 -39 163 -39 136 -39 c 1,26,-1
 93 -14 l 1,27,28
 68 98 68 98 68 287 c 0,29,30
 68 348 68 348 72 469.5 c 128,-1,31
 76 591 76 591 76 652 c 1,32,33
 64 679 64 679 64 702 c 2,34,-1
 64 709 l 1,35,36
 84 749 84 749 84 885 c 0,37,38
 84 913 84 913 85.5 979 c 128,-1,39
 87 1045 87 1045 87 1080 c 0,40,41
 87 1205 87 1205 71 1270 c 1,0,1
208 1228 m 1,42,43
 208 1231 208 1231 186 1231 c 1,44,-1
 186 1115 l 2,45,46
 186 1039 186 1039 188 899.5 c 128,-1,47
 190 760 190 760 190 716 c 2,48,-1
 190 713 l 1,49,50
 312 729 312 729 312 1059 c 0,51,52
 312 1088 312 1088 311 1107 c 128,-1,53
 310 1126 310 1126 304 1151 c 128,-1,54
 298 1176 298 1176 287.5 1191 c 128,-1,55
 277 1206 277 1206 257 1217 c 128,-1,56
 237 1228 237 1228 208 1228 c 1,42,43
EndSplineSet
EndChar

StartChar: q
Encoding: 113 113 84
Width: 644
GlyphClass: 2
Flags: W
LayerCount: 2
UndoRedoHistory
Layer: 1
Undoes
EndUndoes
Redoes
EndRedoes
EndUndoRedoHistory
Fore
SplineSet
502 -434 m 1,0,-1
 502 -432 l 1,1,2
 387 -432 387 -432 344 -385 c 1,3,4
 344 -362 344 -362 343 -339.5 c 128,-1,5
 342 -317 342 -317 338.5 -291 c 128,-1,6
 335 -265 335 -265 333 -247.5 c 128,-1,7
 331 -230 331 -230 325.5 -198.5 c 128,-1,8
 320 -167 320 -167 317.5 -155 c 128,-1,9
 315 -143 315 -143 308 -107 c 128,-1,10
 301 -71 301 -71 299 -62 c 1,11,12
 256 -53 256 -53 221 -32 c 128,-1,13
 186 -11 186 -11 161 15 c 128,-1,14
 136 41 136 41 116.5 80.5 c 128,-1,15
 97 120 97 120 85 157 c 128,-1,16
 73 194 73 194 65.5 247 c 128,-1,17
 58 300 58 300 54.5 342.5 c 128,-1,18
 51 385 51 385 50 445.5 c 128,-1,19
 49 506 49 506 49.5 548.5 c 128,-1,20
 50 591 50 591 51 654 c 128,-1,21
 52 717 52 717 52 754 c 0,22,23
 52 803 52 803 54.5 852.5 c 128,-1,24
 57 902 57 902 64 978.5 c 128,-1,25
 71 1055 71 1055 87 1118.5 c 128,-1,26
 103 1182 103 1182 127 1241.5 c 128,-1,27
 151 1301 151 1301 191.5 1335 c 128,-1,28
 232 1369 232 1369 283 1369 c 1,29,30
 299 1362 299 1362 330.5 1354.5 c 128,-1,31
 362 1347 362 1347 376 1341 c 0,32,33
 423 1322 423 1322 458.5 1288 c 128,-1,34
 494 1254 494 1254 515.5 1207.5 c 128,-1,35
 537 1161 537 1161 551.5 1114.5 c 128,-1,36
 566 1068 566 1068 572 1009.5 c 128,-1,37
 578 951 578 951 580 908.5 c 128,-1,38
 582 866 582 866 582 812 c 0,39,40
 582 765 582 765 581.5 726.5 c 128,-1,41
 581 688 581 688 579 615 c 128,-1,42
 577 542 577 542 571.5 481.5 c 128,-1,43
 566 421 566 421 558 345.5 c 128,-1,44
 550 270 550 270 536 210.5 c 128,-1,45
 522 151 522 151 503.5 95 c 128,-1,46
 485 39 485 39 458.5 2 c 128,-1,47
 432 -35 432 -35 399 -49 c 1,48,49
 399 -91 399 -91 408 -136.5 c 128,-1,50
 417 -182 417 -182 433 -240.5 c 128,-1,51
 449 -299 449 -299 455 -326 c 1,52,53
 550 -326 550 -326 550 -384 c 0,54,55
 550 -405 550 -405 536.5 -419.5 c 128,-1,56
 523 -434 523 -434 502 -434 c 1,0,-1
271 1288 m 0,57,58
 237 1288 237 1288 211 1210.5 c 128,-1,59
 185 1133 185 1133 173.5 1023.5 c 128,-1,60
 162 914 162 914 156.5 830 c 128,-1,61
 151 746 151 746 151 699 c 0,62,63
 151 664 151 664 151.5 637 c 128,-1,64
 152 610 152 610 153.5 546 c 128,-1,65
 155 482 155 482 159 431 c 128,-1,66
 163 380 163 380 169 313 c 128,-1,67
 175 246 175 246 186 196 c 128,-1,68
 197 146 197 146 211 100.5 c 128,-1,69
 225 55 225 55 246 30.5 c 128,-1,70
 267 6 267 6 293 6 c 1,71,72
 322 18 322 18 353 18 c 0,73,74
 389 18 389 18 431 225 c 128,-1,75
 473 432 473 432 473 511 c 2,76,-1
 473 869 l 2,77,78
 473 1288 473 1288 271 1288 c 0,57,58
EndSplineSet
EndChar

StartChar: r
Encoding: 114 114 85
Width: 504
GlyphClass: 2
Flags: W
LayerCount: 2
UndoRedoHistory
Layer: 1
Undoes
EndUndoes
Redoes
EndRedoes
EndUndoRedoHistory
Fore
SplineSet
282 1098 m 0,0,1
 282 1135 282 1135 279 1161.5 c 128,-1,2
 276 1188 276 1188 266.5 1220.5 c 128,-1,3
 257 1253 257 1253 233.5 1270.5 c 128,-1,4
 210 1288 210 1288 174 1289 c 1,5,6
 174 1288 174 1288 170.5 1276.5 c 128,-1,7
 167 1265 167 1265 167 1260 c 0,8,9
 167 1176 167 1176 171 1017.5 c 128,-1,10
 175 859 175 859 175 787 c 1,11,12
 223 812 223 812 252.5 917.5 c 128,-1,13
 282 1023 282 1023 282 1098 c 0,0,1
426 -35 m 0,14,15
 383 -35 383 -35 343.5 63.5 c 128,-1,16
 304 162 304 162 280 282 c 128,-1,17
 256 402 256 402 230.5 527.5 c 128,-1,18
 205 653 205 653 191 686 c 1,19,-1
 166 686 l 1,20,21
 166 651 166 651 165 577 c 128,-1,22
 164 503 164 503 164 464 c 0,23,24
 164 193 164 193 203 37 c 1,25,-1
 180 -18 l 1,26,-1
 123 -18 l 1,27,-1
 96 12 l 1,28,29
 98 104 98 104 98 149 c 0,30,31
 98 333 98 333 80.5 708 c 128,-1,32
 63 1083 63 1083 63 1268 c 0,33,34
 63 1365 63 1365 131 1365 c 0,35,36
 238 1365 238 1365 311 1309 c 128,-1,37
 384 1253 384 1253 384 1149 c 2,38,-1
 384 1005 l 2,39,40
 384 972 384 972 371.5 931.5 c 128,-1,41
 359 891 359 891 349.5 870 c 128,-1,42
 340 849 340 849 311 795.5 c 128,-1,43
 282 742 282 742 279 736 c 1,44,45
 290 687 290 687 317.5 540.5 c 128,-1,46
 345 394 345 394 372 293 c 128,-1,47
 399 192 399 192 438 107 c 0,48,49
 440 102 440 102 451 81 c 128,-1,50
 462 60 462 60 467 45.5 c 128,-1,51
 472 31 472 31 472 17 c 0,52,53
 472 -4 472 -4 459.5 -19.5 c 128,-1,54
 447 -35 447 -35 426 -35 c 0,14,15
EndSplineSet
EndChar

StartChar: s
Encoding: 115 115 86
Width: 445
GlyphClass: 2
Flags: W
LayerCount: 2
UndoRedoHistory
Layer: 1
Undoes
EndUndoes
Redoes
EndRedoes
EndUndoRedoHistory
Fore
SplineSet
150 1075 m 0,0,1
 150 1014 150 1014 168 953 c 128,-1,2
 186 892 186 892 213.5 844.5 c 128,-1,3
 241 797 241 797 272.5 739.5 c 128,-1,4
 304 682 304 682 331.5 628 c 128,-1,5
 359 574 359 574 377 498.5 c 128,-1,6
 395 423 395 423 395 342 c 0,7,8
 395 282 395 282 380.5 221.5 c 128,-1,9
 366 161 366 161 337.5 105 c 128,-1,10
 309 49 309 49 258 13.5 c 128,-1,11
 207 -22 207 -22 141 -23 c 1,12,-1
 141 -28 l 1,13,14
 105 -23 105 -23 79 -3 c 128,-1,15
 53 17 53 17 49 51 c 1,16,-1
 72 86 l 1,17,18
 80 85 80 85 110 78 c 128,-1,19
 140 71 140 71 157 71 c 0,20,21
 196 71 196 71 225 105 c 128,-1,22
 254 139 254 139 268 190 c 128,-1,23
 282 241 282 241 288.5 286 c 128,-1,24
 295 331 295 331 295 367 c 0,25,26
 295 439 295 439 270 513 c 128,-1,27
 245 587 245 587 209 650.5 c 128,-1,28
 173 714 173 714 136.5 779.5 c 128,-1,29
 100 845 100 845 75 924.5 c 128,-1,30
 50 1004 50 1004 50 1086 c 0,31,32
 50 1130 50 1130 60.5 1178 c 128,-1,33
 71 1226 71 1226 91.5 1273 c 128,-1,34
 112 1320 112 1320 149.5 1350.5 c 128,-1,35
 187 1381 187 1381 235 1381 c 0,36,37
 271 1381 271 1381 303.5 1358 c 128,-1,38
 336 1335 336 1335 336 1300 c 0,39,40
 336 1281 336 1281 320.5 1271 c 128,-1,41
 305 1261 305 1261 286 1261 c 0,42,43
 264 1261 264 1261 243 1273 c 1,44,45
 219 1272 219 1272 200 1249 c 128,-1,46
 181 1226 181 1226 170.5 1192.5 c 128,-1,47
 160 1159 160 1159 155 1128 c 128,-1,48
 150 1097 150 1097 150 1075 c 0,0,1
EndSplineSet
EndChar

StartChar: t
Encoding: 116 116 87
Width: 493
GlyphClass: 2
Flags: W
LayerCount: 2
UndoRedoHistory
Layer: 1
Undoes
EndUndoes
Redoes
EndRedoes
EndUndoRedoHistory
Fore
SplineSet
253 190 m 0,0,1
 253 191 253 191 256 260 c 1,2,3
 248 286 248 286 223.5 722 c 128,-1,4
 199 1158 199 1158 197 1255 c 1,5,6
 79 1258 79 1258 44 1281 c 0,7,8
 23 1295 23 1295 23 1316 c 0,9,10
 23 1335 23 1335 45 1347.5 c 128,-1,11
 67 1360 67 1360 88 1360 c 0,12,13
 135 1360 135 1360 227.5 1350.5 c 128,-1,14
 320 1341 320 1341 366 1341 c 0,15,16
 371 1341 371 1341 382 1341.5 c 128,-1,17
 393 1342 393 1342 399 1342 c 0,18,19
 463 1342 463 1342 463 1293 c 0,20,21
 463 1268 463 1268 442 1252.5 c 128,-1,22
 421 1237 421 1237 395 1237 c 0,23,24
 376 1237 376 1237 342 1243.5 c 128,-1,25
 308 1250 308 1250 301 1251 c 1,26,27
 301 1250 301 1250 299 1242 c 128,-1,28
 297 1234 297 1234 297 1230 c 0,29,30
 297 1036 297 1036 331 649 c 128,-1,31
 365 262 365 262 365 67 c 0,32,33
 365 43 365 43 343 24.5 c 128,-1,34
 321 6 321 6 295 6 c 1,35,-1
 257 33 l 1,36,37
 257 59 257 59 255 111.5 c 128,-1,38
 253 164 253 164 253 190 c 0,0,1
EndSplineSet
EndChar

StartChar: u
Encoding: 117 117 88
Width: 641
GlyphClass: 2
Flags: W
LayerCount: 2
UndoRedoHistory
Layer: 1
Undoes
EndUndoes
Redoes
EndRedoes
EndUndoRedoHistory
Fore
SplineSet
298 -31 m 0,0,1
 249 -31 249 -31 210 -9.5 c 128,-1,2
 171 12 171 12 147 52.5 c 128,-1,3
 123 93 123 93 106.5 139.5 c 128,-1,4
 90 186 90 186 82 247 c 128,-1,5
 74 308 74 308 71 360 c 128,-1,6
 68 412 68 412 68 473 c 1,7,8
 63 693 63 693 63 1013 c 0,9,10
 63 1058 63 1058 61.5 1106 c 128,-1,11
 60 1154 60 1154 57.5 1212 c 128,-1,12
 55 1270 55 1270 54 1306 c 1,13,14
 73 1349 73 1349 98 1349 c 0,15,16
 122 1349 122 1349 141 1311.5 c 128,-1,17
 160 1274 160 1274 160 1232 c 2,18,-1
 160 675 l 2,19,20
 160 602 160 602 174.5 458 c 128,-1,21
 189 314 189 314 189 241 c 0,22,23
 189 91 189 91 319 91 c 0,24,25
 465 91 465 91 465 1192 c 2,26,-1
 465 1307 l 2,27,28
 465 1313 465 1313 464.5 1324.5 c 128,-1,29
 464 1336 464 1336 464 1341 c 0,30,31
 464 1365 464 1365 475 1377 c 128,-1,32
 486 1389 486 1389 520 1389 c 0,33,34
 548 1389 548 1389 563 1372 c 128,-1,35
 578 1355 578 1355 580.5 1337.5 c 128,-1,36
 583 1320 583 1320 583 1290 c 0,37,38
 583 1255 583 1255 576 1186 c 128,-1,39
 569 1117 569 1117 569 1084 c 0,40,41
 569 1056 569 1056 564.5 999 c 128,-1,42
 560 942 560 942 560 913 c 0,43,44
 560 907 560 907 561 895.5 c 128,-1,45
 562 884 562 884 562 878 c 0,46,47
 562 -31 562 -31 298 -31 c 0,0,1
EndSplineSet
EndChar

StartChar: v
Encoding: 118 118 89
Width: 666
GlyphClass: 2
Flags: W
LayerCount: 2
UndoRedoHistory
Layer: 1
Undoes
EndUndoes
Redoes
EndRedoes
EndUndoRedoHistory
Fore
SplineSet
343 247 m 1,0,1
 388 473 388 473 453.5 900 c 128,-1,2
 519 1327 519 1327 531 1396 c 1,3,-1
 577 1396 l 2,4,5
 595 1396 595 1396 609.5 1383 c 128,-1,6
 624 1370 624 1370 624 1351 c 0,7,8
 624 1272 624 1272 603.5 1181 c 128,-1,9
 583 1090 583 1090 554.5 988.5 c 128,-1,10
 526 887 526 887 515 821 c 0,11,12
 509 786 509 786 500 673 c 128,-1,13
 491 560 491 560 479 451 c 128,-1,14
 467 342 467 342 447 229 c 128,-1,15
 427 116 427 116 390.5 46 c 128,-1,16
 354 -24 354 -24 304 -24 c 1,17,-1
 266 7 l 1,18,19
 266 256 266 256 218.5 515 c 128,-1,20
 171 774 171 774 84 1110 c 0,21,22
 80 1126 80 1126 64.5 1173 c 128,-1,23
 49 1220 49 1220 38.5 1259.5 c 128,-1,24
 28 1299 28 1299 28 1319 c 0,25,26
 28 1338 28 1338 43.5 1352 c 128,-1,27
 59 1366 59 1366 78 1366 c 0,28,29
 106 1366 106 1366 134.5 1313.5 c 128,-1,30
 163 1261 163 1261 187 1170 c 128,-1,31
 211 1079 211 1079 232.5 976.5 c 128,-1,32
 254 874 254 874 272.5 752 c 128,-1,33
 291 630 291 630 304 539 c 128,-1,34
 317 448 317 448 328.5 356.5 c 128,-1,35
 340 265 340 265 343 247 c 1,0,1
EndSplineSet
EndChar

StartChar: w
Encoding: 119 119 90
Width: 802
GlyphClass: 2
Flags: W
LayerCount: 2
UndoRedoHistory
Layer: 1
Undoes
EndUndoes
Redoes
EndRedoes
EndUndoRedoHistory
Fore
SplineSet
653 139 m 0,0,1
 653 -69 653 -69 574 -69 c 0,2,3
 542 -69 542 -69 528.5 -40.5 c 128,-1,4
 515 -12 515 -12 515 25 c 0,5,6
 515 106 515 106 509 195 c 128,-1,7
 503 284 503 284 489.5 391 c 128,-1,8
 476 498 476 498 466 567.5 c 128,-1,9
 456 637 456 637 436 766.5 c 128,-1,10
 416 896 416 896 409 942 c 1,11,12
 402 874 402 874 402 826 c 0,13,14
 402 736 402 736 386.5 544.5 c 128,-1,15
 371 353 371 353 332.5 155 c 128,-1,16
 294 -43 294 -43 245 -43 c 0,17,18
 204 -43 204 -43 173.5 79.5 c 128,-1,19
 143 202 143 202 125.5 385.5 c 128,-1,20
 108 569 108 569 94 756 c 128,-1,21
 80 943 80 943 64.5 1098 c 128,-1,22
 49 1253 49 1253 31 1293 c 1,23,24
 48 1329 48 1329 90 1329 c 0,25,26
 156 1329 156 1329 156 1195 c 0,27,28
 156 1032 156 1032 199 727.5 c 128,-1,29
 242 423 242 423 247 283 c 1,30,31
 274 467 274 467 290 586 c 128,-1,32
 306 705 306 705 320 875 c 128,-1,33
 334 1045 334 1045 334 1186 c 1,34,-1
 389 1210 l 1,35,36
 414 1210 414 1210 432 1197 c 128,-1,37
 450 1184 450 1184 450 1160 c 2,38,-1
 450 1143 l 1,39,40
 486 1022 486 1022 506.5 882.5 c 128,-1,41
 527 743 527 743 542.5 572 c 128,-1,42
 558 401 558 401 572 307 c 1,43,44
 610 591 610 591 610 984 c 0,45,46
 610 1036 610 1036 625.5 1138 c 128,-1,47
 641 1240 641 1240 641 1292 c 1,48,49
 634 1310 634 1310 634 1327 c 0,50,51
 634 1377 634 1377 697 1377 c 0,52,53
 720 1377 720 1377 734.5 1364.5 c 128,-1,54
 749 1352 749 1352 749 1329 c 0,55,56
 749 1264 749 1264 744 1245 c 1,57,-1
 744 1234 l 1,58,59
 716 1149 716 1149 716 1046 c 2,60,-1
 716 896 l 2,61,62
 716 768 716 768 684.5 510.5 c 128,-1,63
 653 253 653 253 653 139 c 0,0,1
EndSplineSet
EndChar

StartChar: x
Encoding: 120 120 91
Width: 471
GlyphClass: 2
Flags: W
LayerCount: 2
UndoRedoHistory
Layer: 1
Undoes
EndUndoes
Redoes
EndRedoes
EndUndoRedoHistory
Fore
SplineSet
234 894 m 1,0,1
 236 907 236 907 243 944.5 c 128,-1,2
 250 982 250 982 253 1000.5 c 128,-1,3
 256 1019 256 1019 260 1050 c 128,-1,4
 264 1081 264 1081 266 1107 c 128,-1,5
 268 1133 268 1133 268 1158 c 0,6,7
 268 1170 268 1170 267.5 1192.5 c 128,-1,8
 267 1215 267 1215 267 1225 c 0,9,10
 267 1279 267 1279 285 1310.5 c 128,-1,11
 303 1342 303 1342 359 1357 c 1,12,-1
 397 1309 l 1,13,14
 381 1285 381 1285 372.5 1252 c 128,-1,15
 364 1219 364 1219 363 1196.5 c 128,-1,16
 362 1174 362 1174 362 1133 c 2,17,-1
 362 1109 l 1,18,19
 338 1044 338 1044 311 881 c 128,-1,20
 284 718 284 718 284 646 c 0,21,22
 284 573 284 573 321 450.5 c 128,-1,23
 358 328 358 328 395 215.5 c 128,-1,24
 432 103 432 103 432 54 c 0,25,26
 432 32 432 32 415.5 17.5 c 128,-1,27
 399 3 399 3 377 3 c 0,28,29
 360 3 360 3 343.5 22 c 128,-1,30
 327 41 327 41 314 74.5 c 128,-1,31
 301 108 301 108 289.5 146.5 c 128,-1,32
 278 185 278 185 269 230.5 c 128,-1,33
 260 276 260 276 253 312 c 128,-1,34
 246 348 246 348 240 384 c 128,-1,35
 234 420 234 420 231 433 c 1,36,37
 226 403 226 403 212.5 280 c 128,-1,38
 199 157 199 157 179 93 c 1,39,40
 180 86 180 86 180 69 c 0,41,42
 180 -7 180 -7 127 -7 c 0,43,44
 104 -7 104 -7 84.5 5.5 c 128,-1,45
 65 18 65 18 65 40 c 0,46,47
 65 129 65 129 94 239.5 c 128,-1,48
 123 350 123 350 152 460.5 c 128,-1,49
 181 571 181 571 181 660 c 0,50,51
 181 718 181 718 129.5 951.5 c 128,-1,52
 78 1185 78 1185 54 1219 c 1,53,-1
 54 1241 l 1,54,55
 35 1260 35 1260 35 1292 c 0,56,57
 35 1312 35 1312 54.5 1323 c 128,-1,58
 74 1334 74 1334 96 1334 c 0,59,60
 117 1334 117 1334 136.5 1298 c 128,-1,61
 156 1262 156 1262 171.5 1201.5 c 128,-1,62
 187 1141 187 1141 198.5 1087 c 128,-1,63
 210 1033 210 1033 220.5 970.5 c 128,-1,64
 231 908 231 908 234 894 c 1,0,1
EndSplineSet
EndChar

StartChar: y
Encoding: 121 121 92
Width: 513
GlyphClass: 2
Flags: W
LayerCount: 2
UndoRedoHistory
Layer: 1
Undoes
EndUndoes
Redoes
EndRedoes
EndUndoRedoHistory
Fore
SplineSet
355 109 m 2,0,1
 355 -28 355 -28 288 -28 c 0,2,3
 251 -28 251 -28 231 17 c 1,4,5
 254 62 254 62 254 364 c 0,6,7
 254 419 254 419 243 520 c 128,-1,8
 232 621 232 621 230 664 c 1,9,-1
 230 717 l 1,10,11
 226 726 226 726 165.5 879 c 128,-1,12
 105 1032 105 1032 67.5 1141 c 128,-1,13
 30 1250 30 1250 30 1288 c 2,14,-1
 30 1299 l 1,15,-1
 76 1333 l 1,16,17
 111 1332 111 1332 149.5 1242.5 c 128,-1,18
 188 1153 188 1153 226 1015.5 c 128,-1,19
 264 878 264 878 264 877 c 1,20,21
 272 899 272 899 296 1029.5 c 128,-1,22
 320 1160 320 1160 352 1261 c 128,-1,23
 384 1362 384 1362 424 1362 c 0,24,25
 443 1362 443 1362 458.5 1350 c 128,-1,26
 474 1338 474 1338 474 1319 c 0,27,28
 474 1217 474 1217 415.5 1022.5 c 128,-1,29
 357 828 357 828 355 726 c 1,30,-1
 355 109 l 2,0,1
EndSplineSet
EndChar

StartChar: z
Encoding: 122 122 93
Width: 493
GlyphClass: 2
Flags: W
LayerCount: 2
UndoRedoHistory
Layer: 1
Undoes
EndUndoes
Redoes
EndRedoes
EndUndoRedoHistory
Fore
SplineSet
344 1256 m 1,0,1
 320 1255 320 1255 264 1249.5 c 128,-1,2
 208 1244 208 1244 177 1244 c 0,3,4
 155 1244 155 1244 139.5 1261.5 c 128,-1,5
 124 1279 124 1279 124 1301 c 0,6,7
 124 1359 124 1359 349 1359 c 0,8,9
 450 1359 450 1359 450 1302 c 0,10,11
 450 1230 450 1230 405.5 1106.5 c 128,-1,12
 361 983 361 983 353 933 c 0,13,14
 327 770 327 770 246 457.5 c 128,-1,15
 165 145 165 145 157 105 c 1,16,-1
 192 105 l 2,17,18
 206 105 206 105 235 108 c 128,-1,19
 264 111 264 111 278 111 c 1,20,-1
 278 112 l 1,21,22
 361 112 361 112 361 62 c 0,23,24
 361 37 361 37 339 24.5 c 128,-1,25
 317 12 317 12 290 12 c 0,26,27
 270 12 270 12 229.5 15 c 128,-1,28
 189 18 189 18 169 18 c 0,29,30
 156 18 156 18 133 7 c 128,-1,31
 110 -4 110 -4 96 -4 c 0,32,33
 75 -4 75 -4 58 9 c 128,-1,34
 41 22 41 22 41 42 c 0,35,36
 41 174 41 174 92.5 381 c 128,-1,37
 144 588 144 588 229 862.5 c 128,-1,38
 314 1137 314 1137 344 1256 c 1,0,1
EndSplineSet
EndChar

StartChar: braceleft
Encoding: 123 123 94
Width: 649
GlyphClass: 2
Flags: W
LayerCount: 2
UndoRedoHistory
Layer: 1
Undoes
EndUndoes
Redoes
EndRedoes
EndUndoRedoHistory
Fore
SplineSet
443 -48 m 0,0,1
 327 -48 327 -48 283.5 14.5 c 128,-1,2
 240 77 240 77 240 198 c 2,3,-1
 240 621 l 2,4,5
 240 666 240 666 225.5 689.5 c 128,-1,6
 211 713 211 713 190.5 717 c 128,-1,7
 170 721 170 721 150 721.5 c 128,-1,8
 130 722 130 722 115.5 731.5 c 128,-1,9
 101 741 101 741 101 766 c 0,10,11
 101 793 101 793 115.5 804 c 128,-1,12
 130 815 130 815 150 816 c 128,-1,13
 170 817 170 817 190.5 821.5 c 128,-1,14
 211 826 211 826 225.5 848.5 c 128,-1,15
 240 871 240 871 240 916 c 0,16,17
 240 933 240 933 235 1010.5 c 128,-1,18
 230 1088 230 1088 230 1130 c 0,19,20
 230 1204 230 1204 243 1226 c 1,21,22
 238 1256 238 1256 238 1280 c 0,23,24
 238 1374 238 1374 291 1434.5 c 128,-1,25
 344 1495 344 1495 443 1495 c 0,26,27
 466 1495 466 1495 496 1490.5 c 128,-1,28
 526 1486 526 1486 556 1471 c 128,-1,29
 586 1456 586 1456 586 1435 c 0,30,31
 586 1413 586 1413 568.5 1401 c 128,-1,32
 551 1389 551 1389 529 1389 c 0,33,34
 511 1389 511 1389 478 1398.5 c 128,-1,35
 445 1408 445 1408 428 1408 c 0,36,37
 330 1408 330 1408 330 1157 c 0,38,39
 330 1135 330 1135 334 1062 c 128,-1,40
 338 989 338 989 338 947 c 0,41,42
 338 815 338 815 302 768 c 1,43,44
 336 726 336 726 336 622 c 2,45,-1
 336 182 l 2,46,47
 336 39 336 39 428 39 c 0,48,49
 449 39 449 39 488.5 50.5 c 128,-1,50
 528 62 528 62 549 62 c 0,51,52
 557 62 557 62 561.5 44.5 c 128,-1,53
 566 27 566 27 566 16 c 0,54,55
 566 -8 566 -8 542 -23.5 c 128,-1,56
 518 -39 518 -39 492.5 -43.5 c 128,-1,57
 467 -48 467 -48 443 -48 c 0,0,1
EndSplineSet
EndChar

StartChar: bar
Encoding: 124 124 95
Width: 467
GlyphClass: 2
Flags: W
LayerCount: 2
UndoRedoHistory
Layer: 1
Undoes
EndUndoes
Redoes
EndRedoes
EndUndoRedoHistory
Fore
SplineSet
143 114 m 0,0,1
 143 347 143 347 136 812.5 c 128,-1,2
 129 1278 129 1278 129 1510 c 0,3,4
 129 1584 129 1584 200 1584 c 0,5,6
 218 1584 218 1584 230 1568 c 128,-1,7
 242 1552 242 1552 242 1533 c 0,8,9
 242 1340 242 1340 244 955.5 c 128,-1,10
 246 571 246 571 246 379 c 2,11,-1
 246 -29 l 2,12,13
 246 -50 246 -50 230.5 -65 c 128,-1,14
 215 -80 215 -80 194 -80 c 0,15,16
 143 -80 143 -80 143 114 c 0,0,1
EndSplineSet
EndChar

StartChar: braceright
Encoding: 125 125 96
Width: 649
GlyphClass: 2
Flags: W
LayerCount: 2
UndoRedoHistory
Layer: 1
Undoes
EndUndoes
Redoes
EndRedoes
EndUndoRedoHistory
Fore
SplineSet
244 1495 m 0,0,1
 358 1495 358 1495 401.5 1432 c 128,-1,2
 445 1369 445 1369 446 1249 c 2,3,-1
 447 876 l 2,4,5
 447 838 447 838 456.5 815 c 128,-1,6
 466 792 466 792 480.5 785.5 c 128,-1,7
 495 779 495 779 511.5 776 c 128,-1,8
 528 773 528 773 542.5 772.5 c 128,-1,9
 557 772 557 772 566.5 762 c 128,-1,10
 576 752 576 752 576 731 c 0,11,12
 576 704 576 704 562.5 693 c 128,-1,13
 549 682 549 682 530.5 681 c 128,-1,14
 512 680 512 680 493 676 c 128,-1,15
 474 672 474 672 460.5 649 c 128,-1,16
 447 626 447 626 447 581 c 0,17,18
 447 566 447 566 451 474 c 128,-1,19
 455 382 455 382 455 330 c 0,20,21
 455 239 455 239 444 221 c 1,22,23
 448 196 448 196 448 166 c 0,24,25
 448 72 448 72 395.5 12 c 128,-1,26
 343 -48 343 -48 244 -48 c 0,27,28
 221 -48 221 -48 191 -43.5 c 128,-1,29
 161 -39 161 -39 131 -24 c 128,-1,30
 101 -9 101 -9 101 12 c 0,31,32
 101 34 101 34 118.5 46 c 128,-1,33
 136 58 136 58 158 58 c 0,34,35
 176 58 176 58 209 48.5 c 128,-1,36
 242 39 242 39 259 39 c 0,37,38
 357 39 357 39 357 289 c 0,39,40
 357 313 357 313 352 398.5 c 128,-1,41
 347 484 347 484 347 534 c 0,42,43
 347 681 347 681 385 729 c 1,44,45
 348 776 348 776 348 875 c 0,46,47
 348 887 348 887 353 976.5 c 128,-1,48
 358 1066 358 1066 358 1127 c 0,49,50
 358 1408 358 1408 259 1408 c 0,51,52
 238 1408 238 1408 198.5 1396.5 c 128,-1,53
 159 1385 159 1385 138 1385 c 0,54,55
 130 1385 130 1385 125.5 1402.5 c 128,-1,56
 121 1420 121 1420 121 1431 c 0,57,58
 121 1455 121 1455 145 1470.5 c 128,-1,59
 169 1486 169 1486 194.5 1490.5 c 128,-1,60
 220 1495 220 1495 244 1495 c 0,0,1
EndSplineSet
EndChar

StartChar: asciitilde
Encoding: 126 126 97
Width: 675
GlyphClass: 2
Flags: W
LayerCount: 2
UndoRedoHistory
Layer: 1
Undoes
EndUndoes
Redoes
EndRedoes
EndUndoRedoHistory
Fore
SplineSet
589 1223 m 0,0,1
 622 1223 622 1223 639 1207 c 128,-1,2
 656 1191 656 1191 656 1170 c 0,3,4
 656 1117 656 1117 616.5 1077.5 c 128,-1,5
 577 1038 577 1038 524 1038 c 0,6,7
 427 1038 427 1038 355.5 1051 c 128,-1,8
 284 1064 284 1064 253 1080 c 128,-1,9
 222 1096 222 1096 191 1110 c 128,-1,10
 160 1124 160 1124 136 1125 c 1,11,12
 120 1119 120 1119 115 1107.5 c 128,-1,13
 110 1096 110 1096 112 1085.5 c 128,-1,14
 114 1075 114 1075 107.5 1063.5 c 128,-1,15
 101 1052 101 1052 83 1046 c 1,16,17
 52 1046 52 1046 30.5 1061 c 128,-1,18
 9 1076 9 1076 9 1105 c 0,19,20
 9 1154 9 1154 49 1189 c 128,-1,21
 89 1224 89 1224 157 1224 c 0,22,23
 208 1224 208 1224 334 1182.5 c 128,-1,24
 460 1141 460 1141 500 1141 c 0,25,26
 520 1141 520 1141 530.5 1154 c 128,-1,27
 541 1167 541 1167 544 1182 c 128,-1,28
 547 1197 547 1197 558 1210 c 128,-1,29
 569 1223 569 1223 589 1223 c 0,0,1
EndSplineSet
EndChar

StartChar: sterling
Encoding: 163 163 100
Width: 712
GlyphClass: 2
Flags: W
LayerCount: 2
UndoRedoHistory
Layer: 1
Undoes
EndUndoes
Redoes
EndRedoes
EndUndoRedoHistory
Fore
SplineSet
652 146 m 0,0,1
 675 146 675 146 691 131 c 128,-1,2
 707 116 707 116 707 96 c 0,3,4
 707 67 707 67 668.5 47 c 128,-1,5
 630 27 630 27 559 27 c 0,6,7
 497 27 497 27 406 45.5 c 128,-1,8
 315 64 315 64 278 68 c 1,9,-1
 278 71 l 1,10,11
 253 70 253 70 190.5 45 c 128,-1,12
 128 20 128 20 94 2 c 1,13,-1
 94 6 l 1,14,15
 72 8 72 8 54 20 c 128,-1,16
 36 32 36 32 36 53 c 0,17,18
 36 84 36 84 57.5 102 c 128,-1,19
 79 120 79 120 115 133.5 c 128,-1,20
 151 147 151 147 165 158 c 0,21,22
 196 182 196 182 211.5 253 c 128,-1,23
 227 324 227 324 227 382 c 0,24,25
 227 462 227 462 211.5 542.5 c 128,-1,26
 196 623 196 623 163 738.5 c 128,-1,27
 130 854 130 854 120 894 c 1,28,29
 26 894 26 894 26 918 c 2,30,-1
 26 924 l 2,31,32
 26 936 26 936 29 943.5 c 128,-1,33
 32 951 32 951 50.5 958.5 c 128,-1,34
 69 966 69 966 103 966 c 1,35,36
 102 1008 102 1008 90 1099 c 128,-1,37
 78 1190 78 1190 78 1238 c 0,38,39
 78 1274 78 1274 81 1315 c 128,-1,40
 84 1356 84 1356 95.5 1415.5 c 128,-1,41
 107 1475 107 1475 126 1520.5 c 128,-1,42
 145 1566 145 1566 180.5 1599 c 128,-1,43
 216 1632 216 1632 263 1632 c 2,44,-1
 288 1632 l 2,45,46
 325 1632 325 1632 365.5 1589.5 c 128,-1,47
 406 1547 406 1547 430.5 1493 c 128,-1,48
 455 1439 455 1439 455 1403 c 0,49,50
 455 1382 455 1382 449 1370.5 c 128,-1,51
 443 1359 443 1359 423 1359 c 0,52,53
 393 1359 393 1359 374.5 1377 c 128,-1,54
 356 1395 356 1395 348 1421 c 128,-1,55
 340 1447 340 1447 333 1473 c 128,-1,56
 326 1499 326 1499 310.5 1517 c 128,-1,57
 295 1535 295 1535 269 1535 c 0,58,59
 246 1535 246 1535 227 1504 c 128,-1,60
 208 1473 208 1473 197.5 1428 c 128,-1,61
 187 1383 187 1383 182 1341.5 c 128,-1,62
 177 1300 177 1300 177 1270 c 2,63,-1
 177 1243 l 2,64,65
 177 1067 177 1067 196 976 c 1,66,67
 230 976 230 976 298.5 977.5 c 128,-1,68
 367 979 367 979 401 979 c 0,69,70
 421 979 421 979 437 964 c 128,-1,71
 453 949 453 949 453 928 c 0,72,73
 453 922 453 922 443.5 918.5 c 128,-1,74
 434 915 434 915 410 912.5 c 128,-1,75
 386 910 386 910 363 908.5 c 128,-1,76
 340 907 340 907 295 904.5 c 128,-1,77
 250 902 250 902 217 900 c 1,78,79
 228 838 228 838 257 736 c 128,-1,80
 286 634 286 634 305 544.5 c 128,-1,81
 324 455 324 455 324 378 c 0,82,83
 324 357 324 357 321.5 336 c 128,-1,84
 319 315 319 315 313 291 c 128,-1,85
 307 267 307 267 303 252.5 c 128,-1,86
 299 238 299 238 289.5 209 c 128,-1,87
 280 180 280 180 277 169 c 1,88,89
 316 166 316 166 404.5 145.5 c 128,-1,90
 493 125 493 125 542 125 c 0,91,92
 562 125 562 125 598 135.5 c 128,-1,93
 634 146 634 146 652 146 c 0,0,1
EndSplineSet
EndChar

StartChar: section
Encoding: 167 167 104
Width: 520
GlyphClass: 2
Flags: W
LayerCount: 2
UndoRedoHistory
Layer: 1
Undoes
EndUndoes
Redoes
EndRedoes
EndUndoRedoHistory
Fore
SplineSet
340 649 m 0,0,1
 340 668 340 668 336.5 688 c 128,-1,2
 333 708 333 708 330 723.5 c 128,-1,3
 327 739 327 739 317 761 c 128,-1,4
 307 783 307 783 302.5 793.5 c 128,-1,5
 298 804 298 804 284 828.5 c 128,-1,6
 270 853 270 853 265.5 860 c 128,-1,7
 261 867 261 867 244 894 c 128,-1,8
 227 921 227 921 224 925 c 1,9,10
 180 870 180 870 180 795 c 0,11,12
 180 751 180 751 198.5 703.5 c 128,-1,13
 217 656 217 656 236.5 626.5 c 128,-1,14
 256 597 256 597 291 549 c 1,15,16
 340 591 340 591 340 649 c 0,0,1
440 634 m 0,17,18
 440 582 440 582 416.5 537 c 128,-1,19
 393 492 393 492 351 465 c 1,20,21
 425 349 425 349 425 246 c 0,22,23
 425 189 425 189 405 134.5 c 128,-1,24
 385 80 385 80 341.5 40.5 c 128,-1,25
 298 1 298 1 240 1 c 0,26,27
 204 1 204 1 171.5 24 c 128,-1,28
 139 47 139 47 139 82 c 0,29,30
 139 101 139 101 154.5 111 c 128,-1,31
 170 121 170 121 189 121 c 0,32,33
 211 121 211 121 232 109 c 1,34,35
 274 110 274 110 299.5 160 c 128,-1,36
 325 210 325 210 325 257 c 0,37,38
 325 303 325 303 307 349 c 128,-1,39
 289 395 289 395 261.5 431.5 c 128,-1,40
 234 468 234 468 202.5 512.5 c 128,-1,41
 171 557 171 557 143.5 598.5 c 128,-1,42
 116 640 116 640 98 698.5 c 128,-1,43
 80 757 80 757 80 820 c 0,44,45
 80 878 80 878 103.5 931.5 c 128,-1,46
 127 985 127 985 171 1018 c 1,47,48
 113 1138 113 1138 113 1275 c 0,49,50
 113 1443 113 1443 280 1443 c 0,51,52
 310 1443 310 1443 345.5 1430 c 128,-1,53
 381 1417 381 1417 381 1392 c 0,54,55
 381 1369 381 1369 362 1360.5 c 128,-1,56
 343 1352 343 1352 315.5 1351.5 c 128,-1,57
 288 1351 288 1351 260.5 1349 c 128,-1,58
 233 1347 233 1347 214 1329.5 c 128,-1,59
 195 1312 195 1312 195 1277 c 0,60,61
 195 1223 195 1223 213 1170.5 c 128,-1,62
 231 1118 231 1118 258.5 1076.5 c 128,-1,63
 286 1035 286 1035 317.5 984.5 c 128,-1,64
 349 934 349 934 376.5 886.5 c 128,-1,65
 404 839 404 839 422 772.5 c 128,-1,66
 440 706 440 706 440 634 c 0,17,18
EndSplineSet
EndChar

StartChar: copyright
Encoding: 169 169 106
Width: 1207
GlyphClass: 2
Flags: W
LayerCount: 2
UndoRedoHistory
Layer: 1
Undoes
EndUndoes
Redoes
EndRedoes
EndUndoRedoHistory
Fore
SplineSet
98 924 m 0,0,1
 98 994 98 994 101.5 1063.5 c 128,-1,2
 105 1133 105 1133 117 1223.5 c 128,-1,3
 129 1314 129 1314 148 1393 c 128,-1,4
 167 1472 167 1472 201.5 1551 c 128,-1,5
 236 1630 236 1630 280.5 1686 c 128,-1,6
 325 1742 325 1742 391.5 1777 c 128,-1,7
 458 1812 458 1812 539 1812 c 0,8,9
 634 1812 634 1812 715.5 1771.5 c 128,-1,10
 797 1731 797 1731 854.5 1664 c 128,-1,11
 912 1597 912 1597 958 1506 c 128,-1,12
 1004 1415 1004 1415 1032 1319 c 128,-1,13
 1060 1223 1060 1223 1078.5 1118 c 128,-1,14
 1097 1013 1097 1013 1104 925 c 128,-1,15
 1111 837 1111 837 1111 757 c 0,16,17
 1111 675 1111 675 1105.5 602 c 128,-1,18
 1100 529 1100 529 1084.5 448.5 c 128,-1,19
 1069 368 1069 368 1044 302 c 128,-1,20
 1019 236 1019 236 978.5 175 c 128,-1,21
 938 114 938 114 884.5 72 c 128,-1,22
 831 30 831 30 755.5 5 c 128,-1,23
 680 -20 680 -20 588 -20 c 0,24,25
 312 -20 312 -20 206 158 c 0,26,27
 140 270 140 270 120 502 c 0,28,29
 116 549 116 549 111 646 c 0,30,31
 110 655 110 655 110 660 c 0,32,33
 98 871 98 871 98 924 c 0,0,1
215 940 m 1,34,-1
 216 940 l 1,35,36
 216 888 216 888 219 832.5 c 128,-1,37
 222 777 222 777 227.5 702 c 128,-1,38
 233 627 233 627 235 595 c 0,39,40
 247 404 247 404 268 322 c 0,41,42
 317 129 317 129 473 91 c 0,43,44
 513 81 513 81 562 81 c 0,45,46
 656 81 656 81 727 107.5 c 128,-1,47
 798 134 798 134 845.5 187 c 128,-1,48
 893 240 893 240 923.5 306.5 c 128,-1,49
 954 373 954 373 976 464 c 1,50,51
 973 473 973 473 973 483 c 0,52,53
 973 500 973 500 985 537 c 128,-1,54
 997 574 997 574 997 589 c 2,55,-1
 997 894 l 2,56,57
 997 928 997 928 991 965.5 c 128,-1,58
 985 1003 985 1003 973.5 1051 c 128,-1,59
 962 1099 962 1099 958 1121 c 0,60,61
 935 1241 935 1241 908.5 1326.5 c 128,-1,62
 882 1412 882 1412 824 1504.5 c 128,-1,63
 766 1597 766 1597 681 1658 c 0,64,65
 656 1676 656 1676 643.5 1684.5 c 128,-1,66
 631 1693 631 1693 607.5 1703 c 128,-1,67
 584 1713 584 1713 563 1713 c 0,68,69
 490 1713 490 1713 431.5 1672 c 128,-1,70
 373 1631 373 1631 336.5 1560.5 c 128,-1,71
 300 1490 300 1490 274.5 1410 c 128,-1,72
 249 1330 249 1330 237 1237 c 128,-1,73
 225 1144 225 1144 220 1074.5 c 128,-1,74
 215 1005 215 1005 215 940 c 1,34,-1
441 911 m 1,75,-1
 440 911 l 1,76,77
 431 874 431 874 431 809 c 2,78,-1
 431 758 l 2,79,80
 431 708 431 708 433.5 663 c 128,-1,81
 436 618 436 618 447 553.5 c 128,-1,82
 458 489 458 489 476.5 443.5 c 128,-1,83
 495 398 495 398 532 365 c 128,-1,84
 569 332 569 332 618 332 c 0,85,86
 651 332 651 332 678.5 349 c 128,-1,87
 706 366 706 366 721 386 c 128,-1,88
 736 406 736 406 757 423 c 128,-1,89
 778 440 778 440 800 440 c 0,90,91
 826 440 826 440 840 419.5 c 128,-1,92
 854 399 854 399 854 372 c 0,93,94
 854 331 854 331 812 295.5 c 128,-1,95
 770 260 770 260 719 242.5 c 128,-1,96
 668 225 668 225 628 225 c 0,97,98
 596 225 596 225 566 234.5 c 128,-1,99
 536 244 536 244 493.5 264.5 c 128,-1,100
 451 285 451 285 436 291 c 1,101,102
 353 449 353 449 332 538.5 c 128,-1,103
 311 628 311 628 311 813 c 2,104,-1
 311 825 l 2,105,106
 311 871 311 871 311.5 902.5 c 128,-1,107
 312 934 312 934 314.5 991.5 c 128,-1,108
 317 1049 317 1049 322 1091 c 128,-1,109
 327 1133 327 1133 337 1189 c 128,-1,110
 347 1245 347 1245 360.5 1285.5 c 128,-1,111
 374 1326 374 1326 396 1368.5 c 128,-1,112
 418 1411 418 1411 445.5 1438 c 128,-1,113
 473 1465 473 1465 511 1482 c 128,-1,114
 549 1499 549 1499 594 1499 c 0,115,116
 672 1499 672 1499 753.5 1425.5 c 128,-1,117
 835 1352 835 1352 835 1275 c 0,118,119
 835 1254 835 1254 820.5 1238.5 c 128,-1,120
 806 1223 806 1223 785 1223 c 0,121,122
 757 1223 757 1223 736.5 1240 c 128,-1,123
 716 1257 716 1257 703 1281 c 128,-1,124
 690 1305 690 1305 677.5 1329 c 128,-1,125
 665 1353 665 1353 646.5 1370 c 128,-1,126
 628 1387 628 1387 603 1387 c 0,127,128
 567 1387 567 1387 538.5 1358.5 c 128,-1,129
 510 1330 510 1330 494.5 1290.5 c 128,-1,130
 479 1251 479 1251 467 1192 c 128,-1,131
 455 1133 455 1133 451 1089.5 c 128,-1,132
 447 1046 447 1046 443 990.5 c 128,-1,133
 439 935 439 935 437 921 c 1,134,-1
 441 911 l 1,75,-1
EndSplineSet
EndChar

StartChar: uni00AD
Encoding: 173 173 110
Width: 646
GlyphClass: 2
Flags: W
LayerCount: 2
UndoRedoHistory
Layer: 1
Undoes
EndUndoes
Redoes
EndRedoes
EndUndoRedoHistory
Fore
SplineSet
544 739 m 0,0,1
 544 714 544 714 495.5 695.5 c 128,-1,2
 447 677 447 677 376 669.5 c 128,-1,3
 305 662 305 662 254 659 c 128,-1,4
 203 656 203 656 169 656 c 0,5,6
 143 656 143 656 122.5 673 c 128,-1,7
 102 690 102 690 102 715 c 128,-1,8
 102 740 102 740 150.5 758 c 128,-1,9
 199 776 199 776 269.5 784 c 128,-1,10
 340 792 340 792 391.5 795 c 128,-1,11
 443 798 443 798 476 798 c 0,12,13
 502 798 502 798 523 781.5 c 128,-1,14
 544 765 544 765 544 739 c 0,0,1
EndSplineSet
EndChar

StartChar: registered
Encoding: 174 174 111
Width: 1216
GlyphClass: 2
Flags: W
LayerCount: 2
UndoRedoHistory
Layer: 1
Undoes
EndUndoes
Redoes
EndRedoes
EndUndoRedoHistory
Fore
SplineSet
636 -190 m 0,0,1
 554 -190 554 -190 485.5 -170 c 128,-1,2
 417 -150 417 -150 366.5 -117 c 128,-1,3
 316 -84 316 -84 275 -32.5 c 128,-1,4
 234 19 234 19 207 73 c 128,-1,5
 180 127 180 127 160 198.5 c 128,-1,6
 140 270 140 270 129 333.5 c 128,-1,7
 118 397 118 397 111.5 477.5 c 128,-1,8
 105 558 105 558 103.5 619 c 128,-1,9
 102 680 102 680 102 757 c 2,10,-1
 102 917 l 2,11,12
 102 990 102 990 103.5 1051.5 c 128,-1,13
 105 1113 105 1113 111.5 1196.5 c 128,-1,14
 118 1280 118 1280 129 1349 c 128,-1,15
 140 1418 140 1418 160 1496.5 c 128,-1,16
 180 1575 180 1575 207 1636.5 c 128,-1,17
 234 1698 234 1698 274.5 1756 c 128,-1,18
 315 1814 315 1814 365 1852.5 c 128,-1,19
 415 1891 415 1891 483.5 1914.5 c 128,-1,20
 552 1938 552 1938 632 1938 c 0,21,22
 720 1938 720 1938 802 1886 c 128,-1,23
 884 1834 884 1834 942 1755 c 1,24,25
 985 1729 985 1729 1020.5 1600 c 128,-1,26
 1056 1471 1056 1471 1075 1310.5 c 128,-1,27
 1094 1150 1094 1150 1104 1015 c 128,-1,28
 1114 880 1114 880 1114 807 c 0,29,30
 1114 729 1114 729 1113.5 683 c 128,-1,31
 1113 637 1113 637 1108.5 547 c 128,-1,32
 1104 457 1104 457 1096 397.5 c 128,-1,33
 1088 338 1088 338 1071.5 254 c 128,-1,34
 1055 170 1055 170 1032 113.5 c 128,-1,35
 1009 57 1009 57 972 -5.5 c 128,-1,36
 935 -68 935 -68 889 -104.5 c 128,-1,37
 843 -141 843 -141 778 -165.5 c 128,-1,38
 713 -190 713 -190 636 -190 c 0,0,1
874 1655 m 0,39,40
 849 1705 849 1705 772.5 1768.5 c 128,-1,41
 696 1832 696 1832 647 1832 c 0,42,43
 222 1832 222 1832 222 954 c 0,44,45
 222 181 222 181 362 27 c 0,46,47
 383 4 383 4 427.5 -25 c 128,-1,48
 472 -54 472 -54 485 -64 c 1,49,-1
 545 -76 l 1,50,-1
 564 -84 l 1,51,52
 632 -83 632 -83 689 -65 c 128,-1,53
 746 -47 746 -47 787.5 -18.5 c 128,-1,54
 829 10 829 10 862.5 55 c 128,-1,55
 896 100 896 100 917.5 145 c 128,-1,56
 939 190 939 190 955 251 c 128,-1,57
 971 312 971 312 979.5 363.5 c 128,-1,58
 988 415 988 415 993 482.5 c 128,-1,59
 998 550 998 550 999 597 c 128,-1,60
 1000 644 1000 644 1000 706 c 0,61,62
 1000 732 1000 732 1000.5 785.5 c 128,-1,63
 1001 839 1001 839 1001 866 c 0,64,65
 1001 1119 1001 1119 977 1306.5 c 128,-1,66
 953 1494 953 1494 874 1655 c 0,39,40
895 199 m 0,67,68
 895 181 895 181 875 162 c 128,-1,69
 855 143 855 143 838 143 c 0,70,71
 796 143 796 143 750.5 249 c 128,-1,72
 705 355 705 355 674.5 483 c 128,-1,73
 644 611 644 611 612.5 746.5 c 128,-1,74
 581 882 581 882 568 914 c 1,75,-1
 513 891 l 1,76,77
 508 811 508 811 508 796 c 0,78,79
 508 698 508 698 530.5 503 c 128,-1,80
 553 308 553 308 553 210 c 0,81,82
 553 181 553 181 539 162 c 128,-1,83
 525 143 525 143 497 143 c 128,-1,84
 469 143 469 143 446.5 161.5 c 128,-1,85
 424 180 424 180 424 208 c 0,86,87
 424 216 424 216 424.5 232 c 128,-1,88
 425 248 425 248 425 256 c 0,89,90
 425 379 425 379 416 470 c 0,91,92
 414 490 414 490 402 563 c 128,-1,93
 390 636 390 636 390 676 c 2,94,-1
 390 1075 l 2,95,96
 390 1138 390 1138 377.5 1264 c 128,-1,97
 365 1390 365 1390 365 1454 c 0,98,99
 365 1559 365 1559 418 1597 c 128,-1,100
 471 1635 471 1635 581 1635 c 0,101,102
 641 1635 641 1635 685 1612 c 128,-1,103
 729 1589 729 1589 753.5 1554 c 128,-1,104
 778 1519 778 1519 793 1468 c 128,-1,105
 808 1417 808 1417 812.5 1371.5 c 128,-1,106
 817 1326 817 1326 817 1270 c 0,107,108
 817 1201 817 1201 803.5 1148.5 c 128,-1,109
 790 1096 790 1096 770 1067.5 c 128,-1,110
 750 1039 750 1039 730.5 1021 c 128,-1,111
 711 1003 711 1003 695 990.5 c 128,-1,112
 679 978 679 978 676 969 c 1,113,114
 679 900 679 900 858 314 c 1,115,-1
 865 314 l 1,116,117
 865 292 865 292 880 255.5 c 128,-1,118
 895 219 895 219 895 199 c 0,67,68
587 1525 m 0,119,120
 524 1525 524 1525 501.5 1494.5 c 128,-1,121
 479 1464 479 1464 479 1407 c 0,122,123
 479 1386 479 1386 483 1337 c 128,-1,124
 487 1288 487 1288 487 1263 c 0,125,126
 487 1090 487 1090 510 1000 c 1,127,128
 695 1075 695 1075 695 1272 c 2,129,-1
 695 1280 l 2,130,131
 695 1307 695 1307 694 1326 c 128,-1,132
 693 1345 693 1345 690.5 1377.5 c 128,-1,133
 688 1410 688 1410 680.5 1432.5 c 128,-1,134
 673 1455 673 1455 662 1478 c 128,-1,135
 651 1501 651 1501 631.5 1513 c 128,-1,136
 612 1525 612 1525 587 1525 c 0,119,120
EndSplineSet
EndChar

StartChar: paragraph
Encoding: 182 182 119
Width: 887
GlyphClass: 2
Flags: W
LayerCount: 2
UndoRedoHistory
Layer: 1
Undoes
EndUndoes
Redoes
EndRedoes
EndUndoRedoHistory
Fore
SplineSet
149 1454 m 1,0,-1
 148 1455 l 1,1,2
 148 1388 148 1388 166 1339.5 c 128,-1,3
 184 1291 184 1291 212 1263.5 c 128,-1,4
 240 1236 240 1236 287 1220.5 c 128,-1,5
 334 1205 334 1205 379.5 1200.5 c 128,-1,6
 425 1196 425 1196 491 1196 c 0,7,8
 493 1196 493 1196 495.5 1196.5 c 128,-1,9
 498 1197 498 1197 501.5 1198.5 c 128,-1,10
 505 1200 505 1200 506 1200 c 1,11,12
 506 1283 506 1283 496 1448.5 c 128,-1,13
 486 1614 486 1614 486 1697 c 1,14,-1
 488 1740 l 1,15,16
 461 1748 461 1748 406 1748 c 0,17,18
 300 1748 300 1748 224.5 1655 c 128,-1,19
 149 1562 149 1562 149 1454 c 1,0,-1
780 1739 m 1,20,21
 780 1644 780 1644 787 1444.5 c 128,-1,22
 794 1245 794 1245 794 1142 c 0,23,24
 794 996 794 996 788 703.5 c 128,-1,25
 782 411 782 411 782 265 c 0,26,27
 782 227 782 227 788 150.5 c 128,-1,28
 794 74 794 74 794 36 c 0,29,30
 794 12 794 12 777 -4 c 128,-1,31
 760 -20 760 -20 736 -20 c 0,32,33
 661 -20 661 -20 661 103 c 0,34,35
 661 282 661 282 670.5 640 c 128,-1,36
 680 998 680 998 680 1177 c 0,37,38
 680 1251 680 1251 672.5 1399.5 c 128,-1,39
 665 1548 665 1548 665 1623 c 0,40,41
 665 1632 665 1632 666.5 1654.5 c 128,-1,42
 668 1677 668 1677 668 1689 c 0,43,44
 668 1769 668 1769 606 1769 c 0,45,46
 597 1769 597 1769 597 1689 c 0,47,48
 597 1570 597 1570 610.5 1334 c 128,-1,49
 624 1098 624 1098 624 980 c 0,50,51
 624 827 624 827 605 522 c 128,-1,52
 586 217 586 217 586 64 c 0,53,54
 586 28 586 28 573.5 10 c 128,-1,55
 561 -8 561 -8 527 -8 c 0,56,57
 500 -8 500 -8 482.5 10.5 c 128,-1,58
 465 29 465 29 465 56 c 0,59,60
 465 208 465 208 486.5 510 c 128,-1,61
 508 812 508 812 508 964 c 0,62,63
 508 990 508 990 506 1036.5 c 128,-1,64
 504 1083 504 1083 504 1098 c 1,65,66
 443 1098 443 1098 394.5 1101.5 c 128,-1,67
 346 1105 346 1105 284.5 1118.5 c 128,-1,68
 223 1132 223 1132 179 1154.5 c 128,-1,69
 135 1177 135 1177 98.5 1220 c 128,-1,70
 62 1263 62 1263 49 1321 c 0,71,72
 48 1326 48 1326 44.5 1349 c 128,-1,73
 41 1372 41 1372 36 1384 c 1,74,75
 36 1474 36 1474 49 1542.5 c 128,-1,76
 62 1611 62 1611 91.5 1660.5 c 128,-1,77
 121 1710 121 1710 159.5 1743.5 c 128,-1,78
 198 1777 198 1777 257 1799 c 128,-1,79
 316 1821 316 1821 379.5 1833.5 c 128,-1,80
 443 1846 443 1846 531 1854 c 1,81,82
 553 1876 553 1876 593 1876 c 0,83,84
 609 1876 609 1876 638.5 1868 c 128,-1,85
 668 1860 668 1860 673 1859 c 1,86,-1
 672 1858 l 1,87,-1
 728 1865 l 1,88,-1
 737 1854 l 1,89,90
 753 1853 753 1853 771.5 1849.5 c 128,-1,91
 790 1846 790 1846 811 1839.5 c 128,-1,92
 832 1833 832 1833 846 1820 c 128,-1,93
 860 1807 860 1807 860 1790 c 0,94,95
 860 1768 860 1768 843 1753 c 128,-1,96
 826 1738 826 1738 803 1738 c 0,97,98
 799 1738 799 1738 791.5 1738.5 c 128,-1,99
 784 1739 784 1739 780 1739 c 1,20,21
EndSplineSet
EndChar

StartChar: AE
Encoding: 198 198 135
Width: 879
GlyphClass: 2
Flags: W
LayerCount: 2
UndoRedoHistory
Layer: 1
Undoes
EndUndoes
Redoes
EndRedoes
EndUndoRedoHistory
Fore
SplineSet
453 706 m 1,0,1
 454 756 454 756 457.5 912 c 128,-1,2
 461 1068 461 1068 461 1153 c 0,3,4
 461 1240 461 1240 459 1283 c 1,5,6
 346 906 346 906 300 688 c 1,7,8
 397 694 397 694 453 706 c 1,0,1
448 2 m 1,9,-1
 450 3 l 1,10,11
 467 179 467 179 467 253 c 0,12,13
 467 316 467 316 462 443 c 128,-1,14
 457 570 457 570 457 633 c 1,15,16
 442 632 442 632 413.5 630.5 c 128,-1,17
 385 629 385 629 367 627.5 c 128,-1,18
 349 626 349 626 324.5 622 c 128,-1,19
 300 618 300 618 280 611 c 1,20,-1
 179 226 l 2,21,22
 177 217 177 217 168.5 172 c 128,-1,23
 160 127 160 127 152 94 c 128,-1,24
 144 61 144 61 125.5 31 c 128,-1,25
 107 1 107 1 84 1 c 0,26,27
 68 1 68 1 56 16 c 128,-1,28
 44 31 44 31 44 48 c 0,29,30
 44 97 44 97 58 179.5 c 128,-1,31
 72 262 72 262 99.5 372 c 128,-1,32
 127 482 127 482 154.5 583 c 128,-1,33
 182 684 182 684 222.5 818.5 c 128,-1,34
 263 953 263 953 287.5 1033.5 c 128,-1,35
 312 1114 312 1114 350 1234.5 c 128,-1,36
 388 1355 388 1355 396 1380 c 0,37,38
 396 1381 396 1381 403 1406 c 128,-1,39
 410 1431 410 1431 413 1438.5 c 128,-1,40
 416 1446 416 1446 424 1467.5 c 128,-1,41
 432 1489 432 1489 439.5 1498 c 128,-1,42
 447 1507 447 1507 458 1520.5 c 128,-1,43
 469 1534 469 1534 482.5 1539 c 128,-1,44
 496 1544 496 1544 512 1544 c 0,45,46
 538 1544 538 1544 591 1549 c 128,-1,47
 644 1554 644 1554 670 1554 c 0,48,49
 757 1554 757 1554 757 1498 c 2,50,-1
 757 1492 l 1,51,-1
 736 1450 l 1,52,53
 633 1450 633 1450 542 1440 c 1,54,55
 543 1400 543 1400 549.5 1308 c 128,-1,56
 556 1216 556 1216 556 1166 c 0,57,58
 556 1091 556 1091 553 941 c 128,-1,59
 550 791 550 791 550 716 c 1,60,61
 570 718 570 718 620 726.5 c 128,-1,62
 670 735 670 735 698 735 c 2,63,-1
 708 735 l 1,64,-1
 750 687 l 1,65,66
 750 621 750 621 637 621 c 2,67,-1
 628 621 l 1,68,-1
 549 622 l 1,69,70
 549 545 549 545 552 362.5 c 128,-1,71
 555 180 555 180 555 82 c 1,72,73
 592 82 592 82 667.5 92.5 c 128,-1,74
 743 103 743 103 782 103 c 0,75,76
 807 103 807 103 828.5 89.5 c 128,-1,77
 850 76 850 76 850 53 c 0,78,79
 850 -12 850 -12 606 -12 c 2,80,-1
 574 -12 l 2,81,82
 558 -12 558 -12 532 -26.5 c 128,-1,83
 506 -41 506 -41 493 -43 c 1,84,-1
 448 2 l 1,9,-1
EndSplineSet
EndChar

StartChar: Oslash
Encoding: 216 216 153
Width: 728
GlyphClass: 2
Flags: W
LayerCount: 2
UndoRedoHistory
Layer: 1
Undoes
EndUndoes
Redoes
EndRedoes
EndUndoRedoHistory
Fore
SplineSet
329 1477 m 0,0,1
 305 1477 305 1477 285.5 1456 c 128,-1,2
 266 1435 266 1435 252.5 1396.5 c 128,-1,3
 239 1358 239 1358 228.5 1314 c 128,-1,4
 218 1270 218 1270 212.5 1212.5 c 128,-1,5
 207 1155 207 1155 203 1108.5 c 128,-1,6
 199 1062 199 1062 197.5 1006 c 128,-1,7
 196 950 196 950 195.5 922 c 128,-1,8
 195 894 195 894 195 861 c 2,9,-1
 195 852 l 2,10,11
 195 785 195 785 206.5 652 c 128,-1,12
 218 519 218 519 240 396 c 1,13,-1
 422 1415 l 1,14,15
 382 1477 382 1477 329 1477 c 0,0,1
471 1299 m 1,16,-1
 276 239 l 1,17,18
 329 55 329 55 405 55 c 0,19,20
 446 55 446 55 474.5 132 c 128,-1,21
 503 209 503 209 514.5 323.5 c 128,-1,22
 526 438 526 438 530.5 517 c 128,-1,23
 535 596 535 596 535 653 c 0,24,25
 535 1080 535 1080 471 1299 c 1,16,-1
250 47 m 1,26,-1
 178 -280 l 1,27,-1
 133 -224 l 1,28,-1
 195 143 l 1,29,30
 142 281 142 281 122.5 467 c 128,-1,31
 103 653 103 653 103 799 c 0,32,33
 103 828 103 828 101.5 909 c 128,-1,34
 100 990 100 990 100 1039 c 0,35,36
 100 1099 100 1099 102 1149 c 128,-1,37
 104 1199 104 1199 109.5 1257 c 128,-1,38
 115 1315 115 1315 125 1360.5 c 128,-1,39
 135 1406 135 1406 151.5 1449 c 128,-1,40
 168 1492 168 1492 190.5 1521 c 128,-1,41
 213 1550 213 1550 246 1567.5 c 128,-1,42
 279 1585 279 1585 319 1585 c 0,43,44
 391 1585 391 1585 445 1545 c 1,45,-1
 490 1799 l 1,46,-1
 569 1799 l 1,47,-1
 505 1481 l 1,48,49
 546 1421 546 1421 572.5 1331.5 c 128,-1,50
 599 1242 599 1242 610.5 1131 c 128,-1,51
 622 1020 622 1020 625.5 933 c 128,-1,52
 629 846 629 846 629 734 c 0,53,54
 629 712 629 712 628.5 673.5 c 128,-1,55
 628 635 628 635 628 618 c 0,56,57
 628 573 628 573 619 487 c 128,-1,58
 610 401 610 401 610 359 c 2,59,-1
 610 350 l 1,60,61
 597 293 597 293 597 215 c 0,62,63
 597 161 597 161 574 99.5 c 128,-1,64
 551 38 551 38 504 -9.5 c 128,-1,65
 457 -57 457 -57 401 -57 c 0,66,67
 353 -57 353 -57 318 -31 c 128,-1,68
 283 -5 283 -5 250 47 c 1,26,-1
EndSplineSet
EndChar

StartChar: germandbls
Encoding: 223 223 160
Width: 576
GlyphClass: 2
Flags: W
LayerCount: 2
UndoRedoHistory
Layer: 1
Undoes
EndUndoes
Redoes
EndRedoes
EndUndoRedoHistory
Fore
SplineSet
338 49 m 0,0,1
 337 49 337 49 333.5 47.5 c 128,-1,2
 330 46 330 46 327.5 45.5 c 128,-1,3
 325 45 325 45 323 45 c 0,4,5
 306 45 306 45 290 55 c 128,-1,6
 274 65 274 65 274 81 c 128,-1,7
 274 97 274 97 297 131 c 128,-1,8
 320 165 320 165 347.5 201 c 128,-1,9
 375 237 375 237 398 294 c 128,-1,10
 421 351 421 351 421 409 c 0,11,12
 421 515 421 515 402.5 592.5 c 128,-1,13
 384 670 384 670 358 708.5 c 128,-1,14
 332 747 332 747 306 772 c 128,-1,15
 280 797 280 797 261.5 815.5 c 128,-1,16
 243 834 243 834 243 854 c 0,17,18
 243 869 243 869 272.5 940 c 128,-1,19
 302 1011 302 1011 331.5 1106 c 128,-1,20
 361 1201 361 1201 361 1274 c 0,21,22
 361 1295 361 1295 356.5 1325.5 c 128,-1,23
 352 1356 352 1356 342.5 1390.5 c 128,-1,24
 333 1425 333 1425 314 1449 c 128,-1,25
 295 1473 295 1473 271 1473 c 0,26,27
 244 1473 244 1473 223.5 1453.5 c 128,-1,28
 203 1434 203 1434 192.5 1404 c 128,-1,29
 182 1374 182 1374 177.5 1346 c 128,-1,30
 173 1318 173 1318 173 1294 c 0,31,32
 173 1086 173 1086 188.5 670.5 c 128,-1,33
 204 255 204 255 204 46 c 0,34,35
 204 3 204 3 190.5 -22 c 128,-1,36
 177 -47 177 -47 138 -47 c 0,37,38
 78 -47 78 -47 78 4 c 0,39,40
 78 93 78 93 83 271 c 128,-1,41
 88 449 88 449 88 538 c 0,42,43
 88 656 88 656 80.5 893 c 128,-1,44
 73 1130 73 1130 73 1249 c 0,45,46
 73 1292 73 1292 77.5 1333 c 128,-1,47
 82 1374 82 1374 95 1421.5 c 128,-1,48
 108 1469 108 1469 129 1503.5 c 128,-1,49
 150 1538 150 1538 187 1561.5 c 128,-1,50
 224 1585 224 1585 271 1585 c 0,51,52
 326 1585 326 1585 366 1550.5 c 128,-1,53
 406 1516 406 1516 425.5 1460 c 128,-1,54
 445 1404 445 1404 453 1352 c 128,-1,55
 461 1300 461 1300 461 1249 c 0,56,57
 461 1066 461 1066 335 859 c 1,58,59
 445 776 445 776 482.5 685.5 c 128,-1,60
 520 595 520 595 520 444 c 0,61,62
 520 329 520 329 472.5 223.5 c 128,-1,63
 425 118 425 118 338 49 c 0,0,1
EndSplineSet
EndChar

StartChar: ae
Encoding: 230 230 167
Width: 879
GlyphClass: 2
Flags: W
LayerCount: 2
UndoRedoHistory
Layer: 1
Undoes
EndUndoes
Redoes
EndRedoes
EndUndoRedoHistory
Fore
SplineSet
493 -13 m 0,0,1
 479 -13 479 -13 465 -4 c 128,-1,2
 451 5 451 5 451 19 c 0,3,4
 451 57 451 57 459 135.5 c 128,-1,5
 467 214 467 214 467 253 c 0,6,7
 467 310 467 310 462 423 c 128,-1,8
 457 536 457 536 457 593 c 1,9,10
 442 592 442 592 413.5 590.5 c 128,-1,11
 385 589 385 589 367 587.5 c 128,-1,12
 349 586 349 586 324.5 582 c 128,-1,13
 300 578 300 578 280 571 c 1,14,-1
 179 226 l 2,15,16
 176 216 176 216 168 171.5 c 128,-1,17
 160 127 160 127 152 93.5 c 128,-1,18
 144 60 144 60 126 30.5 c 128,-1,19
 108 1 108 1 84 1 c 0,20,21
 68 1 68 1 56 16 c 128,-1,22
 44 31 44 31 44 48 c 0,23,24
 44 117 44 117 91 284 c 128,-1,25
 138 451 138 451 187 593 c 128,-1,26
 236 735 236 735 310.5 941.5 c 128,-1,27
 385 1148 385 1148 396 1180 c 0,28,29
 400 1191 400 1191 408.5 1220.5 c 128,-1,30
 417 1250 417 1250 423 1264.5 c 128,-1,31
 429 1279 429 1279 440.5 1299 c 128,-1,32
 452 1319 452 1319 470 1330 c 128,-1,33
 488 1341 488 1341 512 1344 c 0,34,35
 588 1354 588 1354 670 1354 c 0,36,37
 757 1354 757 1354 757 1298 c 2,38,-1
 757 1292 l 1,39,-1
 736 1250 l 1,40,41
 672 1240 672 1240 542 1240 c 1,42,43
 543 1200 543 1200 549.5 1108 c 128,-1,44
 556 1016 556 1016 556 966 c 0,45,46
 556 918 556 918 553 821 c 128,-1,47
 550 724 550 724 550 676 c 1,48,49
 570 677 570 677 624 681 c 128,-1,50
 678 685 678 685 708 685 c 1,51,-1
 750 647 l 1,52,53
 750 597 750 597 650 597 c 2,54,-1
 628 597 l 1,55,-1
 549 598 l 1,56,57
 549 524 549 524 552 350 c 128,-1,58
 555 176 555 176 555 82 c 1,59,60
 592 82 592 82 667.5 92.5 c 128,-1,61
 743 103 743 103 782 103 c 0,62,63
 807 103 807 103 828.5 89.5 c 128,-1,64
 850 76 850 76 850 53 c 0,65,66
 850 -14 850 -14 573 -14 c 0,67,68
 552 -14 552 -14 524.5 -13.5 c 128,-1,69
 497 -13 497 -13 493 -13 c 0,0,1
453 666 m 1,70,71
 454 698 454 698 457.5 798 c 128,-1,72
 461 898 461 898 461 953 c 0,73,74
 461 1040 461 1040 459 1083 c 1,75,76
 454 1070 454 1070 435 1023.5 c 128,-1,77
 416 977 416 977 408.5 959 c 128,-1,78
 401 941 401 941 385 900.5 c 128,-1,79
 369 860 369 860 360.5 835.5 c 128,-1,80
 352 811 352 811 339.5 776 c 128,-1,81
 327 741 327 741 317.5 710 c 128,-1,82
 308 679 308 679 300 648 c 1,83,84
 387 651 387 651 453 666 c 1,70,71
EndSplineSet
EndChar

StartChar: oslash
Encoding: 248 248 185
Width: 741
GlyphClass: 2
Flags: W
LayerCount: 2
UndoRedoHistory
Layer: 1
Undoes
EndUndoes
Redoes
EndRedoes
EndUndoRedoHistory
Fore
SplineSet
192 -227 m 1,0,-1
 230 32 l 1,1,2
 191 79 191 79 164 156 c 128,-1,3
 137 233 137 233 125 321 c 128,-1,4
 113 409 113 409 108 481 c 128,-1,5
 103 553 103 553 103 626 c 0,6,7
 103 643 103 643 104 667 c 128,-1,8
 105 691 105 691 105 704 c 0,9,10
 105 714 105 714 102 714 c 1,11,-1
 102 751 l 2,12,13
 102 786 102 786 102.5 810.5 c 128,-1,14
 103 835 103 835 104.5 894 c 128,-1,15
 106 953 106 953 110 998 c 128,-1,16
 114 1043 114 1043 120.5 1104 c 128,-1,17
 127 1165 127 1165 139 1209 c 128,-1,18
 151 1253 151 1253 166.5 1294 c 128,-1,19
 182 1335 182 1335 205 1356.5 c 128,-1,20
 228 1378 228 1378 256 1378 c 0,21,22
 354 1378 354 1378 426 1338 c 1,23,-1
 462 1560 l 1,24,-1
 523 1560 l 1,25,-1
 483 1296 l 1,26,27
 636 1155 636 1155 636 798 c 2,28,-1
 636 783 l 2,29,30
 636 744 636 744 638 666.5 c 128,-1,31
 640 589 640 589 640 551 c 0,32,33
 640 -38 640 -38 367 -38 c 0,34,35
 322 -38 322 -38 286 -17 c 1,36,-1
 242 -274 l 1,37,-1
 192 -227 l 1,0,-1
302 89 m 1,38,39
 328 47 328 47 359 47 c 0,40,41
 396 47 396 47 426 77 c 128,-1,42
 456 107 456 107 473.5 157.5 c 128,-1,43
 491 208 491 208 503 263.5 c 128,-1,44
 515 319 515 319 520.5 382 c 128,-1,45
 526 445 526 445 528 486.5 c 128,-1,46
 530 528 530 528 530 564 c 0,47,48
 530 645 530 645 516.5 804 c 128,-1,49
 503 963 503 963 503 1041 c 2,50,-1
 503 1077 l 1,51,52
 501 1140 501 1140 468 1192 c 1,53,-1
 302 89 l 1,38,39
258 215 m 1,54,-1
 412 1247 l 1,55,56
 376 1269 376 1269 334 1269 c 0,57,58
 299 1269 299 1269 275.5 1248.5 c 128,-1,59
 252 1228 252 1228 241 1190 c 128,-1,60
 230 1152 230 1152 226 1114 c 128,-1,61
 222 1076 222 1076 222 1027 c 0,62,63
 222 1002 222 1002 223 961 c 128,-1,64
 224 920 224 920 224 906 c 0,65,66
 224 874 224 874 219 811 c 128,-1,67
 214 748 214 748 214 717 c 0,68,69
 214 414 214 414 258 215 c 1,54,-1
EndSplineSet
EndChar

StartChar: Eng
Encoding: 330 330 204
Width: 737
GlyphClass: 2
Flags: W
LayerCount: 2
UndoRedoHistory
Layer: 1
Undoes
EndUndoes
Redoes
EndRedoes
EndUndoRedoHistory
Fore
SplineSet
542 -113 m 0,0,1
 542 -89 542 -89 542.5 -41 c 128,-1,2
 543 7 543 7 543 32 c 1,3,4
 480 169 480 169 373.5 542 c 128,-1,5
 267 915 267 915 171 1298 c 1,6,-1
 171 626 l 2,7,8
 171 528 171 528 185.5 334 c 128,-1,9
 200 140 200 140 200 42 c 0,10,11
 200 23 200 23 177 10.5 c 128,-1,12
 154 -2 154 -2 128 -2 c 0,13,14
 83 -2 83 -2 83 30 c 0,15,16
 83 43 83 43 88 91 c 128,-1,17
 93 139 93 139 93 177 c 0,18,19
 93 283 93 283 80 521 c 128,-1,20
 67 759 67 759 67 812 c 2,21,-1
 67 1073 l 2,22,23
 67 1136 67 1136 74 1261 c 128,-1,24
 81 1386 81 1386 81 1449 c 2,25,-1
 81 1462 l 2,26,27
 81 1564 81 1564 126 1564 c 0,28,29
 154 1564 154 1564 195 1475 c 128,-1,30
 236 1386 236 1386 279.5 1245.5 c 128,-1,31
 323 1105 323 1105 366 946.5 c 128,-1,32
 409 788 409 788 446 632.5 c 128,-1,33
 483 477 483 477 506 376.5 c 128,-1,34
 529 276 529 276 538 235 c 2,35,-1
 540 225 l 1,36,37
 540 344 540 344 544 582 c 128,-1,38
 548 820 548 820 548 939 c 2,39,-1
 548 1545 l 1,40,41
 560 1596 560 1596 615 1596 c 128,-1,42
 670 1596 670 1596 670 1516 c 2,43,-1
 670 1504 l 1,44,45
 668 1499 668 1499 660.5 1486 c 128,-1,46
 653 1473 653 1473 649 1463 c 128,-1,47
 645 1453 645 1453 645 1444 c 2,48,-1
 645 42 l 2,49,50
 645 -13 645 -13 644.5 -50 c 128,-1,51
 644 -87 644 -87 639.5 -121 c 128,-1,52
 635 -155 635 -155 632 -174.5 c 128,-1,53
 629 -194 629 -194 618 -216 c 128,-1,54
 607 -238 607 -238 599 -249 c 128,-1,55
 591 -260 591 -260 571 -278.5 c 128,-1,56
 551 -297 551 -297 536 -308 c 128,-1,57
 521 -319 521 -319 490 -343.5 c 128,-1,58
 459 -368 459 -368 434 -388 c 1,59,60
 402 -388 402 -388 381 -372 c 128,-1,61
 360 -356 360 -356 360 -325 c 0,62,63
 360 -298 360 -298 378.5 -277.5 c 128,-1,64
 397 -257 397 -257 424 -243.5 c 128,-1,65
 451 -230 451 -230 478 -214.5 c 128,-1,66
 505 -199 505 -199 523.5 -173.5 c 128,-1,67
 542 -148 542 -148 542 -113 c 0,0,1
EndSplineSet
EndChar

StartChar: Eth
Encoding: 208 208 206
Width: 810
GlyphClass: 2
Flags: W
LayerCount: 2
UndoRedoHistory
Layer: 1
Undoes
EndUndoes
Redoes
EndRedoes
EndUndoRedoHistory
Fore
SplineSet
168 -5 m 0,0,1
 130 -5 130 -5 99 12.5 c 128,-1,2
 68 30 68 30 68 65 c 1,3,4
 113 112 113 112 113 306 c 0,5,6
 113 380 113 380 108 461.5 c 128,-1,7
 103 543 103 543 94 647.5 c 128,-1,8
 85 752 85 752 82 802 c 1,9,10
 40 795 40 795 8 795 c 0,11,12
 -16 795 -16 795 -30 812.5 c 128,-1,13
 -44 830 -44 830 -44 854 c 0,14,15
 -44 888 -44 888 -6.5 901 c 128,-1,16
 31 914 31 914 76 914 c 1,17,18
 75 937 75 937 75 982 c 0,19,20
 75 1018 75 1018 78 1093 c 128,-1,21
 81 1168 81 1168 81 1206 c 0,22,23
 81 1260 81 1260 58.5 1351.5 c 128,-1,24
 36 1443 36 1443 36 1481 c 0,25,26
 36 1552 36 1552 193 1552 c 2,27,-1
 224 1552 l 2,28,29
 283 1552 283 1552 332.5 1533 c 128,-1,30
 382 1514 382 1514 417 1484 c 128,-1,31
 452 1454 452 1454 480.5 1408.5 c 128,-1,32
 509 1363 509 1363 527 1318.5 c 128,-1,33
 545 1274 545 1274 558.5 1216.5 c 128,-1,34
 572 1159 572 1159 578.5 1115 c 128,-1,35
 585 1071 585 1071 588.5 1016.5 c 128,-1,36
 592 962 592 962 592.5 933 c 128,-1,37
 593 904 593 904 593 868 c 2,38,-1
 593 773 l 1,39,40
 588 765 588 765 588 754.5 c 128,-1,41
 588 744 588 744 590.5 731 c 128,-1,42
 593 718 593 718 593 711 c 0,43,44
 593 647 593 647 573.5 557 c 128,-1,45
 554 467 554 467 515.5 369 c 128,-1,46
 477 271 477 271 427 187.5 c 128,-1,47
 377 104 377 104 308.5 49.5 c 128,-1,48
 240 -5 240 -5 168 -5 c 0,0,1
190 814 m 1,49,50
 211 493 211 493 211 310 c 2,51,-1
 211 114 l 1,52,53
 288 164 288 164 345 253.5 c 128,-1,54
 402 343 402 343 431.5 449 c 128,-1,55
 461 555 461 555 474.5 655.5 c 128,-1,56
 488 756 488 756 488 854 c 0,57,58
 488 912 488 912 483 969 c 128,-1,59
 478 1026 478 1026 466.5 1094.5 c 128,-1,60
 455 1163 455 1163 430.5 1220 c 128,-1,61
 406 1277 406 1277 372 1325.5 c 128,-1,62
 338 1374 338 1374 284 1401.5 c 128,-1,63
 230 1429 230 1429 162 1429 c 1,64,-1
 162 1427 l 2,65,66
 162 1243 162 1243 183 924 c 1,67,68
 309 940 309 940 347 940 c 0,69,70
 376 940 376 940 394 915 c 128,-1,71
 412 890 412 890 414 860 c 1,72,-1
 380 819 l 1,73,74
 269 819 269 819 190 814 c 1,49,50
EndSplineSet
EndChar

StartChar: Euro
Encoding: 8364 8364 207
Width: 649
GlyphClass: 2
Flags: W
LayerCount: 2
UndoRedoHistory
Layer: 1
Undoes
EndUndoes
Redoes
EndRedoes
EndUndoRedoHistory
Fore
SplineSet
368 700 m 0,0,1
 368 652 368 652 210 652 c 0,2,3
 200 652 200 652 186.5 652.5 c 128,-1,4
 173 653 173 653 170 653 c 1,5,6
 206 208 206 208 239 160 c 0,7,8
 285 93 285 93 393 93 c 0,9,10
 475 93 475 93 525 152 c 1,11,12
 560 152 560 152 590 162 c 1,13,-1
 617 135 l 1,14,15
 617 97 617 97 601 67 c 128,-1,16
 585 37 585 37 559.5 19 c 128,-1,17
 534 1 534 1 500 -11.5 c 128,-1,18
 466 -24 466 -24 433 -28.5 c 128,-1,19
 400 -33 400 -33 366 -33 c 0,20,21
 321 -33 321 -33 282.5 -19 c 128,-1,22
 244 -5 244 -5 216.5 18 c 128,-1,23
 189 41 189 41 166.5 77 c 128,-1,24
 144 113 144 113 129.5 149.5 c 128,-1,25
 115 186 115 186 103.5 234.5 c 128,-1,26
 92 283 92 283 86 323.5 c 128,-1,27
 80 364 80 364 76 416 c 128,-1,28
 72 468 72 468 70.5 503.5 c 128,-1,29
 69 539 69 539 67 585.5 c 128,-1,30
 65 632 65 632 64 654 c 1,31,-1
 -15 657 l 1,32,33
 -28 668 -28 668 -28 687 c 0,34,35
 -28 724 -28 724 44 724 c 2,36,-1
 60 724 l 1,37,-1
 56 808 l 1,38,-1
 -16 808 l 1,39,40
 -35 815 -35 815 -35 845 c 0,41,42
 -35 866 -35 866 -24.5 871.5 c 128,-1,43
 -14 877 -14 877 10 877 c 2,44,-1
 55 877 l 1,45,46
 55 903 55 903 54 957 c 128,-1,47
 53 1011 53 1011 53 1038 c 0,48,49
 53 1147 53 1147 67 1226 c 1,50,51
 61 1259 61 1259 61 1289 c 0,52,53
 61 1415 61 1415 155 1490 c 128,-1,54
 249 1565 249 1565 387 1565 c 0,55,56
 436 1565 436 1565 483 1537.5 c 128,-1,57
 530 1510 530 1510 530 1465 c 0,58,59
 530 1443 530 1443 513 1431 c 128,-1,60
 496 1419 496 1419 473 1419 c 0,61,62
 453 1419 453 1419 418.5 1433.5 c 128,-1,63
 384 1448 384 1448 372 1448 c 0,64,65
 331 1448 331 1448 299 1438.5 c 128,-1,66
 267 1429 267 1429 246 1414.5 c 128,-1,67
 225 1400 225 1400 210 1374.5 c 128,-1,68
 195 1349 195 1349 187.5 1326.5 c 128,-1,69
 180 1304 180 1304 176 1267.5 c 128,-1,70
 172 1231 172 1231 171 1206 c 128,-1,71
 170 1181 170 1181 170 1140 c 0,72,73
 170 981 170 981 159 879 c 1,74,75
 161 879 161 879 183.5 879.5 c 128,-1,76
 206 880 206 880 224 880 c 0,77,78
 361 880 361 880 361 852 c 0,79,80
 361 833 361 833 347 821 c 1,81,82
 297 815 297 815 159 811 c 1,83,-1
 164 725 l 1,84,85
 307 727 307 727 354 731 c 1,86,87
 368 719 368 719 368 700 c 0,0,1
EndSplineSet
EndChar

StartChar: Hbar
Encoding: 294 294 211
Width: 560
GlyphClass: 2
Flags: W
LayerCount: 2
UndoRedoHistory
Layer: 1
Undoes
EndUndoes
Redoes
EndRedoes
EndUndoRedoHistory
Fore
SplineSet
271 1265 m 0,0,1
 248 1265 248 1265 207 1263 c 128,-1,2
 166 1261 166 1261 156 1261 c 1,3,4
 157 1225 157 1225 160.5 1159.5 c 128,-1,5
 164 1094 164 1094 166 1040.5 c 128,-1,6
 168 987 168 987 168 939 c 0,7,8
 168 927 168 927 167 901 c 128,-1,9
 166 875 166 875 166 862 c 0,10,11
 166 833 166 833 170 809 c 1,12,13
 203 810 203 810 269 816.5 c 128,-1,14
 335 823 335 823 369 824 c 1,15,16
 369 862 369 862 355 1266 c 1,17,18
 331 1265 331 1265 271 1265 c 0,0,1
351 1496 m 1,19,-1
 350 1511 l 1,20,21
 350 1532 350 1532 354.5 1538 c 128,-1,22
 359 1544 359 1544 370 1544 c 2,23,-1
 377 1544 l 2,24,25
 461 1544 461 1544 461 1493 c 2,26,-1
 461 1314 l 1,27,28
 485 1303 485 1303 485 1284 c 0,29,30
 485 1262 485 1262 462 1262 c 1,31,32
 465 1085 465 1085 482.5 674 c 128,-1,33
 500 263 500 263 500 43 c 0,34,35
 500 16 500 16 483 -7.5 c 128,-1,36
 466 -31 466 -31 440 -31 c 0,37,38
 413 -31 413 -31 400.5 -11 c 128,-1,39
 388 9 388 9 388 37 c 0,40,41
 388 427 388 427 370 759 c 1,42,43
 315 769 315 769 302 769 c 0,44,45
 219 769 219 769 181 753 c 1,46,47
 181 639 181 639 198 408 c 128,-1,48
 215 177 215 177 215 59 c 0,49,50
 215 39 215 39 203 22 c 128,-1,51
 191 5 191 5 171 5 c 0,52,53
 150 5 150 5 138.5 13 c 128,-1,54
 127 21 127 21 115 41 c 0,55,56
 104 60 104 60 99.5 177.5 c 128,-1,57
 95 295 95 295 94 435 c 128,-1,58
 93 575 93 575 91 602 c 0,59,60
 63 986 63 986 57 1269 c 1,61,62
 43 1277 43 1277 43 1291 c 0,63,64
 43 1307 43 1307 56 1318 c 1,65,66
 53 1418 53 1418 53 1520 c 0,67,68
 53 1534 53 1534 73 1544 c 128,-1,69
 93 1554 93 1554 108 1554 c 0,70,71
 124 1554 124 1554 142.5 1542 c 128,-1,72
 161 1530 161 1530 161 1515 c 0,73,74
 161 1491 161 1491 157.5 1438.5 c 128,-1,75
 154 1386 154 1386 154 1360 c 2,76,-1
 154 1335 l 1,77,78
 266 1339 266 1339 277 1339 c 0,79,80
 303 1339 303 1339 353 1337 c 1,81,82
 351 1390 351 1390 351 1496 c 1,19,-1
EndSplineSet
EndChar

StartChar: Lslash
Encoding: 321 321 224
Width: 430
GlyphClass: 2
Flags: W
LayerCount: 2
UndoRedoHistory
Layer: 1
Undoes
EndUndoes
Redoes
EndRedoes
EndUndoRedoHistory
Fore
SplineSet
404 897 m 0,0,1
 404 829 404 829 191 797 c 1,2,-1
 191 795 l 2,3,4
 191 784 191 784 192.5 762.5 c 128,-1,5
 194 741 194 741 194 730 c 0,6,7
 194 717 194 717 193 710 c 1,8,-1
 193 701 l 1,9,10
 201 523 201 523 201 167 c 2,11,-1
 201 115 l 1,12,-1
 357 115 l 1,13,14
 401 85 401 85 401 54 c 0,15,16
 401 31 401 31 386 13.5 c 128,-1,17
 371 -4 371 -4 349 -4 c 0,18,19
 345 -4 345 -4 339.5 -3 c 128,-1,20
 334 -2 334 -2 327.5 0 c 128,-1,21
 321 2 321 2 318 3 c 1,22,23
 301 -1 301 -1 279 -1 c 0,24,25
 268 -1 268 -1 246 0.5 c 128,-1,26
 224 2 224 2 213 2 c 0,27,28
 206 2 206 2 182 3.5 c 128,-1,29
 158 5 158 5 145 5 c 0,30,31
 123 5 123 5 104.5 16 c 128,-1,32
 86 27 86 27 86 42 c 0,33,34
 86 58 86 58 92.5 87.5 c 128,-1,35
 99 117 99 117 99 132 c 0,36,37
 99 344 99 344 81 768 c 1,38,39
 50 754 50 754 29 754 c 0,40,41
 3 754 3 754 -17.5 768 c 128,-1,42
 -38 782 -38 782 -38 803 c 0,43,44
 -38 849 -38 849 76 873 c 1,45,46
 58 1311 58 1311 58 1529 c 0,47,48
 58 1548 58 1548 73 1559.5 c 128,-1,49
 88 1571 88 1571 108 1571 c 0,50,51
 133 1571 133 1571 151.5 1554 c 128,-1,52
 170 1537 170 1537 170 1512 c 0,53,54
 170 1396 170 1396 179 1183.5 c 128,-1,55
 188 971 188 971 190 904 c 1,56,57
 293 949 293 949 366 949 c 0,58,59
 380 949 380 949 392 934.5 c 128,-1,60
 404 920 404 920 404 897 c 0,0,1
EndSplineSet
EndChar

StartChar: OE
Encoding: 338 338 228
Width: 1113
GlyphClass: 2
Flags: W
LayerCount: 2
UndoRedoHistory
Layer: 1
Undoes
EndUndoes
Redoes
EndRedoes
EndUndoRedoHistory
Fore
SplineSet
921 87 m 1,0,-1
 925 85 l 1,1,2
 954 85 l 0,3,4
 1090 85 1090 85 1090 25 c 2,5,-1
 1090 18 l 1,6,-1
 1067 -16 l 1,7,8
 1013 -16 1013 -16 905 -19 c 128,-1,9
 797 -22 797 -22 743 -22 c 0,10,11
 719 -22 719 -22 694 -9 c 128,-1,12
 669 4 669 4 669 26 c 1,13,-1
 670 33 l 1,14,15
 594 9 594 9 561 9 c 0,16,17
 483 9 483 9 417.5 25 c 128,-1,18
 352 41 352 41 303.5 67 c 128,-1,19
 255 93 255 93 216.5 134.5 c 128,-1,20
 178 176 178 176 151.5 220 c 128,-1,21
 125 264 125 264 106 323.5 c 128,-1,22
 87 383 87 383 76.5 436 c 128,-1,23
 66 489 66 489 60 559 c 128,-1,24
 54 629 54 629 52.5 683.5 c 128,-1,25
 51 738 51 738 51 809 c 0,26,27
 51 861 51 861 51.5 894 c 128,-1,28
 52 927 52 927 55 991.5 c 128,-1,29
 58 1056 58 1056 63.5 1101.5 c 128,-1,30
 69 1147 69 1147 80 1209.5 c 128,-1,31
 91 1272 91 1272 106.5 1316 c 128,-1,32
 122 1360 122 1360 147 1407.5 c 128,-1,33
 172 1455 172 1455 203 1484 c 128,-1,34
 234 1513 234 1513 277 1532 c 128,-1,35
 320 1551 320 1551 372 1551 c 0,36,37
 460 1551 460 1551 527 1540 c 128,-1,38
 594 1529 594 1529 649 1494 c 1,39,-1
 679 1537 l 1,40,41
 694 1537 694 1537 725 1531 c 128,-1,42
 756 1525 756 1525 771 1525 c 2,43,-1
 923 1525 l 2,44,45
 933 1525 933 1525 950.5 1527 c 128,-1,46
 968 1529 968 1529 974 1529 c 1,47,48
 1021 1503 1021 1503 1021 1470 c 0,49,50
 1021 1449 1021 1449 1002.5 1437.5 c 128,-1,51
 984 1426 984 1426 961 1426 c 0,52,53
 922 1426 922 1426 848.5 1429.5 c 128,-1,54
 775 1433 775 1433 743 1433 c 1,55,56
 743 1364 743 1364 757 1226 c 128,-1,57
 771 1088 771 1088 771 1018 c 0,58,59
 771 1000 771 1000 769 965 c 128,-1,60
 767 930 767 930 767 913 c 0,61,62
 767 880 767 880 772 856 c 1,63,-1
 834 854 l 1,64,-1
 843 854 l 2,65,66
 852 854 852 854 867 854.5 c 128,-1,67
 882 855 882 855 888 855 c 0,68,69
 929 855 929 855 958 818 c 1,70,71
 958 754 958 754 902 754 c 0,72,73
 885 754 885 754 852 756 c 128,-1,74
 819 758 819 758 802 758 c 0,75,76
 783 758 783 758 774 757 c 1,77,78
 774 640 774 640 781 414 c 128,-1,79
 788 188 788 188 788 80 c 1,80,81
 891 87 891 87 921 87 c 1,0,-1
145 751 m 1,82,83
 155 732 155 732 162 645.5 c 128,-1,84
 169 559 169 559 175 471 c 128,-1,85
 181 383 181 383 202 309 c 128,-1,86
 223 235 223 235 257 232 c 1,87,88
 304 176 304 176 370 144 c 128,-1,89
 436 112 436 112 508 112 c 0,90,91
 533 112 533 112 570 116 c 128,-1,92
 607 120 607 120 647.5 133.5 c 128,-1,93
 688 147 688 147 688 168 c 0,94,95
 688 384 688 384 669 789 c 128,-1,96
 650 1194 650 1194 647 1371 c 1,97,98
 577 1449 577 1449 404 1449 c 0,99,100
 348 1449 348 1449 304.5 1425 c 128,-1,101
 261 1401 261 1401 233.5 1358.5 c 128,-1,102
 206 1316 206 1316 187.5 1267.5 c 128,-1,103
 169 1219 169 1219 160.5 1159.5 c 128,-1,104
 152 1100 152 1100 148.5 1053.5 c 128,-1,105
 145 1007 145 1007 145 957 c 0,106,107
 145 934 145 934 145.5 888 c 128,-1,108
 146 842 146 842 146 820 c 0,109,110
 146 774 146 774 145 751 c 1,82,83
EndSplineSet
EndChar

StartChar: Thorn
Encoding: 222 222 243
Width: 495
GlyphClass: 2
Flags: W
LayerCount: 2
UndoRedoHistory
Layer: 1
Undoes
EndUndoes
Redoes
EndRedoes
EndUndoRedoHistory
Fore
SplineSet
337 948 m 0,0,1
 337 1035 337 1035 324 1081.5 c 128,-1,2
 311 1128 311 1128 283 1160.5 c 128,-1,3
 255 1193 255 1193 184 1249 c 1,4,-1
 178 1249 l 1,5,6
 178 1141 178 1141 180 925 c 128,-1,7
 182 709 182 709 182 601 c 1,8,9
 261 676 261 676 299 759 c 128,-1,10
 337 842 337 842 337 948 c 0,0,1
64 1297 m 1,11,-1
 62 1487 l 2,12,13
 62 1548 62 1548 113 1548 c 0,14,15
 183 1548 183 1548 183 1424 c 0,16,17
 183 1409 183 1409 182 1384.5 c 128,-1,18
 181 1360 181 1360 181 1353 c 1,19,20
 267 1341 267 1341 328.5 1277 c 128,-1,21
 390 1213 390 1213 416.5 1132 c 128,-1,22
 443 1051 443 1051 443 965 c 0,23,24
 443 815 443 815 378 692.5 c 128,-1,25
 313 570 313 570 187 502 c 1,26,27
 187 433 187 433 195 290.5 c 128,-1,28
 203 148 203 148 203 74 c 0,29,30
 203 -11 203 -11 135 -11 c 0,31,32
 110 -11 110 -11 98 10.5 c 128,-1,33
 86 32 86 32 86 58 c 0,34,35
 86 264 86 264 75 677 c 128,-1,36
 64 1090 64 1090 64 1297 c 1,11,-1
EndSplineSet
EndChar

StartChar: acute
Encoding: 180 180 253
Width: 453
GlyphClass: 2
Flags: W
LayerCount: 2
UndoRedoHistory
Layer: 1
Undoes
EndUndoes
Redoes
EndRedoes
EndUndoRedoHistory
Fore
SplineSet
52 1339 m 0,0,1
 98 1382 98 1382 198.5 1468 c 128,-1,2
 299 1554 299 1554 320 1573 c 1,3,4
 332 1577 332 1577 337 1577 c 0,5,6
 362 1577 362 1577 383 1551.5 c 128,-1,7
 404 1526 404 1526 404 1500 c 0,8,9
 404 1478 404 1478 389 1468 c 0,10,11
 311 1411 311 1411 91 1295 c 0,12,13
 83 1291 83 1291 74 1291 c 0,14,15
 61 1291 61 1291 51 1299 c 128,-1,16
 41 1307 41 1307 41 1318 c 128,-1,17
 41 1329 41 1329 52 1339 c 0,0,1
EndSplineSet
EndChar

StartChar: breve
Encoding: 728 728 256
Width: 576
GlyphClass: 2
Flags: W
LayerCount: 2
UndoRedoHistory
Layer: 1
Undoes
EndUndoes
Redoes
EndRedoes
EndUndoRedoHistory
Fore
SplineSet
458 1032 m 1,0,-1
 458 1031 l 1,1,2
 422 947 422 947 403 922 c 0,3,4
 362 867 362 867 286 867 c 0,5,6
 226 867 226 867 185.5 904 c 128,-1,7
 145 941 145 941 129.5 991 c 128,-1,8
 114 1041 114 1041 114 1100 c 2,9,-1
 114 1110 l 1,10,-1
 152 1142 l 1,11,12
 176 1142 176 1142 191 1119 c 128,-1,13
 206 1096 206 1096 211.5 1067 c 128,-1,14
 217 1038 217 1038 229.5 1006.5 c 128,-1,15
 242 975 242 975 260 962 c 1,16,-1
 304 962 l 2,17,18
 318 962 318 962 334 994 c 128,-1,19
 350 1026 350 1026 350 1043 c 0,20,21
 350 1066 350 1066 351 1077 c 128,-1,22
 352 1088 352 1088 357 1103.5 c 128,-1,23
 362 1119 362 1119 374.5 1126 c 128,-1,24
 387 1133 387 1133 408 1133 c 128,-1,25
 429 1133 429 1133 445.5 1117.5 c 128,-1,26
 462 1102 462 1102 462 1081 c 0,27,28
 462 1076 462 1076 454 1048 c 1,29,-1
 458 1032 l 1,0,-1
EndSplineSet
EndChar

StartChar: brokenbar
Encoding: 166 166 257
Width: 325
GlyphClass: 2
Flags: W
LayerCount: 2
UndoRedoHistory
Layer: 1
Undoes
EndUndoes
Redoes
EndRedoes
EndUndoRedoHistory
Fore
SplineSet
112 1020 m 0,0,1
 112 1102 112 1102 108 1265.5 c 128,-1,2
 104 1429 104 1429 104 1510 c 0,3,4
 104 1584 104 1584 175 1584 c 0,5,6
 220 1584 220 1584 220 1393 c 0,7,8
 220 1366 220 1366 219 1328.5 c 128,-1,9
 218 1291 218 1291 218 1285 c 2,10,-1
 215 877 l 2,11,12
 215 856 215 856 199.5 841 c 128,-1,13
 184 826 184 826 163 826 c 0,14,15
 112 826 112 826 112 1020 c 0,0,1
157 695 m 0,16,17
 218 695 218 695 218 621 c 2,18,-1
 220 -16 l 2,19,20
 220 -80 220 -80 169 -80 c 0,21,22
 148 -80 148 -80 132.5 -65 c 128,-1,23
 117 -50 117 -50 117 -29 c 2,24,-1
 114 339 l 1,25,-1
 115 644 l 2,26,27
 115 663 115 663 127 679 c 128,-1,28
 139 695 139 695 157 695 c 0,16,17
EndSplineSet
EndChar

StartChar: bullet
Encoding: 8226 8226 258
Width: 637
GlyphClass: 2
Flags: W
LayerCount: 2
UndoRedoHistory
Layer: 1
Undoes
EndUndoes
Redoes
EndRedoes
EndUndoRedoHistory
Fore
SplineSet
105 727 m 0,0,1
 105 823 105 823 174 920 c 1,2,3
 184 941 184 941 231.5 976 c 128,-1,4
 279 1011 279 1011 301 1011 c 0,5,6
 368 1011 368 1011 417.5 987.5 c 128,-1,7
 467 964 467 964 491 926.5 c 128,-1,8
 515 889 515 889 526 852.5 c 128,-1,9
 537 816 537 816 537 779 c 0,10,11
 537 749 537 749 532 715.5 c 128,-1,12
 527 682 527 682 511.5 639.5 c 128,-1,13
 496 597 496 597 472 564 c 128,-1,14
 448 531 448 531 406 508 c 128,-1,15
 364 485 364 485 310 485 c 0,16,17
 230 485 230 485 168 546 c 128,-1,18
 106 607 106 607 106 665 c 0,19,20
 106 676 106 676 105.5 696 c 128,-1,21
 105 716 105 716 105 727 c 0,0,1
EndSplineSet
EndChar

StartChar: caron
Encoding: 711 711 260
Width: 498
GlyphClass: 2
Flags: W
LayerCount: 2
UndoRedoHistory
Layer: 1
Undoes
EndUndoes
Redoes
EndRedoes
EndUndoRedoHistory
Fore
SplineSet
94 1317 m 0,0,1
 94 1333 94 1333 109 1344.5 c 128,-1,2
 124 1356 124 1356 143 1356 c 0,3,4
 167 1356 167 1356 192.5 1297.5 c 128,-1,5
 218 1239 218 1239 244 1145 c 2,6,-1
 271 1051 l 1,7,8
 275 1073 275 1073 280 1120 c 128,-1,9
 285 1167 285 1167 290 1204 c 128,-1,10
 295 1241 295 1241 303.5 1280 c 128,-1,11
 312 1319 312 1319 326.5 1341 c 128,-1,12
 341 1363 341 1363 361 1363 c 0,13,14
 379 1363 379 1363 391.5 1351.5 c 128,-1,15
 404 1340 404 1340 404 1320 c 0,16,17
 404 1314 404 1314 397 1303.5 c 128,-1,18
 390 1293 390 1293 389 1289 c 1,19,-1
 389 1252 l 1,20,-1
 360 1140 l 2,21,22
 331 1028 331 1028 331 994 c 0,23,24
 331 928 331 928 279 928 c 0,25,26
 239 928 239 928 166.5 1094 c 128,-1,27
 94 1260 94 1260 94 1317 c 0,0,1
EndSplineSet
EndChar

StartChar: cedilla
Encoding: 184 184 262
Width: 404
GlyphClass: 2
Flags: W
LayerCount: 2
UndoRedoHistory
Layer: 1
Undoes
EndUndoes
Redoes
EndRedoes
EndUndoRedoHistory
Fore
SplineSet
185 -403 m 0,0,1
 222 -403 222 -403 242 -374.5 c 128,-1,2
 262 -346 262 -346 262 -304 c 0,3,4
 262 -271 262 -271 235.5 -245 c 128,-1,5
 209 -219 209 -219 164 -219 c 0,6,7
 85 -219 85 -219 82 -207 c 1,8,9
 82 -179 82 -179 86.5 -124.5 c 128,-1,10
 91 -70 91 -70 91 -41 c 0,11,12
 91 -2 91 -2 97 18 c 1,13,-1
 153 18 l 1,14,15
 143 -33 143 -33 140 -91 c 1,16,17
 249 -106 249 -106 299 -169 c 128,-1,18
 349 -232 349 -232 349 -318 c 0,19,20
 349 -378 349 -378 296 -431 c 128,-1,21
 243 -484 243 -484 180 -484 c 0,22,23
 135 -484 135 -484 96.5 -469 c 128,-1,24
 58 -454 58 -454 58 -425 c 0,25,26
 58 -407 58 -407 72 -394 c 128,-1,27
 86 -381 86 -381 104 -381 c 0,28,29
 119 -381 119 -381 145 -392 c 128,-1,30
 171 -403 171 -403 185 -403 c 0,0,1
EndSplineSet
EndChar

StartChar: cent
Encoding: 162 162 263
Width: 613
GlyphClass: 2
Flags: W
LayerCount: 2
UndoRedoHistory
Layer: 1
Undoes
EndUndoes
Redoes
EndRedoes
EndUndoRedoHistory
Fore
SplineSet
218 1125 m 1,0,1
 183 1074 183 1074 168 977 c 128,-1,2
 153 880 153 880 153 790 c 0,3,4
 153 445 153 445 276 424 c 1,5,6
 274 840 274 840 218 1125 c 1,0,1
284 203 m 1,7,-1
 281 202 l 1,8,9
 281 220 281 220 285 257 c 128,-1,10
 289 294 289 294 289 313 c 1,11,12
 246 329 246 329 212.5 348.5 c 128,-1,13
 179 368 179 368 154.5 393 c 128,-1,14
 130 418 130 418 112.5 441 c 128,-1,15
 95 464 95 464 84.5 498 c 128,-1,16
 74 532 74 532 67.5 557.5 c 128,-1,17
 61 583 61 583 58 626 c 128,-1,18
 55 669 55 669 54.5 697.5 c 128,-1,19
 54 726 54 726 54 777 c 0,20,21
 54 829 54 829 55 864 c 128,-1,22
 56 899 56 899 61 951.5 c 128,-1,23
 66 1004 66 1004 76.5 1042.5 c 128,-1,24
 87 1081 87 1081 104.5 1122.5 c 128,-1,25
 122 1164 122 1164 150.5 1197 c 128,-1,26
 179 1230 179 1230 217 1254 c 1,27,28
 206 1358 206 1358 206 1368 c 0,29,30
 206 1456 206 1456 258 1456 c 2,31,-1
 265 1456 l 1,32,-1
 295 1436 l 1,33,34
 290 1399 290 1399 290 1371 c 0,35,36
 290 1332 290 1332 300 1254 c 1,37,38
 309 1251 309 1251 333.5 1244.5 c 128,-1,39
 358 1238 358 1238 373 1233.5 c 128,-1,40
 388 1229 388 1229 410.5 1219.5 c 128,-1,41
 433 1210 433 1210 447 1200 c 128,-1,42
 461 1190 461 1190 471.5 1174.5 c 128,-1,43
 482 1159 482 1159 484 1140 c 1,44,-1
 482 1140 l 1,45,-1
 482 1135 l 2,46,47
 482 1118 482 1118 469.5 1101 c 128,-1,48
 457 1084 457 1084 440 1084 c 0,49,50
 418 1084 418 1084 399.5 1100.5 c 128,-1,51
 381 1117 381 1117 372 1140 c 1,52,-1
 314 1169 l 1,53,-1
 309 1169 l 1,54,55
 311 1051 311 1051 340.5 804 c 128,-1,56
 370 557 370 557 370 428 c 0,57,58
 370 424 370 424 369 415.5 c 128,-1,59
 368 407 368 407 368 403 c 128,-1,60
 368 399 368 399 370 391 c 1,61,62
 398 392 398 392 420 401.5 c 128,-1,63
 442 411 442 411 462 432 c 128,-1,64
 482 453 482 453 491.5 466 c 128,-1,65
 501 479 501 479 522 511 c 1,66,67
 581 511 581 511 581 451 c 0,68,69
 581 398 581 398 508.5 352 c 128,-1,70
 436 306 436 306 377 301 c 1,71,72
 369 249 369 249 369 222 c 0,73,74
 369 190 369 190 376 125 c 128,-1,75
 383 60 383 60 383 28 c 0,76,77
 383 8 383 8 368.5 -6 c 128,-1,78
 354 -20 354 -20 335 -20 c 2,79,-1
 326 -20 l 1,80,-1
 288 15 l 1,81,82
 292 38 292 38 292 65 c 0,83,84
 292 88 292 88 288 134 c 128,-1,85
 284 180 284 180 284 203 c 1,7,-1
EndSplineSet
EndChar

StartChar: circumflex
Encoding: 710 710 264
Width: 516
GlyphClass: 2
Flags: W
LayerCount: 2
UndoRedoHistory
Layer: 1
Undoes
EndUndoes
Redoes
EndRedoes
EndUndoRedoHistory
Fore
SplineSet
170 931 m 2,0,1
 164 917 164 917 141 917 c 0,2,3
 121 917 121 917 105 927.5 c 128,-1,4
 89 938 89 938 89 957 c 0,5,6
 89 967 89 967 93 976 c 0,7,8
 112 1021 112 1021 133.5 1075 c 128,-1,9
 155 1129 155 1129 166 1157 c 128,-1,10
 177 1185 177 1185 191.5 1217.5 c 128,-1,11
 206 1250 206 1250 215 1265 c 128,-1,12
 224 1280 224 1280 236.5 1294.5 c 128,-1,13
 249 1309 249 1309 261.5 1314 c 128,-1,14
 274 1319 274 1319 290 1319 c 0,15,16
 305 1319 305 1319 319 1299 c 128,-1,17
 333 1279 333 1279 346.5 1239 c 128,-1,18
 360 1199 360 1199 370.5 1160.5 c 128,-1,19
 381 1122 381 1122 396.5 1061.5 c 128,-1,20
 412 1001 412 1001 423 964 c 0,21,22
 426 954 426 954 426 946 c 0,23,24
 426 925 426 925 411.5 914 c 128,-1,25
 397 903 397 903 379 903 c 0,26,27
 358 903 358 903 353 917 c 2,28,-1
 273 1193 l 1,29,-1
 170 931 l 2,0,1
EndSplineSet
EndChar

StartChar: commaaccent
Encoding: 65542 -1 265
Width: 462
GlyphClass: 2
Flags: W
LayerCount: 2
UndoRedoHistory
Layer: 1
Undoes
EndUndoes
Redoes
EndRedoes
EndUndoRedoHistory
Fore
SplineSet
151 -550 m 0,0,1
 117 -550 117 -550 117 -527 c 1,2,3
 120 -513 120 -513 125 -489 c 128,-1,4
 130 -465 130 -465 148 -404 c 128,-1,5
 166 -343 166 -343 185.5 -296.5 c 128,-1,6
 205 -250 205 -250 237 -212 c 128,-1,7
 269 -174 269 -174 302 -174 c 1,8,9
 306 -177 306 -177 321.5 -181.5 c 128,-1,10
 337 -186 337 -186 347.5 -193.5 c 128,-1,11
 358 -201 358 -201 358 -215 c 0,12,13
 358 -262 358 -262 313 -344.5 c 128,-1,14
 268 -427 268 -427 218 -488.5 c 128,-1,15
 168 -550 168 -550 151 -550 c 0,0,1
EndSplineSet
EndChar

StartChar: currency
Encoding: 164 164 266
Width: 895
GlyphClass: 2
Flags: W
LayerCount: 2
UndoRedoHistory
Layer: 1
Undoes
EndUndoes
Redoes
EndRedoes
EndUndoRedoHistory
Fore
SplineSet
679 251 m 1,0,-1
 679 248 l 1,1,-1
 654 293 l 1,2,3
 555 205 555 205 415 205 c 0,4,5
 320 205 320 205 233 290 c 1,6,7
 207 234 207 234 190 218 c 1,8,9
 170 201 170 201 147 201 c 0,10,11
 116 201 116 201 99.5 222.5 c 128,-1,12
 83 244 83 244 83 276 c 0,13,14
 83 293 83 293 99.5 314.5 c 128,-1,15
 116 336 116 336 139 358.5 c 128,-1,16
 162 381 162 381 169 392 c 1,17,18
 137 452 137 452 137 567 c 0,19,20
 137 971 137 971 209 1078 c 1,21,22
 203 1090 203 1090 157.5 1135.5 c 128,-1,23
 112 1181 112 1181 112 1209 c 0,24,25
 112 1228 112 1228 126.5 1241.5 c 128,-1,26
 141 1255 141 1255 160 1255 c 0,27,28
 168 1255 168 1255 175.5 1253.5 c 128,-1,29
 183 1252 183 1252 188.5 1250 c 128,-1,30
 194 1248 194 1248 201 1243.5 c 128,-1,31
 208 1239 208 1239 212.5 1236.5 c 128,-1,32
 217 1234 217 1234 223.5 1227 c 128,-1,33
 230 1220 230 1220 233 1217 c 128,-1,34
 236 1214 236 1214 242.5 1206 c 128,-1,35
 249 1198 249 1198 251 1195 c 128,-1,36
 253 1192 253 1192 260 1183 c 128,-1,37
 267 1174 267 1174 268 1172 c 1,38,39
 272 1177 272 1177 287 1195 c 128,-1,40
 302 1213 302 1213 314 1225.5 c 128,-1,41
 326 1238 326 1238 341.5 1253 c 128,-1,42
 357 1268 357 1268 371.5 1276.5 c 128,-1,43
 386 1285 386 1285 398 1285 c 0,44,45
 514 1285 514 1285 620 1216 c 1,46,47
 628 1226 628 1226 650.5 1267 c 128,-1,48
 673 1308 673 1308 695.5 1329.5 c 128,-1,49
 718 1351 718 1351 749 1351 c 2,50,-1
 759 1351 l 1,51,-1
 802 1304 l 1,52,53
 800 1277 800 1277 776.5 1241.5 c 128,-1,54
 753 1206 753 1206 730 1178 c 128,-1,55
 707 1150 707 1150 707 1141 c 0,56,57
 707 1081 707 1081 752 959.5 c 128,-1,58
 797 838 797 838 797 772 c 0,59,60
 797 708 797 708 763.5 584.5 c 128,-1,61
 730 461 730 461 730 396 c 0,62,63
 730 366 730 366 768.5 322 c 128,-1,64
 807 278 807 278 807 247 c 0,65,66
 807 226 807 226 792.5 210.5 c 128,-1,67
 778 195 778 195 757 195 c 0,68,69
 728 195 728 195 705 209.5 c 128,-1,70
 682 224 682 224 679 251 c 1,0,-1
247 696 m 1,71,-1
 250 696 l 1,72,73
 252 678 252 678 252 669 c 0,74,75
 252 655 252 655 249.5 627.5 c 128,-1,76
 247 600 247 600 247 585 c 0,77,78
 247 468 247 468 301 421 c 1,79,80
 301 359 301 359 343.5 332 c 128,-1,81
 386 305 386 305 451 305 c 0,82,83
 505 305 505 305 547 341.5 c 128,-1,84
 589 378 589 378 613 431 c 128,-1,85
 637 484 637 484 652.5 552.5 c 128,-1,86
 668 621 668 621 673 675.5 c 128,-1,87
 678 730 678 730 678 779 c 0,88,89
 678 837 678 837 659.5 939 c 128,-1,90
 641 1041 641 1041 617 1071 c 1,91,92
 596 1075 596 1075 581.5 1092.5 c 128,-1,93
 567 1110 567 1110 565 1132 c 1,94,95
 520 1181 520 1181 442 1181 c 0,96,97
 425 1181 425 1181 387.5 1150.5 c 128,-1,98
 350 1120 350 1120 335 1100 c 1,99,-1
 350 1086 l 1,100,101
 350 1009 350 1009 303 1009 c 0,102,103
 286 1009 286 1009 266.5 886.5 c 128,-1,104
 247 764 247 764 247 696 c 1,71,-1
EndSplineSet
EndChar

